<svg width="342" height="202" viewBox="0 0 342 202" fill="none" xmlns="http://www.w3.org/2000/svg">
<line x1="42" y1="51.5" x2="342" y2="51.5" stroke="url(#paint0_linear_378_236)"/>
<line x1="42" y1="81.5" x2="342" y2="81.5" stroke="url(#paint1_linear_378_236)"/>
<line x1="42" y1="111.5" x2="342" y2="111.5" stroke="url(#paint2_linear_378_236)"/>
<line x1="42" y1="141.5" x2="342" y2="141.5" stroke="url(#paint3_linear_378_236)"/>
<line x1="42" y1="171.5" x2="342" y2="171.5" stroke="url(#paint4_linear_378_236)"/>
<rect x="154" y="87" width="28" height="84" rx="2" fill="#FDD106"/>
<rect x="106" y="91" width="28" height="80" rx="2" fill="#FDD106"/>
<rect x="58" y="108" width="28" height="63" rx="2" fill="#FDD106"/>
<rect x="202" y="74" width="28" height="97" rx="2" fill="#FDD106"/>
<rect x="250" y="55" width="28" height="116" rx="2" fill="#FDD106"/>
<rect x="298" y="133" width="28" height="38" rx="2" fill="#FDD106"/>
<path d="M57.9497 191.838H58.8337C58.8207 191.526 58.8597 191.227 58.9507 190.954C59.0417 190.681 59.1847 190.434 59.3667 190.226C59.5357 190.018 59.7567 189.849 60.0037 189.719C60.2507 189.602 60.5237 189.537 60.8227 189.537C61.1087 189.537 61.3687 189.576 61.6157 189.654C61.8627 189.745 62.0707 189.862 62.2527 190.031C62.4347 190.2 62.5777 190.395 62.6817 190.629C62.7857 190.863 62.8377 191.123 62.8377 191.422C62.8377 191.786 62.7727 192.098 62.6427 192.345C62.5127 192.592 62.3307 192.826 62.1097 193.021C61.8887 193.216 61.6287 193.398 61.3297 193.567C61.0307 193.736 60.7187 193.931 60.3937 194.126C60.0687 194.334 59.7307 194.568 59.3927 194.828C59.0417 195.088 58.7167 195.4 58.3917 195.764C58.0927 196.102 57.9107 196.453 57.8197 196.804C57.7287 197.155 57.6897 197.558 57.6767 198H63.6697V197.298H58.5607C58.5737 197.077 58.6127 196.882 58.6777 196.7C58.7427 196.531 58.8337 196.362 58.9507 196.219C59.0677 196.076 59.1847 195.933 59.3277 195.803L59.7567 195.452C59.9777 195.283 60.2377 195.114 60.5237 194.958C60.8097 194.802 61.0957 194.633 61.3947 194.464C61.6937 194.295 61.9797 194.126 62.2657 193.931C62.5387 193.736 62.7987 193.528 63.0197 193.281C63.2407 193.034 63.4097 192.761 63.5527 192.449C63.6827 192.137 63.7477 191.773 63.7477 191.37C63.7477 191.019 63.6827 190.694 63.5657 190.382C63.4487 190.07 63.2667 189.797 63.0327 189.576C62.7857 189.355 62.4997 189.173 62.1487 189.03C61.7977 188.9 61.3817 188.835 60.9267 188.835C60.4717 188.835 60.0687 188.9 59.7047 189.043C59.3277 189.186 59.0157 189.394 58.7557 189.654C58.4957 189.927 58.3007 190.239 58.1577 190.603C58.0147 190.98 57.9497 191.383 57.9497 191.838ZM67.8904 188.835C67.2274 188.835 66.6944 188.965 66.2914 189.238C65.8884 189.511 65.5764 189.862 65.3554 190.291C65.1344 190.733 64.9784 191.227 64.9004 191.786C64.8224 192.345 64.7834 192.904 64.7834 193.489C64.7834 194.126 64.8224 194.724 64.9134 195.283C65.0044 195.855 65.1604 196.349 65.3944 196.778C65.6154 197.207 65.9404 197.558 66.3434 197.805C66.7464 198.052 67.2534 198.182 67.8904 198.182C68.5274 198.182 69.0344 198.052 69.4374 197.805C69.8404 197.558 70.1524 197.22 70.3864 196.791C70.6074 196.362 70.7634 195.881 70.8544 195.322C70.9454 194.763 70.9844 194.191 70.9844 193.58C70.9844 193.229 70.9714 192.865 70.9454 192.488C70.9194 192.111 70.8674 191.747 70.7894 191.396C70.7114 191.045 70.6074 190.72 70.4644 190.408C70.3214 190.096 70.1264 189.823 69.9054 189.589C69.6714 189.355 69.3854 189.173 69.0604 189.03C68.7354 188.9 68.3454 188.835 67.8904 188.835ZM70.1524 193.489C70.1524 193.944 70.1264 194.412 70.0744 194.893C70.0224 195.374 69.9184 195.803 69.7624 196.18C69.6064 196.557 69.3854 196.869 69.0864 197.116C68.7874 197.363 68.3844 197.48 67.8904 197.48C67.4484 197.48 67.0844 197.389 66.7984 197.194C66.4994 197.012 66.2654 196.752 66.0964 196.414C65.9274 196.076 65.7974 195.66 65.7324 195.179C65.6544 194.698 65.6154 194.165 65.6154 193.58C65.6154 193.073 65.6544 192.579 65.7194 192.098C65.7844 191.617 65.8884 191.175 66.0574 190.798C66.2264 190.421 66.4474 190.109 66.7464 189.875C67.0324 189.654 67.4094 189.537 67.8644 189.537C68.3454 189.537 68.7484 189.654 69.0474 189.875C69.3464 190.096 69.5674 190.395 69.7364 190.772C69.9054 191.149 70.0094 191.565 70.0744 192.033C70.1264 192.514 70.1524 192.995 70.1524 193.489ZM73.06 190.642V191.188H75.426V198H76.258V188.835H75.595C75.53 189.225 75.426 189.537 75.283 189.758C75.14 189.992 74.958 190.174 74.75 190.291C74.529 190.408 74.282 190.499 74.009 190.538C73.723 190.577 73.411 190.616 73.06 190.642ZM85.3276 189.706V188.926H79.4906V189.758H84.3266C83.8846 190.291 83.4556 190.902 83.0396 191.578C82.6236 192.267 82.2466 192.969 81.9216 193.697C81.5966 194.425 81.3236 195.153 81.1026 195.894C80.8816 196.635 80.7386 197.337 80.6996 198H81.6096C81.6356 197.545 81.7266 196.999 81.8696 196.362C82.0126 195.725 82.2206 195.023 82.5196 194.282C82.8186 193.541 83.1956 192.787 83.6506 191.994C84.1056 191.214 84.6646 190.447 85.3276 189.706Z" fill="#818181"/>
<path d="M105.95 191.838H106.834C106.821 191.526 106.86 191.227 106.951 190.954C107.042 190.681 107.185 190.434 107.367 190.226C107.536 190.018 107.757 189.849 108.004 189.719C108.251 189.602 108.524 189.537 108.823 189.537C109.109 189.537 109.369 189.576 109.616 189.654C109.863 189.745 110.071 189.862 110.253 190.031C110.435 190.2 110.578 190.395 110.682 190.629C110.786 190.863 110.838 191.123 110.838 191.422C110.838 191.786 110.773 192.098 110.643 192.345C110.513 192.592 110.331 192.826 110.11 193.021C109.889 193.216 109.629 193.398 109.33 193.567C109.031 193.736 108.719 193.931 108.394 194.126C108.069 194.334 107.731 194.568 107.393 194.828C107.042 195.088 106.717 195.4 106.392 195.764C106.093 196.102 105.911 196.453 105.82 196.804C105.729 197.155 105.69 197.558 105.677 198H111.67V197.298H106.561C106.574 197.077 106.613 196.882 106.678 196.7C106.743 196.531 106.834 196.362 106.951 196.219C107.068 196.076 107.185 195.933 107.328 195.803L107.757 195.452C107.978 195.283 108.238 195.114 108.524 194.958C108.81 194.802 109.096 194.633 109.395 194.464C109.694 194.295 109.98 194.126 110.266 193.931C110.539 193.736 110.799 193.528 111.02 193.281C111.241 193.034 111.41 192.761 111.553 192.449C111.683 192.137 111.748 191.773 111.748 191.37C111.748 191.019 111.683 190.694 111.566 190.382C111.449 190.07 111.267 189.797 111.033 189.576C110.786 189.355 110.5 189.173 110.149 189.03C109.798 188.9 109.382 188.835 108.927 188.835C108.472 188.835 108.069 188.9 107.705 189.043C107.328 189.186 107.016 189.394 106.756 189.654C106.496 189.927 106.301 190.239 106.158 190.603C106.015 190.98 105.95 191.383 105.95 191.838ZM115.89 188.835C115.227 188.835 114.694 188.965 114.291 189.238C113.888 189.511 113.576 189.862 113.355 190.291C113.134 190.733 112.978 191.227 112.9 191.786C112.822 192.345 112.783 192.904 112.783 193.489C112.783 194.126 112.822 194.724 112.913 195.283C113.004 195.855 113.16 196.349 113.394 196.778C113.615 197.207 113.94 197.558 114.343 197.805C114.746 198.052 115.253 198.182 115.89 198.182C116.527 198.182 117.034 198.052 117.437 197.805C117.84 197.558 118.152 197.22 118.386 196.791C118.607 196.362 118.763 195.881 118.854 195.322C118.945 194.763 118.984 194.191 118.984 193.58C118.984 193.229 118.971 192.865 118.945 192.488C118.919 192.111 118.867 191.747 118.789 191.396C118.711 191.045 118.607 190.72 118.464 190.408C118.321 190.096 118.126 189.823 117.905 189.589C117.671 189.355 117.385 189.173 117.06 189.03C116.735 188.9 116.345 188.835 115.89 188.835ZM118.152 193.489C118.152 193.944 118.126 194.412 118.074 194.893C118.022 195.374 117.918 195.803 117.762 196.18C117.606 196.557 117.385 196.869 117.086 197.116C116.787 197.363 116.384 197.48 115.89 197.48C115.448 197.48 115.084 197.389 114.798 197.194C114.499 197.012 114.265 196.752 114.096 196.414C113.927 196.076 113.797 195.66 113.732 195.179C113.654 194.698 113.615 194.165 113.615 193.58C113.615 193.073 113.654 192.579 113.719 192.098C113.784 191.617 113.888 191.175 114.057 190.798C114.226 190.421 114.447 190.109 114.746 189.875C115.032 189.654 115.409 189.537 115.864 189.537C116.345 189.537 116.748 189.654 117.047 189.875C117.346 190.096 117.567 190.395 117.736 190.772C117.905 191.149 118.009 191.565 118.074 192.033C118.126 192.514 118.152 192.995 118.152 193.489ZM121.06 190.642V191.188H123.426V198H124.258V188.835H123.595C123.53 189.225 123.426 189.537 123.283 189.758C123.14 189.992 122.958 190.174 122.75 190.291C122.529 190.408 122.282 190.499 122.009 190.538C121.723 190.577 121.411 190.616 121.06 190.642ZM128.895 193.073C128.375 193.268 127.985 193.58 127.712 194.009C127.439 194.438 127.296 194.932 127.296 195.478C127.296 195.933 127.387 196.323 127.556 196.661C127.725 196.999 127.959 197.285 128.232 197.506C128.505 197.727 128.804 197.896 129.155 198.013C129.493 198.13 129.831 198.182 130.156 198.182C130.637 198.182 131.079 198.117 131.482 198C131.885 197.883 132.223 197.701 132.509 197.467C132.782 197.233 133.003 196.947 133.159 196.596C133.302 196.245 133.38 195.855 133.38 195.4C133.38 194.867 133.237 194.399 132.951 193.996C132.652 193.593 132.262 193.307 131.755 193.125C132.197 192.904 132.522 192.631 132.717 192.293C132.912 191.955 133.003 191.552 133.003 191.071C133.003 190.681 132.925 190.343 132.769 190.057C132.613 189.784 132.405 189.55 132.145 189.368C131.885 189.186 131.586 189.056 131.261 188.965C130.923 188.874 130.585 188.835 130.234 188.835C129.87 188.822 129.532 188.874 129.22 188.991C128.895 189.108 128.622 189.264 128.388 189.459C128.154 189.667 127.972 189.914 127.829 190.187C127.686 190.46 127.621 190.759 127.621 191.071C127.621 191.344 127.647 191.578 127.699 191.76C127.738 191.955 127.816 192.124 127.92 192.267C128.024 192.41 128.154 192.553 128.323 192.67C128.479 192.8 128.674 192.93 128.895 193.073ZM130.312 189.537C130.949 189.537 131.417 189.667 131.716 189.914C132.015 190.174 132.171 190.538 132.171 191.006C132.171 191.331 132.132 191.617 132.041 191.838C131.95 192.059 131.82 192.254 131.664 192.397C131.508 192.54 131.326 192.644 131.105 192.709C130.884 192.774 130.65 192.813 130.403 192.813C130.156 192.813 129.909 192.774 129.675 192.709C129.441 192.644 129.233 192.553 129.051 192.423C128.869 192.293 128.726 192.124 128.622 191.916C128.505 191.721 128.453 191.474 128.453 191.188C128.453 190.915 128.505 190.681 128.596 190.473C128.687 190.265 128.83 190.096 128.999 189.953C129.168 189.81 129.363 189.706 129.584 189.641C129.805 189.576 130.052 189.537 130.312 189.537ZM130.351 193.515C130.65 193.515 130.936 193.554 131.209 193.632C131.482 193.71 131.716 193.827 131.911 193.983C132.106 194.152 132.262 194.347 132.379 194.581C132.496 194.828 132.548 195.101 132.548 195.426C132.548 195.725 132.496 196.011 132.392 196.258C132.275 196.505 132.132 196.726 131.937 196.908C131.742 197.09 131.508 197.233 131.248 197.324C130.988 197.428 130.702 197.48 130.403 197.48C130.052 197.48 129.74 197.428 129.467 197.324C129.181 197.22 128.947 197.077 128.752 196.895C128.557 196.726 128.401 196.518 128.297 196.271C128.18 196.024 128.128 195.764 128.128 195.478C128.128 195.14 128.18 194.841 128.297 194.594C128.414 194.347 128.57 194.152 128.765 193.983C128.96 193.827 129.194 193.71 129.467 193.632C129.74 193.554 130.026 193.515 130.351 193.515Z" fill="#818181"/>
<path d="M153.95 191.838H154.834C154.821 191.526 154.86 191.227 154.951 190.954C155.042 190.681 155.185 190.434 155.367 190.226C155.536 190.018 155.757 189.849 156.004 189.719C156.251 189.602 156.524 189.537 156.823 189.537C157.109 189.537 157.369 189.576 157.616 189.654C157.863 189.745 158.071 189.862 158.253 190.031C158.435 190.2 158.578 190.395 158.682 190.629C158.786 190.863 158.838 191.123 158.838 191.422C158.838 191.786 158.773 192.098 158.643 192.345C158.513 192.592 158.331 192.826 158.11 193.021C157.889 193.216 157.629 193.398 157.33 193.567C157.031 193.736 156.719 193.931 156.394 194.126C156.069 194.334 155.731 194.568 155.393 194.828C155.042 195.088 154.717 195.4 154.392 195.764C154.093 196.102 153.911 196.453 153.82 196.804C153.729 197.155 153.69 197.558 153.677 198H159.67V197.298H154.561C154.574 197.077 154.613 196.882 154.678 196.7C154.743 196.531 154.834 196.362 154.951 196.219C155.068 196.076 155.185 195.933 155.328 195.803L155.757 195.452C155.978 195.283 156.238 195.114 156.524 194.958C156.81 194.802 157.096 194.633 157.395 194.464C157.694 194.295 157.98 194.126 158.266 193.931C158.539 193.736 158.799 193.528 159.02 193.281C159.241 193.034 159.41 192.761 159.553 192.449C159.683 192.137 159.748 191.773 159.748 191.37C159.748 191.019 159.683 190.694 159.566 190.382C159.449 190.07 159.267 189.797 159.033 189.576C158.786 189.355 158.5 189.173 158.149 189.03C157.798 188.9 157.382 188.835 156.927 188.835C156.472 188.835 156.069 188.9 155.705 189.043C155.328 189.186 155.016 189.394 154.756 189.654C154.496 189.927 154.301 190.239 154.158 190.603C154.015 190.98 153.95 191.383 153.95 191.838ZM163.89 188.835C163.227 188.835 162.694 188.965 162.291 189.238C161.888 189.511 161.576 189.862 161.355 190.291C161.134 190.733 160.978 191.227 160.9 191.786C160.822 192.345 160.783 192.904 160.783 193.489C160.783 194.126 160.822 194.724 160.913 195.283C161.004 195.855 161.16 196.349 161.394 196.778C161.615 197.207 161.94 197.558 162.343 197.805C162.746 198.052 163.253 198.182 163.89 198.182C164.527 198.182 165.034 198.052 165.437 197.805C165.84 197.558 166.152 197.22 166.386 196.791C166.607 196.362 166.763 195.881 166.854 195.322C166.945 194.763 166.984 194.191 166.984 193.58C166.984 193.229 166.971 192.865 166.945 192.488C166.919 192.111 166.867 191.747 166.789 191.396C166.711 191.045 166.607 190.72 166.464 190.408C166.321 190.096 166.126 189.823 165.905 189.589C165.671 189.355 165.385 189.173 165.06 189.03C164.735 188.9 164.345 188.835 163.89 188.835ZM166.152 193.489C166.152 193.944 166.126 194.412 166.074 194.893C166.022 195.374 165.918 195.803 165.762 196.18C165.606 196.557 165.385 196.869 165.086 197.116C164.787 197.363 164.384 197.48 163.89 197.48C163.448 197.48 163.084 197.389 162.798 197.194C162.499 197.012 162.265 196.752 162.096 196.414C161.927 196.076 161.797 195.66 161.732 195.179C161.654 194.698 161.615 194.165 161.615 193.58C161.615 193.073 161.654 192.579 161.719 192.098C161.784 191.617 161.888 191.175 162.057 190.798C162.226 190.421 162.447 190.109 162.746 189.875C163.032 189.654 163.409 189.537 163.864 189.537C164.345 189.537 164.748 189.654 165.047 189.875C165.346 190.096 165.567 190.395 165.736 190.772C165.905 191.149 166.009 191.565 166.074 192.033C166.126 192.514 166.152 192.995 166.152 193.489ZM169.06 190.642V191.188H171.426V198H172.258V188.835H171.595C171.53 189.225 171.426 189.537 171.283 189.758C171.14 189.992 170.958 190.174 170.75 190.291C170.529 190.408 170.282 190.499 170.009 190.538C169.723 190.577 169.411 190.616 169.06 190.642ZM176.258 195.985H175.413C175.452 196.362 175.543 196.687 175.686 196.96C175.829 197.233 176.024 197.467 176.258 197.649C176.492 197.831 176.765 197.961 177.077 198.052C177.389 198.143 177.727 198.182 178.078 198.182C178.559 198.182 179.014 198.078 179.417 197.883C179.82 197.688 180.184 197.389 180.483 196.986C180.782 196.583 181.003 196.089 181.172 195.504C181.341 194.919 181.419 194.243 181.419 193.463C181.419 192.826 181.367 192.215 181.263 191.656C181.159 191.097 180.99 190.603 180.743 190.187C180.496 189.771 180.158 189.446 179.755 189.199C179.339 188.952 178.819 188.835 178.208 188.835C177.701 188.835 177.272 188.913 176.908 189.056C176.531 189.212 176.232 189.42 175.985 189.693C175.738 189.966 175.556 190.291 175.439 190.655C175.322 191.032 175.257 191.435 175.257 191.864C175.257 192.306 175.322 192.709 175.465 193.073C175.595 193.437 175.79 193.749 176.037 194.009C176.284 194.269 176.57 194.464 176.921 194.607C177.272 194.75 177.662 194.815 178.091 194.815C178.637 194.815 179.118 194.698 179.534 194.451C179.937 194.204 180.288 193.853 180.561 193.385L180.587 193.411C180.574 193.827 180.535 194.269 180.47 194.737C180.405 195.218 180.275 195.66 180.106 196.063C179.924 196.466 179.677 196.804 179.352 197.077C179.027 197.35 178.585 197.48 178.039 197.48C177.532 197.48 177.129 197.35 176.843 197.103C176.544 196.856 176.349 196.479 176.258 195.985ZM178.208 189.537C178.845 189.55 179.352 189.771 179.716 190.187C180.08 190.616 180.262 191.162 180.262 191.838C180.262 192.15 180.223 192.436 180.132 192.709C180.041 192.982 179.898 193.229 179.729 193.437C179.547 193.645 179.326 193.814 179.079 193.931C178.819 194.048 178.533 194.113 178.208 194.113C177.532 194.113 177.012 193.918 176.648 193.528C176.271 193.138 176.089 192.592 176.089 191.89C176.089 191.175 176.271 190.603 176.622 190.187C176.973 189.771 177.506 189.55 178.208 189.537Z" fill="#818181"/>
<path d="M201.95 191.838H202.834C202.821 191.526 202.86 191.227 202.951 190.954C203.042 190.681 203.185 190.434 203.367 190.226C203.536 190.018 203.757 189.849 204.004 189.719C204.251 189.602 204.524 189.537 204.823 189.537C205.109 189.537 205.369 189.576 205.616 189.654C205.863 189.745 206.071 189.862 206.253 190.031C206.435 190.2 206.578 190.395 206.682 190.629C206.786 190.863 206.838 191.123 206.838 191.422C206.838 191.786 206.773 192.098 206.643 192.345C206.513 192.592 206.331 192.826 206.11 193.021C205.889 193.216 205.629 193.398 205.33 193.567C205.031 193.736 204.719 193.931 204.394 194.126C204.069 194.334 203.731 194.568 203.393 194.828C203.042 195.088 202.717 195.4 202.392 195.764C202.093 196.102 201.911 196.453 201.82 196.804C201.729 197.155 201.69 197.558 201.677 198H207.67V197.298H202.561C202.574 197.077 202.613 196.882 202.678 196.7C202.743 196.531 202.834 196.362 202.951 196.219C203.068 196.076 203.185 195.933 203.328 195.803L203.757 195.452C203.978 195.283 204.238 195.114 204.524 194.958C204.81 194.802 205.096 194.633 205.395 194.464C205.694 194.295 205.98 194.126 206.266 193.931C206.539 193.736 206.799 193.528 207.02 193.281C207.241 193.034 207.41 192.761 207.553 192.449C207.683 192.137 207.748 191.773 207.748 191.37C207.748 191.019 207.683 190.694 207.566 190.382C207.449 190.07 207.267 189.797 207.033 189.576C206.786 189.355 206.5 189.173 206.149 189.03C205.798 188.9 205.382 188.835 204.927 188.835C204.472 188.835 204.069 188.9 203.705 189.043C203.328 189.186 203.016 189.394 202.756 189.654C202.496 189.927 202.301 190.239 202.158 190.603C202.015 190.98 201.95 191.383 201.95 191.838ZM211.89 188.835C211.227 188.835 210.694 188.965 210.291 189.238C209.888 189.511 209.576 189.862 209.355 190.291C209.134 190.733 208.978 191.227 208.9 191.786C208.822 192.345 208.783 192.904 208.783 193.489C208.783 194.126 208.822 194.724 208.913 195.283C209.004 195.855 209.16 196.349 209.394 196.778C209.615 197.207 209.94 197.558 210.343 197.805C210.746 198.052 211.253 198.182 211.89 198.182C212.527 198.182 213.034 198.052 213.437 197.805C213.84 197.558 214.152 197.22 214.386 196.791C214.607 196.362 214.763 195.881 214.854 195.322C214.945 194.763 214.984 194.191 214.984 193.58C214.984 193.229 214.971 192.865 214.945 192.488C214.919 192.111 214.867 191.747 214.789 191.396C214.711 191.045 214.607 190.72 214.464 190.408C214.321 190.096 214.126 189.823 213.905 189.589C213.671 189.355 213.385 189.173 213.06 189.03C212.735 188.9 212.345 188.835 211.89 188.835ZM214.152 193.489C214.152 193.944 214.126 194.412 214.074 194.893C214.022 195.374 213.918 195.803 213.762 196.18C213.606 196.557 213.385 196.869 213.086 197.116C212.787 197.363 212.384 197.48 211.89 197.48C211.448 197.48 211.084 197.389 210.798 197.194C210.499 197.012 210.265 196.752 210.096 196.414C209.927 196.076 209.797 195.66 209.732 195.179C209.654 194.698 209.615 194.165 209.615 193.58C209.615 193.073 209.654 192.579 209.719 192.098C209.784 191.617 209.888 191.175 210.057 190.798C210.226 190.421 210.447 190.109 210.746 189.875C211.032 189.654 211.409 189.537 211.864 189.537C212.345 189.537 212.748 189.654 213.047 189.875C213.346 190.096 213.567 190.395 213.736 190.772C213.905 191.149 214.009 191.565 214.074 192.033C214.126 192.514 214.152 192.995 214.152 193.489ZM216.397 191.838H217.281C217.268 191.526 217.307 191.227 217.398 190.954C217.489 190.681 217.632 190.434 217.814 190.226C217.983 190.018 218.204 189.849 218.451 189.719C218.698 189.602 218.971 189.537 219.27 189.537C219.556 189.537 219.816 189.576 220.063 189.654C220.31 189.745 220.518 189.862 220.7 190.031C220.882 190.2 221.025 190.395 221.129 190.629C221.233 190.863 221.285 191.123 221.285 191.422C221.285 191.786 221.22 192.098 221.09 192.345C220.96 192.592 220.778 192.826 220.557 193.021C220.336 193.216 220.076 193.398 219.777 193.567C219.478 193.736 219.166 193.931 218.841 194.126C218.516 194.334 218.178 194.568 217.84 194.828C217.489 195.088 217.164 195.4 216.839 195.764C216.54 196.102 216.358 196.453 216.267 196.804C216.176 197.155 216.137 197.558 216.124 198H222.117V197.298H217.008C217.021 197.077 217.06 196.882 217.125 196.7C217.19 196.531 217.281 196.362 217.398 196.219C217.515 196.076 217.632 195.933 217.775 195.803L218.204 195.452C218.425 195.283 218.685 195.114 218.971 194.958C219.257 194.802 219.543 194.633 219.842 194.464C220.141 194.295 220.427 194.126 220.713 193.931C220.986 193.736 221.246 193.528 221.467 193.281C221.688 193.034 221.857 192.761 222 192.449C222.13 192.137 222.195 191.773 222.195 191.37C222.195 191.019 222.13 190.694 222.013 190.382C221.896 190.07 221.714 189.797 221.48 189.576C221.233 189.355 220.947 189.173 220.596 189.03C220.245 188.9 219.829 188.835 219.374 188.835C218.919 188.835 218.516 188.9 218.152 189.043C217.775 189.186 217.463 189.394 217.203 189.654C216.943 189.927 216.748 190.239 216.605 190.603C216.462 190.98 216.397 191.383 216.397 191.838ZM226.338 188.835C225.675 188.835 225.142 188.965 224.739 189.238C224.336 189.511 224.024 189.862 223.803 190.291C223.582 190.733 223.426 191.227 223.348 191.786C223.27 192.345 223.231 192.904 223.231 193.489C223.231 194.126 223.27 194.724 223.361 195.283C223.452 195.855 223.608 196.349 223.842 196.778C224.063 197.207 224.388 197.558 224.791 197.805C225.194 198.052 225.701 198.182 226.338 198.182C226.975 198.182 227.482 198.052 227.885 197.805C228.288 197.558 228.6 197.22 228.834 196.791C229.055 196.362 229.211 195.881 229.302 195.322C229.393 194.763 229.432 194.191 229.432 193.58C229.432 193.229 229.419 192.865 229.393 192.488C229.367 192.111 229.315 191.747 229.237 191.396C229.159 191.045 229.055 190.72 228.912 190.408C228.769 190.096 228.574 189.823 228.353 189.589C228.119 189.355 227.833 189.173 227.508 189.03C227.183 188.9 226.793 188.835 226.338 188.835ZM228.6 193.489C228.6 193.944 228.574 194.412 228.522 194.893C228.47 195.374 228.366 195.803 228.21 196.18C228.054 196.557 227.833 196.869 227.534 197.116C227.235 197.363 226.832 197.48 226.338 197.48C225.896 197.48 225.532 197.389 225.246 197.194C224.947 197.012 224.713 196.752 224.544 196.414C224.375 196.076 224.245 195.66 224.18 195.179C224.102 194.698 224.063 194.165 224.063 193.58C224.063 193.073 224.102 192.579 224.167 192.098C224.232 191.617 224.336 191.175 224.505 190.798C224.674 190.421 224.895 190.109 225.194 189.875C225.48 189.654 225.857 189.537 226.312 189.537C226.793 189.537 227.196 189.654 227.495 189.875C227.794 190.096 228.015 190.395 228.184 190.772C228.353 191.149 228.457 191.565 228.522 192.033C228.574 192.514 228.6 192.995 228.6 193.489Z" fill="#818181"/>
<path d="M249.95 191.838H250.834C250.821 191.526 250.86 191.227 250.951 190.954C251.042 190.681 251.185 190.434 251.367 190.226C251.536 190.018 251.757 189.849 252.004 189.719C252.251 189.602 252.524 189.537 252.823 189.537C253.109 189.537 253.369 189.576 253.616 189.654C253.863 189.745 254.071 189.862 254.253 190.031C254.435 190.2 254.578 190.395 254.682 190.629C254.786 190.863 254.838 191.123 254.838 191.422C254.838 191.786 254.773 192.098 254.643 192.345C254.513 192.592 254.331 192.826 254.11 193.021C253.889 193.216 253.629 193.398 253.33 193.567C253.031 193.736 252.719 193.931 252.394 194.126C252.069 194.334 251.731 194.568 251.393 194.828C251.042 195.088 250.717 195.4 250.392 195.764C250.093 196.102 249.911 196.453 249.82 196.804C249.729 197.155 249.69 197.558 249.677 198H255.67V197.298H250.561C250.574 197.077 250.613 196.882 250.678 196.7C250.743 196.531 250.834 196.362 250.951 196.219C251.068 196.076 251.185 195.933 251.328 195.803L251.757 195.452C251.978 195.283 252.238 195.114 252.524 194.958C252.81 194.802 253.096 194.633 253.395 194.464C253.694 194.295 253.98 194.126 254.266 193.931C254.539 193.736 254.799 193.528 255.02 193.281C255.241 193.034 255.41 192.761 255.553 192.449C255.683 192.137 255.748 191.773 255.748 191.37C255.748 191.019 255.683 190.694 255.566 190.382C255.449 190.07 255.267 189.797 255.033 189.576C254.786 189.355 254.5 189.173 254.149 189.03C253.798 188.9 253.382 188.835 252.927 188.835C252.472 188.835 252.069 188.9 251.705 189.043C251.328 189.186 251.016 189.394 250.756 189.654C250.496 189.927 250.301 190.239 250.158 190.603C250.015 190.98 249.95 191.383 249.95 191.838ZM259.89 188.835C259.227 188.835 258.694 188.965 258.291 189.238C257.888 189.511 257.576 189.862 257.355 190.291C257.134 190.733 256.978 191.227 256.9 191.786C256.822 192.345 256.783 192.904 256.783 193.489C256.783 194.126 256.822 194.724 256.913 195.283C257.004 195.855 257.16 196.349 257.394 196.778C257.615 197.207 257.94 197.558 258.343 197.805C258.746 198.052 259.253 198.182 259.89 198.182C260.527 198.182 261.034 198.052 261.437 197.805C261.84 197.558 262.152 197.22 262.386 196.791C262.607 196.362 262.763 195.881 262.854 195.322C262.945 194.763 262.984 194.191 262.984 193.58C262.984 193.229 262.971 192.865 262.945 192.488C262.919 192.111 262.867 191.747 262.789 191.396C262.711 191.045 262.607 190.72 262.464 190.408C262.321 190.096 262.126 189.823 261.905 189.589C261.671 189.355 261.385 189.173 261.06 189.03C260.735 188.9 260.345 188.835 259.89 188.835ZM262.152 193.489C262.152 193.944 262.126 194.412 262.074 194.893C262.022 195.374 261.918 195.803 261.762 196.18C261.606 196.557 261.385 196.869 261.086 197.116C260.787 197.363 260.384 197.48 259.89 197.48C259.448 197.48 259.084 197.389 258.798 197.194C258.499 197.012 258.265 196.752 258.096 196.414C257.927 196.076 257.797 195.66 257.732 195.179C257.654 194.698 257.615 194.165 257.615 193.58C257.615 193.073 257.654 192.579 257.719 192.098C257.784 191.617 257.888 191.175 258.057 190.798C258.226 190.421 258.447 190.109 258.746 189.875C259.032 189.654 259.409 189.537 259.864 189.537C260.345 189.537 260.748 189.654 261.047 189.875C261.346 190.096 261.567 190.395 261.736 190.772C261.905 191.149 262.009 191.565 262.074 192.033C262.126 192.514 262.152 192.995 262.152 193.489ZM264.397 191.838H265.281C265.268 191.526 265.307 191.227 265.398 190.954C265.489 190.681 265.632 190.434 265.814 190.226C265.983 190.018 266.204 189.849 266.451 189.719C266.698 189.602 266.971 189.537 267.27 189.537C267.556 189.537 267.816 189.576 268.063 189.654C268.31 189.745 268.518 189.862 268.7 190.031C268.882 190.2 269.025 190.395 269.129 190.629C269.233 190.863 269.285 191.123 269.285 191.422C269.285 191.786 269.22 192.098 269.09 192.345C268.96 192.592 268.778 192.826 268.557 193.021C268.336 193.216 268.076 193.398 267.777 193.567C267.478 193.736 267.166 193.931 266.841 194.126C266.516 194.334 266.178 194.568 265.84 194.828C265.489 195.088 265.164 195.4 264.839 195.764C264.54 196.102 264.358 196.453 264.267 196.804C264.176 197.155 264.137 197.558 264.124 198H270.117V197.298H265.008C265.021 197.077 265.06 196.882 265.125 196.7C265.19 196.531 265.281 196.362 265.398 196.219C265.515 196.076 265.632 195.933 265.775 195.803L266.204 195.452C266.425 195.283 266.685 195.114 266.971 194.958C267.257 194.802 267.543 194.633 267.842 194.464C268.141 194.295 268.427 194.126 268.713 193.931C268.986 193.736 269.246 193.528 269.467 193.281C269.688 193.034 269.857 192.761 270 192.449C270.13 192.137 270.195 191.773 270.195 191.37C270.195 191.019 270.13 190.694 270.013 190.382C269.896 190.07 269.714 189.797 269.48 189.576C269.233 189.355 268.947 189.173 268.596 189.03C268.245 188.9 267.829 188.835 267.374 188.835C266.919 188.835 266.516 188.9 266.152 189.043C265.775 189.186 265.463 189.394 265.203 189.654C264.943 189.927 264.748 190.239 264.605 190.603C264.462 190.98 264.397 191.383 264.397 191.838ZM272.284 190.642V191.188H274.65V198H275.482V188.835H274.819C274.754 189.225 274.65 189.537 274.507 189.758C274.364 189.992 274.182 190.174 273.974 190.291C273.753 190.408 273.506 190.499 273.233 190.538C272.947 190.577 272.635 190.616 272.284 190.642Z" fill="#818181"/>
<path d="M297.95 191.838H298.834C298.821 191.526 298.86 191.227 298.951 190.954C299.042 190.681 299.185 190.434 299.367 190.226C299.536 190.018 299.757 189.849 300.004 189.719C300.251 189.602 300.524 189.537 300.823 189.537C301.109 189.537 301.369 189.576 301.616 189.654C301.863 189.745 302.071 189.862 302.253 190.031C302.435 190.2 302.578 190.395 302.682 190.629C302.786 190.863 302.838 191.123 302.838 191.422C302.838 191.786 302.773 192.098 302.643 192.345C302.513 192.592 302.331 192.826 302.11 193.021C301.889 193.216 301.629 193.398 301.33 193.567C301.031 193.736 300.719 193.931 300.394 194.126C300.069 194.334 299.731 194.568 299.393 194.828C299.042 195.088 298.717 195.4 298.392 195.764C298.093 196.102 297.911 196.453 297.82 196.804C297.729 197.155 297.69 197.558 297.677 198H303.67V197.298H298.561C298.574 197.077 298.613 196.882 298.678 196.7C298.743 196.531 298.834 196.362 298.951 196.219C299.068 196.076 299.185 195.933 299.328 195.803L299.757 195.452C299.978 195.283 300.238 195.114 300.524 194.958C300.81 194.802 301.096 194.633 301.395 194.464C301.694 194.295 301.98 194.126 302.266 193.931C302.539 193.736 302.799 193.528 303.02 193.281C303.241 193.034 303.41 192.761 303.553 192.449C303.683 192.137 303.748 191.773 303.748 191.37C303.748 191.019 303.683 190.694 303.566 190.382C303.449 190.07 303.267 189.797 303.033 189.576C302.786 189.355 302.5 189.173 302.149 189.03C301.798 188.9 301.382 188.835 300.927 188.835C300.472 188.835 300.069 188.9 299.705 189.043C299.328 189.186 299.016 189.394 298.756 189.654C298.496 189.927 298.301 190.239 298.158 190.603C298.015 190.98 297.95 191.383 297.95 191.838ZM307.89 188.835C307.227 188.835 306.694 188.965 306.291 189.238C305.888 189.511 305.576 189.862 305.355 190.291C305.134 190.733 304.978 191.227 304.9 191.786C304.822 192.345 304.783 192.904 304.783 193.489C304.783 194.126 304.822 194.724 304.913 195.283C305.004 195.855 305.16 196.349 305.394 196.778C305.615 197.207 305.94 197.558 306.343 197.805C306.746 198.052 307.253 198.182 307.89 198.182C308.527 198.182 309.034 198.052 309.437 197.805C309.84 197.558 310.152 197.22 310.386 196.791C310.607 196.362 310.763 195.881 310.854 195.322C310.945 194.763 310.984 194.191 310.984 193.58C310.984 193.229 310.971 192.865 310.945 192.488C310.919 192.111 310.867 191.747 310.789 191.396C310.711 191.045 310.607 190.72 310.464 190.408C310.321 190.096 310.126 189.823 309.905 189.589C309.671 189.355 309.385 189.173 309.06 189.03C308.735 188.9 308.345 188.835 307.89 188.835ZM310.152 193.489C310.152 193.944 310.126 194.412 310.074 194.893C310.022 195.374 309.918 195.803 309.762 196.18C309.606 196.557 309.385 196.869 309.086 197.116C308.787 197.363 308.384 197.48 307.89 197.48C307.448 197.48 307.084 197.389 306.798 197.194C306.499 197.012 306.265 196.752 306.096 196.414C305.927 196.076 305.797 195.66 305.732 195.179C305.654 194.698 305.615 194.165 305.615 193.58C305.615 193.073 305.654 192.579 305.719 192.098C305.784 191.617 305.888 191.175 306.057 190.798C306.226 190.421 306.447 190.109 306.746 189.875C307.032 189.654 307.409 189.537 307.864 189.537C308.345 189.537 308.748 189.654 309.047 189.875C309.346 190.096 309.567 190.395 309.736 190.772C309.905 191.149 310.009 191.565 310.074 192.033C310.126 192.514 310.152 192.995 310.152 193.489ZM312.397 191.838H313.281C313.268 191.526 313.307 191.227 313.398 190.954C313.489 190.681 313.632 190.434 313.814 190.226C313.983 190.018 314.204 189.849 314.451 189.719C314.698 189.602 314.971 189.537 315.27 189.537C315.556 189.537 315.816 189.576 316.063 189.654C316.31 189.745 316.518 189.862 316.7 190.031C316.882 190.2 317.025 190.395 317.129 190.629C317.233 190.863 317.285 191.123 317.285 191.422C317.285 191.786 317.22 192.098 317.09 192.345C316.96 192.592 316.778 192.826 316.557 193.021C316.336 193.216 316.076 193.398 315.777 193.567C315.478 193.736 315.166 193.931 314.841 194.126C314.516 194.334 314.178 194.568 313.84 194.828C313.489 195.088 313.164 195.4 312.839 195.764C312.54 196.102 312.358 196.453 312.267 196.804C312.176 197.155 312.137 197.558 312.124 198H318.117V197.298H313.008C313.021 197.077 313.06 196.882 313.125 196.7C313.19 196.531 313.281 196.362 313.398 196.219C313.515 196.076 313.632 195.933 313.775 195.803L314.204 195.452C314.425 195.283 314.685 195.114 314.971 194.958C315.257 194.802 315.543 194.633 315.842 194.464C316.141 194.295 316.427 194.126 316.713 193.931C316.986 193.736 317.246 193.528 317.467 193.281C317.688 193.034 317.857 192.761 318 192.449C318.13 192.137 318.195 191.773 318.195 191.37C318.195 191.019 318.13 190.694 318.013 190.382C317.896 190.07 317.714 189.797 317.48 189.576C317.233 189.355 316.947 189.173 316.596 189.03C316.245 188.9 315.829 188.835 315.374 188.835C314.919 188.835 314.516 188.9 314.152 189.043C313.775 189.186 313.463 189.394 313.203 189.654C312.943 189.927 312.748 190.239 312.605 190.603C312.462 190.98 312.397 191.383 312.397 191.838ZM319.621 191.838H320.505C320.492 191.526 320.531 191.227 320.622 190.954C320.713 190.681 320.856 190.434 321.038 190.226C321.207 190.018 321.428 189.849 321.675 189.719C321.922 189.602 322.195 189.537 322.494 189.537C322.78 189.537 323.04 189.576 323.287 189.654C323.534 189.745 323.742 189.862 323.924 190.031C324.106 190.2 324.249 190.395 324.353 190.629C324.457 190.863 324.509 191.123 324.509 191.422C324.509 191.786 324.444 192.098 324.314 192.345C324.184 192.592 324.002 192.826 323.781 193.021C323.56 193.216 323.3 193.398 323.001 193.567C322.702 193.736 322.39 193.931 322.065 194.126C321.74 194.334 321.402 194.568 321.064 194.828C320.713 195.088 320.388 195.4 320.063 195.764C319.764 196.102 319.582 196.453 319.491 196.804C319.4 197.155 319.361 197.558 319.348 198H325.341V197.298H320.232C320.245 197.077 320.284 196.882 320.349 196.7C320.414 196.531 320.505 196.362 320.622 196.219C320.739 196.076 320.856 195.933 320.999 195.803L321.428 195.452C321.649 195.283 321.909 195.114 322.195 194.958C322.481 194.802 322.767 194.633 323.066 194.464C323.365 194.295 323.651 194.126 323.937 193.931C324.21 193.736 324.47 193.528 324.691 193.281C324.912 193.034 325.081 192.761 325.224 192.449C325.354 192.137 325.419 191.773 325.419 191.37C325.419 191.019 325.354 190.694 325.237 190.382C325.12 190.07 324.938 189.797 324.704 189.576C324.457 189.355 324.171 189.173 323.82 189.03C323.469 188.9 323.053 188.835 322.598 188.835C322.143 188.835 321.74 188.9 321.376 189.043C320.999 189.186 320.687 189.394 320.427 189.654C320.167 189.927 319.972 190.239 319.829 190.603C319.686 190.98 319.621 191.383 319.621 191.838Z" fill="#818181"/>
<path d="M18.3904 167.835C17.7274 167.835 17.1944 167.965 16.7914 168.238C16.3884 168.511 16.0764 168.862 15.8554 169.291C15.6344 169.733 15.4784 170.227 15.4004 170.786C15.3224 171.345 15.2834 171.904 15.2834 172.489C15.2834 173.126 15.3224 173.724 15.4134 174.283C15.5044 174.855 15.6604 175.349 15.8944 175.778C16.1154 176.207 16.4404 176.558 16.8434 176.805C17.2464 177.052 17.7534 177.182 18.3904 177.182C19.0274 177.182 19.5344 177.052 19.9374 176.805C20.3404 176.558 20.6524 176.22 20.8864 175.791C21.1074 175.362 21.2634 174.881 21.3544 174.322C21.4454 173.763 21.4844 173.191 21.4844 172.58C21.4844 172.229 21.4714 171.865 21.4454 171.488C21.4194 171.111 21.3674 170.747 21.2894 170.396C21.2114 170.045 21.1074 169.72 20.9644 169.408C20.8214 169.096 20.6264 168.823 20.4054 168.589C20.1714 168.355 19.8854 168.173 19.5604 168.03C19.2354 167.9 18.8454 167.835 18.3904 167.835ZM20.6524 172.489C20.6524 172.944 20.6264 173.412 20.5744 173.893C20.5224 174.374 20.4184 174.803 20.2624 175.18C20.1064 175.557 19.8854 175.869 19.5864 176.116C19.2874 176.363 18.8844 176.48 18.3904 176.48C17.9484 176.48 17.5844 176.389 17.2984 176.194C16.9994 176.012 16.7654 175.752 16.5964 175.414C16.4274 175.076 16.2974 174.66 16.2324 174.179C16.1544 173.698 16.1154 173.165 16.1154 172.58C16.1154 172.073 16.1544 171.579 16.2194 171.098C16.2844 170.617 16.3884 170.175 16.5574 169.798C16.7264 169.421 16.9474 169.109 17.2464 168.875C17.5324 168.654 17.9094 168.537 18.3644 168.537C18.8454 168.537 19.2484 168.654 19.5474 168.875C19.8464 169.096 20.0674 169.395 20.2364 169.772C20.4054 170.149 20.5094 170.565 20.5744 171.033C20.6264 171.514 20.6524 171.995 20.6524 172.489Z" fill="#818181"/>
<path d="M1.8891 110.642V111.188H4.2551V118H5.0871V108.835H4.4241C4.3591 109.225 4.2551 109.537 4.1121 109.758C3.9691 109.992 3.7871 110.174 3.5791 110.291C3.3581 110.408 3.1111 110.499 2.8381 110.538C2.5521 110.577 2.2401 110.616 1.8891 110.642ZM11.1667 108.835C10.5037 108.835 9.97073 108.965 9.56773 109.238C9.16473 109.511 8.85273 109.862 8.63173 110.291C8.41073 110.733 8.25473 111.227 8.17673 111.786C8.09873 112.345 8.05973 112.904 8.05973 113.489C8.05973 114.126 8.09873 114.724 8.18973 115.283C8.28073 115.855 8.43673 116.349 8.67073 116.778C8.89173 117.207 9.21673 117.558 9.61973 117.805C10.0227 118.052 10.5297 118.182 11.1667 118.182C11.8037 118.182 12.3107 118.052 12.7137 117.805C13.1167 117.558 13.4287 117.22 13.6627 116.791C13.8837 116.362 14.0397 115.881 14.1307 115.322C14.2217 114.763 14.2607 114.191 14.2607 113.58C14.2607 113.229 14.2477 112.865 14.2217 112.488C14.1957 112.111 14.1437 111.747 14.0657 111.396C13.9877 111.045 13.8837 110.72 13.7407 110.408C13.5977 110.096 13.4027 109.823 13.1817 109.589C12.9477 109.355 12.6617 109.173 12.3367 109.03C12.0117 108.9 11.6217 108.835 11.1667 108.835ZM13.4287 113.489C13.4287 113.944 13.4027 114.412 13.3507 114.893C13.2987 115.374 13.1947 115.803 13.0387 116.18C12.8827 116.557 12.6617 116.869 12.3627 117.116C12.0637 117.363 11.6607 117.48 11.1667 117.48C10.7247 117.48 10.3607 117.389 10.0747 117.194C9.77573 117.012 9.54173 116.752 9.37273 116.414C9.20373 116.076 9.07373 115.66 9.00873 115.179C8.93073 114.698 8.89173 114.165 8.89173 113.58C8.89173 113.073 8.93073 112.579 8.99573 112.098C9.06073 111.617 9.16473 111.175 9.33373 110.798C9.50273 110.421 9.72373 110.109 10.0227 109.875C10.3087 109.654 10.6857 109.537 11.1407 109.537C11.6217 109.537 12.0247 109.654 12.3237 109.875C12.6227 110.096 12.8437 110.395 13.0127 110.772C13.1817 111.149 13.2857 111.565 13.3507 112.033C13.4027 112.514 13.4287 112.995 13.4287 113.489ZM18.3904 108.835C17.7274 108.835 17.1944 108.965 16.7914 109.238C16.3884 109.511 16.0764 109.862 15.8554 110.291C15.6344 110.733 15.4784 111.227 15.4004 111.786C15.3224 112.345 15.2834 112.904 15.2834 113.489C15.2834 114.126 15.3224 114.724 15.4134 115.283C15.5044 115.855 15.6604 116.349 15.8944 116.778C16.1154 117.207 16.4404 117.558 16.8434 117.805C17.2464 118.052 17.7534 118.182 18.3904 118.182C19.0274 118.182 19.5344 118.052 19.9374 117.805C20.3404 117.558 20.6524 117.22 20.8864 116.791C21.1074 116.362 21.2634 115.881 21.3544 115.322C21.4454 114.763 21.4844 114.191 21.4844 113.58C21.4844 113.229 21.4714 112.865 21.4454 112.488C21.4194 112.111 21.3674 111.747 21.2894 111.396C21.2114 111.045 21.1074 110.72 20.9644 110.408C20.8214 110.096 20.6264 109.823 20.4054 109.589C20.1714 109.355 19.8854 109.173 19.5604 109.03C19.2354 108.9 18.8454 108.835 18.3904 108.835ZM20.6524 113.489C20.6524 113.944 20.6264 114.412 20.5744 114.893C20.5224 115.374 20.4184 115.803 20.2624 116.18C20.1064 116.557 19.8854 116.869 19.5864 117.116C19.2874 117.363 18.8844 117.48 18.3904 117.48C17.9484 117.48 17.5844 117.389 17.2984 117.194C16.9994 117.012 16.7654 116.752 16.5964 116.414C16.4274 116.076 16.2974 115.66 16.2324 115.179C16.1544 114.698 16.1154 114.165 16.1154 113.58C16.1154 113.073 16.1544 112.579 16.2194 112.098C16.2844 111.617 16.3884 111.175 16.5574 110.798C16.7264 110.421 16.9474 110.109 17.2464 109.875C17.5324 109.654 17.9094 109.537 18.3644 109.537C18.8454 109.537 19.2484 109.654 19.5474 109.875C19.8464 110.096 20.0674 110.395 20.2364 110.772C20.4054 111.149 20.5094 111.565 20.5744 112.033C20.6264 112.514 20.6524 112.995 20.6524 113.489Z" fill="#818181"/>
<path d="M1.2261 51.838H2.1101C2.0971 51.526 2.1361 51.227 2.2271 50.954C2.3181 50.681 2.4611 50.434 2.6431 50.226C2.8121 50.018 3.0331 49.849 3.2801 49.719C3.5271 49.602 3.8001 49.537 4.0991 49.537C4.3851 49.537 4.6451 49.576 4.8921 49.654C5.1391 49.745 5.3471 49.862 5.5291 50.031C5.7111 50.2 5.8541 50.395 5.9581 50.629C6.0621 50.863 6.1141 51.123 6.1141 51.422C6.1141 51.786 6.0491 52.098 5.9191 52.345C5.7891 52.592 5.6071 52.826 5.3861 53.021C5.1651 53.216 4.9051 53.398 4.6061 53.567C4.3071 53.736 3.9951 53.931 3.6701 54.126C3.3451 54.334 3.0071 54.568 2.6691 54.828C2.3181 55.088 1.9931 55.4 1.6681 55.764C1.3691 56.102 1.1871 56.453 1.0961 56.804C1.0051 57.155 0.966102 57.558 0.953102 58H6.9461V57.298H1.8371C1.8501 57.077 1.8891 56.882 1.9541 56.7C2.0191 56.531 2.1101 56.362 2.2271 56.219C2.3441 56.076 2.4611 55.933 2.6041 55.803L3.0331 55.452C3.2541 55.283 3.5141 55.114 3.8001 54.958C4.0861 54.802 4.3721 54.633 4.6711 54.464C4.9701 54.295 5.2561 54.126 5.5421 53.931C5.8151 53.736 6.0751 53.528 6.2961 53.281C6.5171 53.034 6.6861 52.761 6.8291 52.449C6.9591 52.137 7.0241 51.773 7.0241 51.37C7.0241 51.019 6.9591 50.694 6.8421 50.382C6.7251 50.07 6.5431 49.797 6.3091 49.576C6.0621 49.355 5.7761 49.173 5.4251 49.03C5.0741 48.9 4.6581 48.835 4.2031 48.835C3.7481 48.835 3.3451 48.9 2.9811 49.043C2.6041 49.186 2.2921 49.394 2.0321 49.654C1.7721 49.927 1.5771 50.239 1.4341 50.603C1.2911 50.98 1.2261 51.383 1.2261 51.838ZM11.1667 48.835C10.5037 48.835 9.97073 48.965 9.56773 49.238C9.16473 49.511 8.85273 49.862 8.63173 50.291C8.41073 50.733 8.25473 51.227 8.17673 51.786C8.09873 52.345 8.05973 52.904 8.05973 53.489C8.05973 54.126 8.09873 54.724 8.18973 55.283C8.28073 55.855 8.43673 56.349 8.67073 56.778C8.89173 57.207 9.21673 57.558 9.61973 57.805C10.0227 58.052 10.5297 58.182 11.1667 58.182C11.8037 58.182 12.3107 58.052 12.7137 57.805C13.1167 57.558 13.4287 57.22 13.6627 56.791C13.8837 56.362 14.0397 55.881 14.1307 55.322C14.2217 54.763 14.2607 54.191 14.2607 53.58C14.2607 53.229 14.2477 52.865 14.2217 52.488C14.1957 52.111 14.1437 51.747 14.0657 51.396C13.9877 51.045 13.8837 50.72 13.7407 50.408C13.5977 50.096 13.4027 49.823 13.1817 49.589C12.9477 49.355 12.6617 49.173 12.3367 49.03C12.0117 48.9 11.6217 48.835 11.1667 48.835ZM13.4287 53.489C13.4287 53.944 13.4027 54.412 13.3507 54.893C13.2987 55.374 13.1947 55.803 13.0387 56.18C12.8827 56.557 12.6617 56.869 12.3627 57.116C12.0637 57.363 11.6607 57.48 11.1667 57.48C10.7247 57.48 10.3607 57.389 10.0747 57.194C9.77573 57.012 9.54173 56.752 9.37273 56.414C9.20373 56.076 9.07373 55.66 9.00873 55.179C8.93073 54.698 8.89173 54.165 8.89173 53.58C8.89173 53.073 8.93073 52.579 8.99573 52.098C9.06073 51.617 9.16473 51.175 9.33373 50.798C9.50273 50.421 9.72373 50.109 10.0227 49.875C10.3087 49.654 10.6857 49.537 11.1407 49.537C11.6217 49.537 12.0247 49.654 12.3237 49.875C12.6227 50.096 12.8437 50.395 13.0127 50.772C13.1817 51.149 13.2857 51.565 13.3507 52.033C13.4027 52.514 13.4287 52.995 13.4287 53.489ZM18.3904 48.835C17.7274 48.835 17.1944 48.965 16.7914 49.238C16.3884 49.511 16.0764 49.862 15.8554 50.291C15.6344 50.733 15.4784 51.227 15.4004 51.786C15.3224 52.345 15.2834 52.904 15.2834 53.489C15.2834 54.126 15.3224 54.724 15.4134 55.283C15.5044 55.855 15.6604 56.349 15.8944 56.778C16.1154 57.207 16.4404 57.558 16.8434 57.805C17.2464 58.052 17.7534 58.182 18.3904 58.182C19.0274 58.182 19.5344 58.052 19.9374 57.805C20.3404 57.558 20.6524 57.22 20.8864 56.791C21.1074 56.362 21.2634 55.881 21.3544 55.322C21.4454 54.763 21.4844 54.191 21.4844 53.58C21.4844 53.229 21.4714 52.865 21.4454 52.488C21.4194 52.111 21.3674 51.747 21.2894 51.396C21.2114 51.045 21.1074 50.72 20.9644 50.408C20.8214 50.096 20.6264 49.823 20.4054 49.589C20.1714 49.355 19.8854 49.173 19.5604 49.03C19.2354 48.9 18.8454 48.835 18.3904 48.835ZM20.6524 53.489C20.6524 53.944 20.6264 54.412 20.5744 54.893C20.5224 55.374 20.4184 55.803 20.2624 56.18C20.1064 56.557 19.8854 56.869 19.5864 57.116C19.2874 57.363 18.8844 57.48 18.3904 57.48C17.9484 57.48 17.5844 57.389 17.2984 57.194C16.9994 57.012 16.7654 56.752 16.5964 56.414C16.4274 56.076 16.2974 55.66 16.2324 55.179C16.1544 54.698 16.1154 54.165 16.1154 53.58C16.1154 53.073 16.1544 52.579 16.2194 52.098C16.2844 51.617 16.3884 51.175 16.5574 50.798C16.7264 50.421 16.9474 50.109 17.2464 49.875C17.5324 49.654 17.9094 49.537 18.3644 49.537C18.8454 49.537 19.2484 49.654 19.5474 49.875C19.8464 50.096 20.0674 50.395 20.2364 50.772C20.4054 51.149 20.5094 51.565 20.5744 52.033C20.6264 52.514 20.6524 52.995 20.6524 53.489Z" fill="#818181"/>
<path d="M6.688 17.192C5.54667 17.192 4.512 16.9467 3.584 16.456C2.66667 15.9547 1.94133 15.2667 1.408 14.392C0.885333 13.5067 0.624 12.5093 0.624 11.4C0.624 10.2907 0.885333 9.29867 1.408 8.424C1.94133 7.53867 2.66667 6.85067 3.584 6.36C4.512 5.85867 5.552 5.608 6.704 5.608C7.67467 5.608 8.54933 5.77867 9.328 6.12C10.1173 6.46133 10.7787 6.952 11.312 7.592L9.648 9.128C8.89067 8.25333 7.952 7.816 6.832 7.816C6.13867 7.816 5.52 7.97067 4.976 8.28C4.432 8.57867 4.00533 9 3.696 9.544C3.39733 10.088 3.248 10.7067 3.248 11.4C3.248 12.0933 3.39733 12.712 3.696 13.256C4.00533 13.8 4.432 14.2267 4.976 14.536C5.52 14.8347 6.13867 14.984 6.832 14.984C7.952 14.984 8.89067 14.5413 9.648 13.656L11.312 15.192C10.7787 15.8427 10.1173 16.3387 9.328 16.68C8.53867 17.0213 7.65867 17.192 6.688 17.192ZM19.932 10.44H17.02V17H14.54V10.44H11.628V8.392H19.932V10.44ZM24.6065 8.264C25.9398 8.264 26.9638 8.584 27.6785 9.224C28.3932 9.85333 28.7505 10.808 28.7505 12.088V17H26.4145V15.928C25.9452 16.728 25.0705 17.128 23.7905 17.128C23.1292 17.128 22.5532 17.016 22.0625 16.792C21.5825 16.568 21.2145 16.2587 20.9585 15.864C20.7025 15.4693 20.5745 15.0213 20.5745 14.52C20.5745 13.72 20.8732 13.0907 21.4705 12.632C22.0785 12.1733 23.0118 11.944 24.2705 11.944H26.2545C26.2545 11.4 26.0892 10.984 25.7585 10.696C25.4278 10.3973 24.9318 10.248 24.2705 10.248C23.8118 10.248 23.3585 10.3227 22.9105 10.472C22.4732 10.6107 22.0998 10.8027 21.7905 11.048L20.8945 9.304C21.3638 8.97333 21.9238 8.71733 22.5745 8.536C23.2358 8.35467 23.9132 8.264 24.6065 8.264ZM24.4145 15.448C24.8412 15.448 25.2198 15.352 25.5505 15.16C25.8812 14.9573 26.1158 14.664 26.2545 14.28V13.4H24.5425C23.5185 13.4 23.0065 13.736 23.0065 14.408C23.0065 14.728 23.1292 14.984 23.3745 15.176C23.6305 15.3573 23.9772 15.448 24.4145 15.448ZM38.1508 10.44H35.2388V17H32.7588V10.44H29.8468V8.392H38.1508V10.44ZM44.1373 11.144C45.2573 11.1547 46.1159 11.4107 46.7133 11.912C47.3106 12.4027 47.6093 13.1013 47.6093 14.008C47.6093 14.9573 47.2733 15.6987 46.6013 16.232C45.9399 16.7547 45.0066 17.016 43.8013 17.016L39.4813 17V8.392H41.9613V11.144H44.1373ZM43.5773 15.24C44.0573 15.2507 44.4253 15.1493 44.6813 14.936C44.9373 14.7227 45.0653 14.4027 45.0653 13.976C45.0653 13.56 44.9373 13.256 44.6813 13.064C44.4359 12.872 44.0679 12.7707 43.5773 12.76L41.9613 12.744V15.24H43.5773ZM49.1688 8.392H51.6488V13.512L55.8408 8.392H58.1288V17H55.6488V11.88L51.4728 17H49.1688V8.392Z" fill="#2C2C2C"/>
<defs>
<linearGradient id="paint0_linear_378_236" x1="42" y1="52" x2="342" y2="52.0013" gradientUnits="userSpaceOnUse">
<stop stop-color="#F3F3F3"/>
<stop offset="0.348958" stop-color="#CFCFCF"/>
<stop offset="0.666667" stop-color="#CFCFCF"/>
<stop offset="1" stop-color="#F3F3F3"/>
</linearGradient>
<linearGradient id="paint1_linear_378_236" x1="42" y1="82" x2="342" y2="82.0013" gradientUnits="userSpaceOnUse">
<stop stop-color="#F3F3F3"/>
<stop offset="0.348958" stop-color="#CFCFCF"/>
<stop offset="0.666667" stop-color="#CFCFCF"/>
<stop offset="1" stop-color="#F3F3F3"/>
</linearGradient>
<linearGradient id="paint2_linear_378_236" x1="42" y1="112" x2="342" y2="112.001" gradientUnits="userSpaceOnUse">
<stop stop-color="#F3F3F3"/>
<stop offset="0.348958" stop-color="#CFCFCF"/>
<stop offset="0.666667" stop-color="#CFCFCF"/>
<stop offset="1" stop-color="#F3F3F3"/>
</linearGradient>
<linearGradient id="paint3_linear_378_236" x1="42" y1="142" x2="342" y2="142.001" gradientUnits="userSpaceOnUse">
<stop stop-color="#F3F3F3"/>
<stop offset="0.348958" stop-color="#CFCFCF"/>
<stop offset="0.666667" stop-color="#CFCFCF"/>
<stop offset="1" stop-color="#F3F3F3"/>
</linearGradient>
<linearGradient id="paint4_linear_378_236" x1="42" y1="172" x2="342" y2="172.001" gradientUnits="userSpaceOnUse">
<stop stop-color="#F3F3F3"/>
<stop offset="0.348958" stop-color="#CFCFCF"/>
<stop offset="0.666667" stop-color="#CFCFCF"/>
<stop offset="1" stop-color="#F3F3F3"/>
</linearGradient>
</defs>
</svg>
