<svg width="100" height="104" viewBox="0 0 100 104" fill="none" xmlns="http://www.w3.org/2000/svg">
<g filter="url(#filter0_dd_393_539)">
<path d="M24 26C24 24.8954 24.8954 24 26 24H69C70.1046 24 71 24.8954 71 26V72C71 73.1046 70.1046 74 69 74H26C24.8954 74 24 73.1046 24 72V26Z" fill="#F4F4F4"/>
<path d="M25 26C25 25.4477 25.4477 25 26 25H69C69.5523 25 70 25.4477 70 26V72C70 72.5523 69.5523 73 69 73H26C25.4477 73 25 72.5523 25 72V26Z" stroke="#F4F4F4" stroke-width="2"/>
</g>
<path d="M40 61.3333L60 49.6667L40 38" stroke="#2C2C2C" stroke-width="1.75" stroke-linecap="round" stroke-linejoin="round"/>
<defs>
<filter id="filter0_dd_393_539" x="0" y="0" width="100" height="104" filterUnits="userSpaceOnUse" color-interpolation-filters="sRGB">
<feFlood flood-opacity="0" result="BackgroundImageFix"/>
<feColorMatrix in="SourceAlpha" type="matrix" values="0 0 0 0 0 0 0 0 0 0 0 0 0 0 0 0 0 0 127 0" result="hardAlpha"/>
<feMorphology radius="6" operator="dilate" in="SourceAlpha" result="effect1_dropShadow_393_539"/>
<feOffset dx="5" dy="6"/>
<feGaussianBlur stdDeviation="9"/>
<feComposite in2="hardAlpha" operator="out"/>
<feColorMatrix type="matrix" values="0 0 0 0 0.520833 0 0 0 0 0.520833 0 0 0 0 0.520833 0 0 0 0.15 0"/>
<feBlend mode="normal" in2="BackgroundImageFix" result="effect1_dropShadow_393_539"/>
<feColorMatrix in="SourceAlpha" type="matrix" values="0 0 0 0 0 0 0 0 0 0 0 0 0 0 0 0 0 0 127 0" result="hardAlpha"/>
<feMorphology radius="2" operator="dilate" in="SourceAlpha" result="effect2_dropShadow_393_539"/>
<feOffset dx="-8" dy="-8"/>
<feGaussianBlur stdDeviation="7"/>
<feComposite in2="hardAlpha" operator="out"/>
<feColorMatrix type="matrix" values="0 0 0 0 1 0 0 0 0 1 0 0 0 0 1 0 0 0 0.9 0"/>
<feBlend mode="normal" in2="effect1_dropShadow_393_539" result="effect2_dropShadow_393_539"/>
<feBlend mode="normal" in="SourceGraphic" in2="effect2_dropShadow_393_539" result="shape"/>
</filter>
</defs>
</svg>
