<svg width="339" height="202" viewBox="0 0 339 202" fill="none" xmlns="http://www.w3.org/2000/svg">
<line x1="39" y1="51.5" x2="339" y2="51.5" stroke="url(#paint0_linear_378_258)"/>
<line x1="39" y1="91.5" x2="339" y2="91.5" stroke="url(#paint1_linear_378_258)"/>
<line x1="39" y1="131.5" x2="339" y2="131.5" stroke="url(#paint2_linear_378_258)"/>
<line x1="39" y1="171.5" x2="339" y2="171.5" stroke="url(#paint3_linear_378_258)"/>
<rect x="151" y="88" width="28" height="83" rx="2" fill="#FDD106"/>
<rect x="103" y="102" width="28" height="69" rx="2" fill="#FDD106"/>
<rect x="55" y="62" width="28" height="109" rx="2" fill="#FDD106"/>
<rect x="199" y="88" width="28" height="83" rx="2" fill="#FDD106"/>
<rect x="247" y="55" width="28" height="116" rx="2" fill="#FDD106"/>
<rect x="295" y="77" width="28" height="94" rx="2" fill="#FDD106"/>
<path d="M54.9497 191.838H55.8337C55.8207 191.526 55.8597 191.227 55.9507 190.954C56.0417 190.681 56.1847 190.434 56.3667 190.226C56.5357 190.018 56.7567 189.849 57.0037 189.719C57.2507 189.602 57.5237 189.537 57.8227 189.537C58.1087 189.537 58.3687 189.576 58.6157 189.654C58.8627 189.745 59.0707 189.862 59.2527 190.031C59.4347 190.2 59.5777 190.395 59.6817 190.629C59.7857 190.863 59.8377 191.123 59.8377 191.422C59.8377 191.786 59.7727 192.098 59.6427 192.345C59.5127 192.592 59.3307 192.826 59.1097 193.021C58.8887 193.216 58.6287 193.398 58.3297 193.567C58.0307 193.736 57.7187 193.931 57.3937 194.126C57.0687 194.334 56.7307 194.568 56.3927 194.828C56.0417 195.088 55.7167 195.4 55.3917 195.764C55.0927 196.102 54.9107 196.453 54.8197 196.804C54.7287 197.155 54.6897 197.558 54.6767 198H60.6697V197.298H55.5607C55.5737 197.077 55.6127 196.882 55.6777 196.7C55.7427 196.531 55.8337 196.362 55.9507 196.219C56.0677 196.076 56.1847 195.933 56.3277 195.803L56.7567 195.452C56.9777 195.283 57.2377 195.114 57.5237 194.958C57.8097 194.802 58.0957 194.633 58.3947 194.464C58.6937 194.295 58.9797 194.126 59.2657 193.931C59.5387 193.736 59.7987 193.528 60.0197 193.281C60.2407 193.034 60.4097 192.761 60.5527 192.449C60.6827 192.137 60.7477 191.773 60.7477 191.37C60.7477 191.019 60.6827 190.694 60.5657 190.382C60.4487 190.07 60.2667 189.797 60.0327 189.576C59.7857 189.355 59.4997 189.173 59.1487 189.03C58.7977 188.9 58.3817 188.835 57.9267 188.835C57.4717 188.835 57.0687 188.9 56.7047 189.043C56.3277 189.186 56.0157 189.394 55.7557 189.654C55.4957 189.927 55.3007 190.239 55.1577 190.603C55.0147 190.98 54.9497 191.383 54.9497 191.838ZM64.8904 188.835C64.2274 188.835 63.6944 188.965 63.2914 189.238C62.8884 189.511 62.5764 189.862 62.3554 190.291C62.1344 190.733 61.9784 191.227 61.9004 191.786C61.8224 192.345 61.7834 192.904 61.7834 193.489C61.7834 194.126 61.8224 194.724 61.9134 195.283C62.0044 195.855 62.1604 196.349 62.3944 196.778C62.6154 197.207 62.9404 197.558 63.3434 197.805C63.7464 198.052 64.2534 198.182 64.8904 198.182C65.5274 198.182 66.0344 198.052 66.4374 197.805C66.8404 197.558 67.1524 197.22 67.3864 196.791C67.6074 196.362 67.7634 195.881 67.8544 195.322C67.9454 194.763 67.9844 194.191 67.9844 193.58C67.9844 193.229 67.9714 192.865 67.9454 192.488C67.9194 192.111 67.8674 191.747 67.7894 191.396C67.7114 191.045 67.6074 190.72 67.4644 190.408C67.3214 190.096 67.1264 189.823 66.9054 189.589C66.6714 189.355 66.3854 189.173 66.0604 189.03C65.7354 188.9 65.3454 188.835 64.8904 188.835ZM67.1524 193.489C67.1524 193.944 67.1264 194.412 67.0744 194.893C67.0224 195.374 66.9184 195.803 66.7624 196.18C66.6064 196.557 66.3854 196.869 66.0864 197.116C65.7874 197.363 65.3844 197.48 64.8904 197.48C64.4484 197.48 64.0844 197.389 63.7984 197.194C63.4994 197.012 63.2654 196.752 63.0964 196.414C62.9274 196.076 62.7974 195.66 62.7324 195.179C62.6544 194.698 62.6154 194.165 62.6154 193.58C62.6154 193.073 62.6544 192.579 62.7194 192.098C62.7844 191.617 62.8884 191.175 63.0574 190.798C63.2264 190.421 63.4474 190.109 63.7464 189.875C64.0324 189.654 64.4094 189.537 64.8644 189.537C65.3454 189.537 65.7484 189.654 66.0474 189.875C66.3464 190.096 66.5674 190.395 66.7364 190.772C66.9054 191.149 67.0094 191.565 67.0744 192.033C67.1264 192.514 67.1524 192.995 67.1524 193.489ZM70.06 190.642V191.188H72.426V198H73.258V188.835H72.595C72.53 189.225 72.426 189.537 72.283 189.758C72.14 189.992 71.958 190.174 71.75 190.291C71.529 190.408 71.282 190.499 71.009 190.538C70.723 190.577 70.411 190.616 70.06 190.642ZM82.3276 189.706V188.926H76.4906V189.758H81.3266C80.8846 190.291 80.4556 190.902 80.0396 191.578C79.6236 192.267 79.2466 192.969 78.9216 193.697C78.5966 194.425 78.3236 195.153 78.1026 195.894C77.8816 196.635 77.7386 197.337 77.6996 198H78.6096C78.6356 197.545 78.7266 196.999 78.8696 196.362C79.0126 195.725 79.2206 195.023 79.5196 194.282C79.8186 193.541 80.1956 192.787 80.6506 191.994C81.1056 191.214 81.6646 190.447 82.3276 189.706Z" fill="#818181"/>
<path d="M102.95 191.838H103.834C103.821 191.526 103.86 191.227 103.951 190.954C104.042 190.681 104.185 190.434 104.367 190.226C104.536 190.018 104.757 189.849 105.004 189.719C105.251 189.602 105.524 189.537 105.823 189.537C106.109 189.537 106.369 189.576 106.616 189.654C106.863 189.745 107.071 189.862 107.253 190.031C107.435 190.2 107.578 190.395 107.682 190.629C107.786 190.863 107.838 191.123 107.838 191.422C107.838 191.786 107.773 192.098 107.643 192.345C107.513 192.592 107.331 192.826 107.11 193.021C106.889 193.216 106.629 193.398 106.33 193.567C106.031 193.736 105.719 193.931 105.394 194.126C105.069 194.334 104.731 194.568 104.393 194.828C104.042 195.088 103.717 195.4 103.392 195.764C103.093 196.102 102.911 196.453 102.82 196.804C102.729 197.155 102.69 197.558 102.677 198H108.67V197.298H103.561C103.574 197.077 103.613 196.882 103.678 196.7C103.743 196.531 103.834 196.362 103.951 196.219C104.068 196.076 104.185 195.933 104.328 195.803L104.757 195.452C104.978 195.283 105.238 195.114 105.524 194.958C105.81 194.802 106.096 194.633 106.395 194.464C106.694 194.295 106.98 194.126 107.266 193.931C107.539 193.736 107.799 193.528 108.02 193.281C108.241 193.034 108.41 192.761 108.553 192.449C108.683 192.137 108.748 191.773 108.748 191.37C108.748 191.019 108.683 190.694 108.566 190.382C108.449 190.07 108.267 189.797 108.033 189.576C107.786 189.355 107.5 189.173 107.149 189.03C106.798 188.9 106.382 188.835 105.927 188.835C105.472 188.835 105.069 188.9 104.705 189.043C104.328 189.186 104.016 189.394 103.756 189.654C103.496 189.927 103.301 190.239 103.158 190.603C103.015 190.98 102.95 191.383 102.95 191.838ZM112.89 188.835C112.227 188.835 111.694 188.965 111.291 189.238C110.888 189.511 110.576 189.862 110.355 190.291C110.134 190.733 109.978 191.227 109.9 191.786C109.822 192.345 109.783 192.904 109.783 193.489C109.783 194.126 109.822 194.724 109.913 195.283C110.004 195.855 110.16 196.349 110.394 196.778C110.615 197.207 110.94 197.558 111.343 197.805C111.746 198.052 112.253 198.182 112.89 198.182C113.527 198.182 114.034 198.052 114.437 197.805C114.84 197.558 115.152 197.22 115.386 196.791C115.607 196.362 115.763 195.881 115.854 195.322C115.945 194.763 115.984 194.191 115.984 193.58C115.984 193.229 115.971 192.865 115.945 192.488C115.919 192.111 115.867 191.747 115.789 191.396C115.711 191.045 115.607 190.72 115.464 190.408C115.321 190.096 115.126 189.823 114.905 189.589C114.671 189.355 114.385 189.173 114.06 189.03C113.735 188.9 113.345 188.835 112.89 188.835ZM115.152 193.489C115.152 193.944 115.126 194.412 115.074 194.893C115.022 195.374 114.918 195.803 114.762 196.18C114.606 196.557 114.385 196.869 114.086 197.116C113.787 197.363 113.384 197.48 112.89 197.48C112.448 197.48 112.084 197.389 111.798 197.194C111.499 197.012 111.265 196.752 111.096 196.414C110.927 196.076 110.797 195.66 110.732 195.179C110.654 194.698 110.615 194.165 110.615 193.58C110.615 193.073 110.654 192.579 110.719 192.098C110.784 191.617 110.888 191.175 111.057 190.798C111.226 190.421 111.447 190.109 111.746 189.875C112.032 189.654 112.409 189.537 112.864 189.537C113.345 189.537 113.748 189.654 114.047 189.875C114.346 190.096 114.567 190.395 114.736 190.772C114.905 191.149 115.009 191.565 115.074 192.033C115.126 192.514 115.152 192.995 115.152 193.489ZM118.06 190.642V191.188H120.426V198H121.258V188.835H120.595C120.53 189.225 120.426 189.537 120.283 189.758C120.14 189.992 119.958 190.174 119.75 190.291C119.529 190.408 119.282 190.499 119.009 190.538C118.723 190.577 118.411 190.616 118.06 190.642ZM125.895 193.073C125.375 193.268 124.985 193.58 124.712 194.009C124.439 194.438 124.296 194.932 124.296 195.478C124.296 195.933 124.387 196.323 124.556 196.661C124.725 196.999 124.959 197.285 125.232 197.506C125.505 197.727 125.804 197.896 126.155 198.013C126.493 198.13 126.831 198.182 127.156 198.182C127.637 198.182 128.079 198.117 128.482 198C128.885 197.883 129.223 197.701 129.509 197.467C129.782 197.233 130.003 196.947 130.159 196.596C130.302 196.245 130.38 195.855 130.38 195.4C130.38 194.867 130.237 194.399 129.951 193.996C129.652 193.593 129.262 193.307 128.755 193.125C129.197 192.904 129.522 192.631 129.717 192.293C129.912 191.955 130.003 191.552 130.003 191.071C130.003 190.681 129.925 190.343 129.769 190.057C129.613 189.784 129.405 189.55 129.145 189.368C128.885 189.186 128.586 189.056 128.261 188.965C127.923 188.874 127.585 188.835 127.234 188.835C126.87 188.822 126.532 188.874 126.22 188.991C125.895 189.108 125.622 189.264 125.388 189.459C125.154 189.667 124.972 189.914 124.829 190.187C124.686 190.46 124.621 190.759 124.621 191.071C124.621 191.344 124.647 191.578 124.699 191.76C124.738 191.955 124.816 192.124 124.92 192.267C125.024 192.41 125.154 192.553 125.323 192.67C125.479 192.8 125.674 192.93 125.895 193.073ZM127.312 189.537C127.949 189.537 128.417 189.667 128.716 189.914C129.015 190.174 129.171 190.538 129.171 191.006C129.171 191.331 129.132 191.617 129.041 191.838C128.95 192.059 128.82 192.254 128.664 192.397C128.508 192.54 128.326 192.644 128.105 192.709C127.884 192.774 127.65 192.813 127.403 192.813C127.156 192.813 126.909 192.774 126.675 192.709C126.441 192.644 126.233 192.553 126.051 192.423C125.869 192.293 125.726 192.124 125.622 191.916C125.505 191.721 125.453 191.474 125.453 191.188C125.453 190.915 125.505 190.681 125.596 190.473C125.687 190.265 125.83 190.096 125.999 189.953C126.168 189.81 126.363 189.706 126.584 189.641C126.805 189.576 127.052 189.537 127.312 189.537ZM127.351 193.515C127.65 193.515 127.936 193.554 128.209 193.632C128.482 193.71 128.716 193.827 128.911 193.983C129.106 194.152 129.262 194.347 129.379 194.581C129.496 194.828 129.548 195.101 129.548 195.426C129.548 195.725 129.496 196.011 129.392 196.258C129.275 196.505 129.132 196.726 128.937 196.908C128.742 197.09 128.508 197.233 128.248 197.324C127.988 197.428 127.702 197.48 127.403 197.48C127.052 197.48 126.74 197.428 126.467 197.324C126.181 197.22 125.947 197.077 125.752 196.895C125.557 196.726 125.401 196.518 125.297 196.271C125.18 196.024 125.128 195.764 125.128 195.478C125.128 195.14 125.18 194.841 125.297 194.594C125.414 194.347 125.57 194.152 125.765 193.983C125.96 193.827 126.194 193.71 126.467 193.632C126.74 193.554 127.026 193.515 127.351 193.515Z" fill="#818181"/>
<path d="M150.95 191.838H151.834C151.821 191.526 151.86 191.227 151.951 190.954C152.042 190.681 152.185 190.434 152.367 190.226C152.536 190.018 152.757 189.849 153.004 189.719C153.251 189.602 153.524 189.537 153.823 189.537C154.109 189.537 154.369 189.576 154.616 189.654C154.863 189.745 155.071 189.862 155.253 190.031C155.435 190.2 155.578 190.395 155.682 190.629C155.786 190.863 155.838 191.123 155.838 191.422C155.838 191.786 155.773 192.098 155.643 192.345C155.513 192.592 155.331 192.826 155.11 193.021C154.889 193.216 154.629 193.398 154.33 193.567C154.031 193.736 153.719 193.931 153.394 194.126C153.069 194.334 152.731 194.568 152.393 194.828C152.042 195.088 151.717 195.4 151.392 195.764C151.093 196.102 150.911 196.453 150.82 196.804C150.729 197.155 150.69 197.558 150.677 198H156.67V197.298H151.561C151.574 197.077 151.613 196.882 151.678 196.7C151.743 196.531 151.834 196.362 151.951 196.219C152.068 196.076 152.185 195.933 152.328 195.803L152.757 195.452C152.978 195.283 153.238 195.114 153.524 194.958C153.81 194.802 154.096 194.633 154.395 194.464C154.694 194.295 154.98 194.126 155.266 193.931C155.539 193.736 155.799 193.528 156.02 193.281C156.241 193.034 156.41 192.761 156.553 192.449C156.683 192.137 156.748 191.773 156.748 191.37C156.748 191.019 156.683 190.694 156.566 190.382C156.449 190.07 156.267 189.797 156.033 189.576C155.786 189.355 155.5 189.173 155.149 189.03C154.798 188.9 154.382 188.835 153.927 188.835C153.472 188.835 153.069 188.9 152.705 189.043C152.328 189.186 152.016 189.394 151.756 189.654C151.496 189.927 151.301 190.239 151.158 190.603C151.015 190.98 150.95 191.383 150.95 191.838ZM160.89 188.835C160.227 188.835 159.694 188.965 159.291 189.238C158.888 189.511 158.576 189.862 158.355 190.291C158.134 190.733 157.978 191.227 157.9 191.786C157.822 192.345 157.783 192.904 157.783 193.489C157.783 194.126 157.822 194.724 157.913 195.283C158.004 195.855 158.16 196.349 158.394 196.778C158.615 197.207 158.94 197.558 159.343 197.805C159.746 198.052 160.253 198.182 160.89 198.182C161.527 198.182 162.034 198.052 162.437 197.805C162.84 197.558 163.152 197.22 163.386 196.791C163.607 196.362 163.763 195.881 163.854 195.322C163.945 194.763 163.984 194.191 163.984 193.58C163.984 193.229 163.971 192.865 163.945 192.488C163.919 192.111 163.867 191.747 163.789 191.396C163.711 191.045 163.607 190.72 163.464 190.408C163.321 190.096 163.126 189.823 162.905 189.589C162.671 189.355 162.385 189.173 162.06 189.03C161.735 188.9 161.345 188.835 160.89 188.835ZM163.152 193.489C163.152 193.944 163.126 194.412 163.074 194.893C163.022 195.374 162.918 195.803 162.762 196.18C162.606 196.557 162.385 196.869 162.086 197.116C161.787 197.363 161.384 197.48 160.89 197.48C160.448 197.48 160.084 197.389 159.798 197.194C159.499 197.012 159.265 196.752 159.096 196.414C158.927 196.076 158.797 195.66 158.732 195.179C158.654 194.698 158.615 194.165 158.615 193.58C158.615 193.073 158.654 192.579 158.719 192.098C158.784 191.617 158.888 191.175 159.057 190.798C159.226 190.421 159.447 190.109 159.746 189.875C160.032 189.654 160.409 189.537 160.864 189.537C161.345 189.537 161.748 189.654 162.047 189.875C162.346 190.096 162.567 190.395 162.736 190.772C162.905 191.149 163.009 191.565 163.074 192.033C163.126 192.514 163.152 192.995 163.152 193.489ZM166.06 190.642V191.188H168.426V198H169.258V188.835H168.595C168.53 189.225 168.426 189.537 168.283 189.758C168.14 189.992 167.958 190.174 167.75 190.291C167.529 190.408 167.282 190.499 167.009 190.538C166.723 190.577 166.411 190.616 166.06 190.642ZM173.258 195.985H172.413C172.452 196.362 172.543 196.687 172.686 196.96C172.829 197.233 173.024 197.467 173.258 197.649C173.492 197.831 173.765 197.961 174.077 198.052C174.389 198.143 174.727 198.182 175.078 198.182C175.559 198.182 176.014 198.078 176.417 197.883C176.82 197.688 177.184 197.389 177.483 196.986C177.782 196.583 178.003 196.089 178.172 195.504C178.341 194.919 178.419 194.243 178.419 193.463C178.419 192.826 178.367 192.215 178.263 191.656C178.159 191.097 177.99 190.603 177.743 190.187C177.496 189.771 177.158 189.446 176.755 189.199C176.339 188.952 175.819 188.835 175.208 188.835C174.701 188.835 174.272 188.913 173.908 189.056C173.531 189.212 173.232 189.42 172.985 189.693C172.738 189.966 172.556 190.291 172.439 190.655C172.322 191.032 172.257 191.435 172.257 191.864C172.257 192.306 172.322 192.709 172.465 193.073C172.595 193.437 172.79 193.749 173.037 194.009C173.284 194.269 173.57 194.464 173.921 194.607C174.272 194.75 174.662 194.815 175.091 194.815C175.637 194.815 176.118 194.698 176.534 194.451C176.937 194.204 177.288 193.853 177.561 193.385L177.587 193.411C177.574 193.827 177.535 194.269 177.47 194.737C177.405 195.218 177.275 195.66 177.106 196.063C176.924 196.466 176.677 196.804 176.352 197.077C176.027 197.35 175.585 197.48 175.039 197.48C174.532 197.48 174.129 197.35 173.843 197.103C173.544 196.856 173.349 196.479 173.258 195.985ZM175.208 189.537C175.845 189.55 176.352 189.771 176.716 190.187C177.08 190.616 177.262 191.162 177.262 191.838C177.262 192.15 177.223 192.436 177.132 192.709C177.041 192.982 176.898 193.229 176.729 193.437C176.547 193.645 176.326 193.814 176.079 193.931C175.819 194.048 175.533 194.113 175.208 194.113C174.532 194.113 174.012 193.918 173.648 193.528C173.271 193.138 173.089 192.592 173.089 191.89C173.089 191.175 173.271 190.603 173.622 190.187C173.973 189.771 174.506 189.55 175.208 189.537Z" fill="#818181"/>
<path d="M198.95 191.838H199.834C199.821 191.526 199.86 191.227 199.951 190.954C200.042 190.681 200.185 190.434 200.367 190.226C200.536 190.018 200.757 189.849 201.004 189.719C201.251 189.602 201.524 189.537 201.823 189.537C202.109 189.537 202.369 189.576 202.616 189.654C202.863 189.745 203.071 189.862 203.253 190.031C203.435 190.2 203.578 190.395 203.682 190.629C203.786 190.863 203.838 191.123 203.838 191.422C203.838 191.786 203.773 192.098 203.643 192.345C203.513 192.592 203.331 192.826 203.11 193.021C202.889 193.216 202.629 193.398 202.33 193.567C202.031 193.736 201.719 193.931 201.394 194.126C201.069 194.334 200.731 194.568 200.393 194.828C200.042 195.088 199.717 195.4 199.392 195.764C199.093 196.102 198.911 196.453 198.82 196.804C198.729 197.155 198.69 197.558 198.677 198H204.67V197.298H199.561C199.574 197.077 199.613 196.882 199.678 196.7C199.743 196.531 199.834 196.362 199.951 196.219C200.068 196.076 200.185 195.933 200.328 195.803L200.757 195.452C200.978 195.283 201.238 195.114 201.524 194.958C201.81 194.802 202.096 194.633 202.395 194.464C202.694 194.295 202.98 194.126 203.266 193.931C203.539 193.736 203.799 193.528 204.02 193.281C204.241 193.034 204.41 192.761 204.553 192.449C204.683 192.137 204.748 191.773 204.748 191.37C204.748 191.019 204.683 190.694 204.566 190.382C204.449 190.07 204.267 189.797 204.033 189.576C203.786 189.355 203.5 189.173 203.149 189.03C202.798 188.9 202.382 188.835 201.927 188.835C201.472 188.835 201.069 188.9 200.705 189.043C200.328 189.186 200.016 189.394 199.756 189.654C199.496 189.927 199.301 190.239 199.158 190.603C199.015 190.98 198.95 191.383 198.95 191.838ZM208.89 188.835C208.227 188.835 207.694 188.965 207.291 189.238C206.888 189.511 206.576 189.862 206.355 190.291C206.134 190.733 205.978 191.227 205.9 191.786C205.822 192.345 205.783 192.904 205.783 193.489C205.783 194.126 205.822 194.724 205.913 195.283C206.004 195.855 206.16 196.349 206.394 196.778C206.615 197.207 206.94 197.558 207.343 197.805C207.746 198.052 208.253 198.182 208.89 198.182C209.527 198.182 210.034 198.052 210.437 197.805C210.84 197.558 211.152 197.22 211.386 196.791C211.607 196.362 211.763 195.881 211.854 195.322C211.945 194.763 211.984 194.191 211.984 193.58C211.984 193.229 211.971 192.865 211.945 192.488C211.919 192.111 211.867 191.747 211.789 191.396C211.711 191.045 211.607 190.72 211.464 190.408C211.321 190.096 211.126 189.823 210.905 189.589C210.671 189.355 210.385 189.173 210.06 189.03C209.735 188.9 209.345 188.835 208.89 188.835ZM211.152 193.489C211.152 193.944 211.126 194.412 211.074 194.893C211.022 195.374 210.918 195.803 210.762 196.18C210.606 196.557 210.385 196.869 210.086 197.116C209.787 197.363 209.384 197.48 208.89 197.48C208.448 197.48 208.084 197.389 207.798 197.194C207.499 197.012 207.265 196.752 207.096 196.414C206.927 196.076 206.797 195.66 206.732 195.179C206.654 194.698 206.615 194.165 206.615 193.58C206.615 193.073 206.654 192.579 206.719 192.098C206.784 191.617 206.888 191.175 207.057 190.798C207.226 190.421 207.447 190.109 207.746 189.875C208.032 189.654 208.409 189.537 208.864 189.537C209.345 189.537 209.748 189.654 210.047 189.875C210.346 190.096 210.567 190.395 210.736 190.772C210.905 191.149 211.009 191.565 211.074 192.033C211.126 192.514 211.152 192.995 211.152 193.489ZM213.397 191.838H214.281C214.268 191.526 214.307 191.227 214.398 190.954C214.489 190.681 214.632 190.434 214.814 190.226C214.983 190.018 215.204 189.849 215.451 189.719C215.698 189.602 215.971 189.537 216.27 189.537C216.556 189.537 216.816 189.576 217.063 189.654C217.31 189.745 217.518 189.862 217.7 190.031C217.882 190.2 218.025 190.395 218.129 190.629C218.233 190.863 218.285 191.123 218.285 191.422C218.285 191.786 218.22 192.098 218.09 192.345C217.96 192.592 217.778 192.826 217.557 193.021C217.336 193.216 217.076 193.398 216.777 193.567C216.478 193.736 216.166 193.931 215.841 194.126C215.516 194.334 215.178 194.568 214.84 194.828C214.489 195.088 214.164 195.4 213.839 195.764C213.54 196.102 213.358 196.453 213.267 196.804C213.176 197.155 213.137 197.558 213.124 198H219.117V197.298H214.008C214.021 197.077 214.06 196.882 214.125 196.7C214.19 196.531 214.281 196.362 214.398 196.219C214.515 196.076 214.632 195.933 214.775 195.803L215.204 195.452C215.425 195.283 215.685 195.114 215.971 194.958C216.257 194.802 216.543 194.633 216.842 194.464C217.141 194.295 217.427 194.126 217.713 193.931C217.986 193.736 218.246 193.528 218.467 193.281C218.688 193.034 218.857 192.761 219 192.449C219.13 192.137 219.195 191.773 219.195 191.37C219.195 191.019 219.13 190.694 219.013 190.382C218.896 190.07 218.714 189.797 218.48 189.576C218.233 189.355 217.947 189.173 217.596 189.03C217.245 188.9 216.829 188.835 216.374 188.835C215.919 188.835 215.516 188.9 215.152 189.043C214.775 189.186 214.463 189.394 214.203 189.654C213.943 189.927 213.748 190.239 213.605 190.603C213.462 190.98 213.397 191.383 213.397 191.838ZM223.338 188.835C222.675 188.835 222.142 188.965 221.739 189.238C221.336 189.511 221.024 189.862 220.803 190.291C220.582 190.733 220.426 191.227 220.348 191.786C220.27 192.345 220.231 192.904 220.231 193.489C220.231 194.126 220.27 194.724 220.361 195.283C220.452 195.855 220.608 196.349 220.842 196.778C221.063 197.207 221.388 197.558 221.791 197.805C222.194 198.052 222.701 198.182 223.338 198.182C223.975 198.182 224.482 198.052 224.885 197.805C225.288 197.558 225.6 197.22 225.834 196.791C226.055 196.362 226.211 195.881 226.302 195.322C226.393 194.763 226.432 194.191 226.432 193.58C226.432 193.229 226.419 192.865 226.393 192.488C226.367 192.111 226.315 191.747 226.237 191.396C226.159 191.045 226.055 190.72 225.912 190.408C225.769 190.096 225.574 189.823 225.353 189.589C225.119 189.355 224.833 189.173 224.508 189.03C224.183 188.9 223.793 188.835 223.338 188.835ZM225.6 193.489C225.6 193.944 225.574 194.412 225.522 194.893C225.47 195.374 225.366 195.803 225.21 196.18C225.054 196.557 224.833 196.869 224.534 197.116C224.235 197.363 223.832 197.48 223.338 197.48C222.896 197.48 222.532 197.389 222.246 197.194C221.947 197.012 221.713 196.752 221.544 196.414C221.375 196.076 221.245 195.66 221.18 195.179C221.102 194.698 221.063 194.165 221.063 193.58C221.063 193.073 221.102 192.579 221.167 192.098C221.232 191.617 221.336 191.175 221.505 190.798C221.674 190.421 221.895 190.109 222.194 189.875C222.48 189.654 222.857 189.537 223.312 189.537C223.793 189.537 224.196 189.654 224.495 189.875C224.794 190.096 225.015 190.395 225.184 190.772C225.353 191.149 225.457 191.565 225.522 192.033C225.574 192.514 225.6 192.995 225.6 193.489Z" fill="#818181"/>
<path d="M246.95 191.838H247.834C247.821 191.526 247.86 191.227 247.951 190.954C248.042 190.681 248.185 190.434 248.367 190.226C248.536 190.018 248.757 189.849 249.004 189.719C249.251 189.602 249.524 189.537 249.823 189.537C250.109 189.537 250.369 189.576 250.616 189.654C250.863 189.745 251.071 189.862 251.253 190.031C251.435 190.2 251.578 190.395 251.682 190.629C251.786 190.863 251.838 191.123 251.838 191.422C251.838 191.786 251.773 192.098 251.643 192.345C251.513 192.592 251.331 192.826 251.11 193.021C250.889 193.216 250.629 193.398 250.33 193.567C250.031 193.736 249.719 193.931 249.394 194.126C249.069 194.334 248.731 194.568 248.393 194.828C248.042 195.088 247.717 195.4 247.392 195.764C247.093 196.102 246.911 196.453 246.82 196.804C246.729 197.155 246.69 197.558 246.677 198H252.67V197.298H247.561C247.574 197.077 247.613 196.882 247.678 196.7C247.743 196.531 247.834 196.362 247.951 196.219C248.068 196.076 248.185 195.933 248.328 195.803L248.757 195.452C248.978 195.283 249.238 195.114 249.524 194.958C249.81 194.802 250.096 194.633 250.395 194.464C250.694 194.295 250.98 194.126 251.266 193.931C251.539 193.736 251.799 193.528 252.02 193.281C252.241 193.034 252.41 192.761 252.553 192.449C252.683 192.137 252.748 191.773 252.748 191.37C252.748 191.019 252.683 190.694 252.566 190.382C252.449 190.07 252.267 189.797 252.033 189.576C251.786 189.355 251.5 189.173 251.149 189.03C250.798 188.9 250.382 188.835 249.927 188.835C249.472 188.835 249.069 188.9 248.705 189.043C248.328 189.186 248.016 189.394 247.756 189.654C247.496 189.927 247.301 190.239 247.158 190.603C247.015 190.98 246.95 191.383 246.95 191.838ZM256.89 188.835C256.227 188.835 255.694 188.965 255.291 189.238C254.888 189.511 254.576 189.862 254.355 190.291C254.134 190.733 253.978 191.227 253.9 191.786C253.822 192.345 253.783 192.904 253.783 193.489C253.783 194.126 253.822 194.724 253.913 195.283C254.004 195.855 254.16 196.349 254.394 196.778C254.615 197.207 254.94 197.558 255.343 197.805C255.746 198.052 256.253 198.182 256.89 198.182C257.527 198.182 258.034 198.052 258.437 197.805C258.84 197.558 259.152 197.22 259.386 196.791C259.607 196.362 259.763 195.881 259.854 195.322C259.945 194.763 259.984 194.191 259.984 193.58C259.984 193.229 259.971 192.865 259.945 192.488C259.919 192.111 259.867 191.747 259.789 191.396C259.711 191.045 259.607 190.72 259.464 190.408C259.321 190.096 259.126 189.823 258.905 189.589C258.671 189.355 258.385 189.173 258.06 189.03C257.735 188.9 257.345 188.835 256.89 188.835ZM259.152 193.489C259.152 193.944 259.126 194.412 259.074 194.893C259.022 195.374 258.918 195.803 258.762 196.18C258.606 196.557 258.385 196.869 258.086 197.116C257.787 197.363 257.384 197.48 256.89 197.48C256.448 197.48 256.084 197.389 255.798 197.194C255.499 197.012 255.265 196.752 255.096 196.414C254.927 196.076 254.797 195.66 254.732 195.179C254.654 194.698 254.615 194.165 254.615 193.58C254.615 193.073 254.654 192.579 254.719 192.098C254.784 191.617 254.888 191.175 255.057 190.798C255.226 190.421 255.447 190.109 255.746 189.875C256.032 189.654 256.409 189.537 256.864 189.537C257.345 189.537 257.748 189.654 258.047 189.875C258.346 190.096 258.567 190.395 258.736 190.772C258.905 191.149 259.009 191.565 259.074 192.033C259.126 192.514 259.152 192.995 259.152 193.489ZM261.397 191.838H262.281C262.268 191.526 262.307 191.227 262.398 190.954C262.489 190.681 262.632 190.434 262.814 190.226C262.983 190.018 263.204 189.849 263.451 189.719C263.698 189.602 263.971 189.537 264.27 189.537C264.556 189.537 264.816 189.576 265.063 189.654C265.31 189.745 265.518 189.862 265.7 190.031C265.882 190.2 266.025 190.395 266.129 190.629C266.233 190.863 266.285 191.123 266.285 191.422C266.285 191.786 266.22 192.098 266.09 192.345C265.96 192.592 265.778 192.826 265.557 193.021C265.336 193.216 265.076 193.398 264.777 193.567C264.478 193.736 264.166 193.931 263.841 194.126C263.516 194.334 263.178 194.568 262.84 194.828C262.489 195.088 262.164 195.4 261.839 195.764C261.54 196.102 261.358 196.453 261.267 196.804C261.176 197.155 261.137 197.558 261.124 198H267.117V197.298H262.008C262.021 197.077 262.06 196.882 262.125 196.7C262.19 196.531 262.281 196.362 262.398 196.219C262.515 196.076 262.632 195.933 262.775 195.803L263.204 195.452C263.425 195.283 263.685 195.114 263.971 194.958C264.257 194.802 264.543 194.633 264.842 194.464C265.141 194.295 265.427 194.126 265.713 193.931C265.986 193.736 266.246 193.528 266.467 193.281C266.688 193.034 266.857 192.761 267 192.449C267.13 192.137 267.195 191.773 267.195 191.37C267.195 191.019 267.13 190.694 267.013 190.382C266.896 190.07 266.714 189.797 266.48 189.576C266.233 189.355 265.947 189.173 265.596 189.03C265.245 188.9 264.829 188.835 264.374 188.835C263.919 188.835 263.516 188.9 263.152 189.043C262.775 189.186 262.463 189.394 262.203 189.654C261.943 189.927 261.748 190.239 261.605 190.603C261.462 190.98 261.397 191.383 261.397 191.838ZM269.284 190.642V191.188H271.65V198H272.482V188.835H271.819C271.754 189.225 271.65 189.537 271.507 189.758C271.364 189.992 271.182 190.174 270.974 190.291C270.753 190.408 270.506 190.499 270.233 190.538C269.947 190.577 269.635 190.616 269.284 190.642Z" fill="#818181"/>
<path d="M294.95 191.838H295.834C295.821 191.526 295.86 191.227 295.951 190.954C296.042 190.681 296.185 190.434 296.367 190.226C296.536 190.018 296.757 189.849 297.004 189.719C297.251 189.602 297.524 189.537 297.823 189.537C298.109 189.537 298.369 189.576 298.616 189.654C298.863 189.745 299.071 189.862 299.253 190.031C299.435 190.2 299.578 190.395 299.682 190.629C299.786 190.863 299.838 191.123 299.838 191.422C299.838 191.786 299.773 192.098 299.643 192.345C299.513 192.592 299.331 192.826 299.11 193.021C298.889 193.216 298.629 193.398 298.33 193.567C298.031 193.736 297.719 193.931 297.394 194.126C297.069 194.334 296.731 194.568 296.393 194.828C296.042 195.088 295.717 195.4 295.392 195.764C295.093 196.102 294.911 196.453 294.82 196.804C294.729 197.155 294.69 197.558 294.677 198H300.67V197.298H295.561C295.574 197.077 295.613 196.882 295.678 196.7C295.743 196.531 295.834 196.362 295.951 196.219C296.068 196.076 296.185 195.933 296.328 195.803L296.757 195.452C296.978 195.283 297.238 195.114 297.524 194.958C297.81 194.802 298.096 194.633 298.395 194.464C298.694 194.295 298.98 194.126 299.266 193.931C299.539 193.736 299.799 193.528 300.02 193.281C300.241 193.034 300.41 192.761 300.553 192.449C300.683 192.137 300.748 191.773 300.748 191.37C300.748 191.019 300.683 190.694 300.566 190.382C300.449 190.07 300.267 189.797 300.033 189.576C299.786 189.355 299.5 189.173 299.149 189.03C298.798 188.9 298.382 188.835 297.927 188.835C297.472 188.835 297.069 188.9 296.705 189.043C296.328 189.186 296.016 189.394 295.756 189.654C295.496 189.927 295.301 190.239 295.158 190.603C295.015 190.98 294.95 191.383 294.95 191.838ZM304.89 188.835C304.227 188.835 303.694 188.965 303.291 189.238C302.888 189.511 302.576 189.862 302.355 190.291C302.134 190.733 301.978 191.227 301.9 191.786C301.822 192.345 301.783 192.904 301.783 193.489C301.783 194.126 301.822 194.724 301.913 195.283C302.004 195.855 302.16 196.349 302.394 196.778C302.615 197.207 302.94 197.558 303.343 197.805C303.746 198.052 304.253 198.182 304.89 198.182C305.527 198.182 306.034 198.052 306.437 197.805C306.84 197.558 307.152 197.22 307.386 196.791C307.607 196.362 307.763 195.881 307.854 195.322C307.945 194.763 307.984 194.191 307.984 193.58C307.984 193.229 307.971 192.865 307.945 192.488C307.919 192.111 307.867 191.747 307.789 191.396C307.711 191.045 307.607 190.72 307.464 190.408C307.321 190.096 307.126 189.823 306.905 189.589C306.671 189.355 306.385 189.173 306.06 189.03C305.735 188.9 305.345 188.835 304.89 188.835ZM307.152 193.489C307.152 193.944 307.126 194.412 307.074 194.893C307.022 195.374 306.918 195.803 306.762 196.18C306.606 196.557 306.385 196.869 306.086 197.116C305.787 197.363 305.384 197.48 304.89 197.48C304.448 197.48 304.084 197.389 303.798 197.194C303.499 197.012 303.265 196.752 303.096 196.414C302.927 196.076 302.797 195.66 302.732 195.179C302.654 194.698 302.615 194.165 302.615 193.58C302.615 193.073 302.654 192.579 302.719 192.098C302.784 191.617 302.888 191.175 303.057 190.798C303.226 190.421 303.447 190.109 303.746 189.875C304.032 189.654 304.409 189.537 304.864 189.537C305.345 189.537 305.748 189.654 306.047 189.875C306.346 190.096 306.567 190.395 306.736 190.772C306.905 191.149 307.009 191.565 307.074 192.033C307.126 192.514 307.152 192.995 307.152 193.489ZM309.397 191.838H310.281C310.268 191.526 310.307 191.227 310.398 190.954C310.489 190.681 310.632 190.434 310.814 190.226C310.983 190.018 311.204 189.849 311.451 189.719C311.698 189.602 311.971 189.537 312.27 189.537C312.556 189.537 312.816 189.576 313.063 189.654C313.31 189.745 313.518 189.862 313.7 190.031C313.882 190.2 314.025 190.395 314.129 190.629C314.233 190.863 314.285 191.123 314.285 191.422C314.285 191.786 314.22 192.098 314.09 192.345C313.96 192.592 313.778 192.826 313.557 193.021C313.336 193.216 313.076 193.398 312.777 193.567C312.478 193.736 312.166 193.931 311.841 194.126C311.516 194.334 311.178 194.568 310.84 194.828C310.489 195.088 310.164 195.4 309.839 195.764C309.54 196.102 309.358 196.453 309.267 196.804C309.176 197.155 309.137 197.558 309.124 198H315.117V197.298H310.008C310.021 197.077 310.06 196.882 310.125 196.7C310.19 196.531 310.281 196.362 310.398 196.219C310.515 196.076 310.632 195.933 310.775 195.803L311.204 195.452C311.425 195.283 311.685 195.114 311.971 194.958C312.257 194.802 312.543 194.633 312.842 194.464C313.141 194.295 313.427 194.126 313.713 193.931C313.986 193.736 314.246 193.528 314.467 193.281C314.688 193.034 314.857 192.761 315 192.449C315.13 192.137 315.195 191.773 315.195 191.37C315.195 191.019 315.13 190.694 315.013 190.382C314.896 190.07 314.714 189.797 314.48 189.576C314.233 189.355 313.947 189.173 313.596 189.03C313.245 188.9 312.829 188.835 312.374 188.835C311.919 188.835 311.516 188.9 311.152 189.043C310.775 189.186 310.463 189.394 310.203 189.654C309.943 189.927 309.748 190.239 309.605 190.603C309.462 190.98 309.397 191.383 309.397 191.838ZM316.621 191.838H317.505C317.492 191.526 317.531 191.227 317.622 190.954C317.713 190.681 317.856 190.434 318.038 190.226C318.207 190.018 318.428 189.849 318.675 189.719C318.922 189.602 319.195 189.537 319.494 189.537C319.78 189.537 320.04 189.576 320.287 189.654C320.534 189.745 320.742 189.862 320.924 190.031C321.106 190.2 321.249 190.395 321.353 190.629C321.457 190.863 321.509 191.123 321.509 191.422C321.509 191.786 321.444 192.098 321.314 192.345C321.184 192.592 321.002 192.826 320.781 193.021C320.56 193.216 320.3 193.398 320.001 193.567C319.702 193.736 319.39 193.931 319.065 194.126C318.74 194.334 318.402 194.568 318.064 194.828C317.713 195.088 317.388 195.4 317.063 195.764C316.764 196.102 316.582 196.453 316.491 196.804C316.4 197.155 316.361 197.558 316.348 198H322.341V197.298H317.232C317.245 197.077 317.284 196.882 317.349 196.7C317.414 196.531 317.505 196.362 317.622 196.219C317.739 196.076 317.856 195.933 317.999 195.803L318.428 195.452C318.649 195.283 318.909 195.114 319.195 194.958C319.481 194.802 319.767 194.633 320.066 194.464C320.365 194.295 320.651 194.126 320.937 193.931C321.21 193.736 321.47 193.528 321.691 193.281C321.912 193.034 322.081 192.761 322.224 192.449C322.354 192.137 322.419 191.773 322.419 191.37C322.419 191.019 322.354 190.694 322.237 190.382C322.12 190.07 321.938 189.797 321.704 189.576C321.457 189.355 321.171 189.173 320.82 189.03C320.469 188.9 320.053 188.835 319.598 188.835C319.143 188.835 318.74 188.9 318.376 189.043C317.999 189.186 317.687 189.394 317.427 189.654C317.167 189.927 316.972 190.239 316.829 190.603C316.686 190.98 316.621 191.383 316.621 191.838Z" fill="#818181"/>
<path d="M15.3904 167.835C14.7274 167.835 14.1944 167.965 13.7914 168.238C13.3884 168.511 13.0764 168.862 12.8554 169.291C12.6344 169.733 12.4784 170.227 12.4004 170.786C12.3224 171.345 12.2834 171.904 12.2834 172.489C12.2834 173.126 12.3224 173.724 12.4134 174.283C12.5044 174.855 12.6604 175.349 12.8944 175.778C13.1154 176.207 13.4404 176.558 13.8434 176.805C14.2464 177.052 14.7534 177.182 15.3904 177.182C16.0274 177.182 16.5344 177.052 16.9374 176.805C17.3404 176.558 17.6524 176.22 17.8864 175.791C18.1074 175.362 18.2634 174.881 18.3544 174.322C18.4454 173.763 18.4844 173.191 18.4844 172.58C18.4844 172.229 18.4714 171.865 18.4454 171.488C18.4194 171.111 18.3674 170.747 18.2894 170.396C18.2114 170.045 18.1074 169.72 17.9644 169.408C17.8214 169.096 17.6264 168.823 17.4054 168.589C17.1714 168.355 16.8854 168.173 16.5604 168.03C16.2354 167.9 15.8454 167.835 15.3904 167.835ZM17.6524 172.489C17.6524 172.944 17.6264 173.412 17.5744 173.893C17.5224 174.374 17.4184 174.803 17.2624 175.18C17.1064 175.557 16.8854 175.869 16.5864 176.116C16.2874 176.363 15.8844 176.48 15.3904 176.48C14.9484 176.48 14.5844 176.389 14.2984 176.194C13.9994 176.012 13.7654 175.752 13.5964 175.414C13.4274 175.076 13.2974 174.66 13.2324 174.179C13.1544 173.698 13.1154 173.165 13.1154 172.58C13.1154 172.073 13.1544 171.579 13.2194 171.098C13.2844 170.617 13.3884 170.175 13.5574 169.798C13.7264 169.421 13.9474 169.109 14.2464 168.875C14.5324 168.654 14.9094 168.537 15.3644 168.537C15.8454 168.537 16.2484 168.654 16.5474 168.875C16.8464 169.096 17.0674 169.395 17.2364 169.772C17.4054 170.149 17.5094 170.565 17.5744 171.033C17.6264 171.514 17.6524 171.995 17.6524 172.489Z" fill="#818181"/>
<path d="M2.22157 95.621H1.38957C1.42857 96.102 1.53257 96.492 1.71457 96.817C1.88357 97.142 2.11757 97.415 2.40357 97.61C2.68957 97.818 3.02757 97.961 3.40457 98.052C3.78157 98.143 4.18457 98.182 4.61357 98.182C4.99057 98.182 5.35457 98.117 5.70557 97.974C6.05657 97.844 6.35557 97.649 6.62857 97.389C6.90157 97.129 7.10957 96.804 7.27857 96.427C7.43457 96.05 7.51257 95.621 7.51257 95.14C7.51257 94.672 7.44757 94.243 7.30457 93.866C7.16157 93.489 6.95357 93.177 6.69357 92.917C6.43357 92.657 6.12157 92.462 5.77057 92.319C5.41957 92.176 5.02957 92.111 4.61357 92.111C4.40557 92.111 4.22357 92.124 4.05457 92.137C3.88557 92.15 3.71657 92.189 3.56057 92.228C3.40457 92.28 3.24857 92.345 3.10557 92.423C2.94957 92.501 2.78057 92.592 2.59857 92.709L3.17057 89.628H7.01857V88.926H2.46857L1.72757 93.671L2.41657 93.762C2.66357 93.437 2.96257 93.19 3.28757 93.034C3.61257 92.891 3.98957 92.813 4.40557 92.813C4.75657 92.813 5.06857 92.865 5.35457 92.982C5.62757 93.099 5.87457 93.255 6.06957 93.463C6.26457 93.671 6.40757 93.918 6.52457 94.204C6.62857 94.49 6.68057 94.802 6.68057 95.14C6.68057 95.465 6.62857 95.777 6.53757 96.05C6.43357 96.336 6.29057 96.583 6.09557 96.791C5.90057 97.012 5.67957 97.181 5.40657 97.298C5.13357 97.415 4.82157 97.48 4.48357 97.48C3.88557 97.48 3.37857 97.324 2.97557 97.012C2.55957 96.713 2.31257 96.245 2.22157 95.621ZM10.4332 96.856H9.4842V98H10.4332V96.856ZM15.3904 88.835C14.7274 88.835 14.1944 88.965 13.7914 89.238C13.3884 89.511 13.0764 89.862 12.8554 90.291C12.6344 90.733 12.4784 91.227 12.4004 91.786C12.3224 92.345 12.2834 92.904 12.2834 93.489C12.2834 94.126 12.3224 94.724 12.4134 95.283C12.5044 95.855 12.6604 96.349 12.8944 96.778C13.1154 97.207 13.4404 97.558 13.8434 97.805C14.2464 98.052 14.7534 98.182 15.3904 98.182C16.0274 98.182 16.5344 98.052 16.9374 97.805C17.3404 97.558 17.6524 97.22 17.8864 96.791C18.1074 96.362 18.2634 95.881 18.3544 95.322C18.4454 94.763 18.4844 94.191 18.4844 93.58C18.4844 93.229 18.4714 92.865 18.4454 92.488C18.4194 92.111 18.3674 91.747 18.2894 91.396C18.2114 91.045 18.1074 90.72 17.9644 90.408C17.8214 90.096 17.6264 89.823 17.4054 89.589C17.1714 89.355 16.8854 89.173 16.5604 89.03C16.2354 88.9 15.8454 88.835 15.3904 88.835ZM17.6524 93.489C17.6524 93.944 17.6264 94.412 17.5744 94.893C17.5224 95.374 17.4184 95.803 17.2624 96.18C17.1064 96.557 16.8854 96.869 16.5864 97.116C16.2874 97.363 15.8844 97.48 15.3904 97.48C14.9484 97.48 14.5844 97.389 14.2984 97.194C13.9994 97.012 13.7654 96.752 13.5964 96.414C13.4274 96.076 13.2974 95.66 13.2324 95.179C13.1544 94.698 13.1154 94.165 13.1154 93.58C13.1154 93.073 13.1544 92.579 13.2194 92.098C13.2844 91.617 13.3884 91.175 13.5574 90.798C13.7264 90.421 13.9474 90.109 14.2464 89.875C14.5324 89.654 14.9094 89.537 15.3644 89.537C15.8454 89.537 16.2484 89.654 16.5474 89.875C16.8464 90.096 17.0674 90.395 17.2364 90.772C17.4054 91.149 17.5094 91.565 17.5744 92.033C17.6264 92.514 17.6524 92.995 17.6524 93.489Z" fill="#818181"/>
<path d="M1.83157 131.838H2.71557C2.70257 131.526 2.74157 131.227 2.83257 130.954C2.92357 130.681 3.06657 130.434 3.24857 130.226C3.41757 130.018 3.63857 129.849 3.88557 129.719C4.13257 129.602 4.40557 129.537 4.70457 129.537C4.99057 129.537 5.25057 129.576 5.49757 129.654C5.74457 129.745 5.95257 129.862 6.13457 130.031C6.31657 130.2 6.45957 130.395 6.56357 130.629C6.66757 130.863 6.71957 131.123 6.71957 131.422C6.71957 131.786 6.65457 132.098 6.52457 132.345C6.39457 132.592 6.21257 132.826 5.99157 133.021C5.77057 133.216 5.51057 133.398 5.21157 133.567C4.91257 133.736 4.60057 133.931 4.27557 134.126C3.95057 134.334 3.61257 134.568 3.27457 134.828C2.92357 135.088 2.59857 135.4 2.27357 135.764C1.97457 136.102 1.79257 136.453 1.70157 136.804C1.61057 137.155 1.57157 137.558 1.55857 138H7.55157V137.298H2.44257C2.45557 137.077 2.49457 136.882 2.55957 136.7C2.62457 136.531 2.71557 136.362 2.83257 136.219C2.94957 136.076 3.06657 135.933 3.20957 135.803L3.63857 135.452C3.85957 135.283 4.11957 135.114 4.40557 134.958C4.69157 134.802 4.97757 134.633 5.27657 134.464C5.57557 134.295 5.86157 134.126 6.14757 133.931C6.42057 133.736 6.68057 133.528 6.90157 133.281C7.12257 133.034 7.29157 132.761 7.43457 132.449C7.56457 132.137 7.62957 131.773 7.62957 131.37C7.62957 131.019 7.56457 130.694 7.44757 130.382C7.33057 130.07 7.14857 129.797 6.91457 129.576C6.66757 129.355 6.38157 129.173 6.03057 129.03C5.67957 128.9 5.26357 128.835 4.80857 128.835C4.35357 128.835 3.95057 128.9 3.58657 129.043C3.20957 129.186 2.89757 129.394 2.63757 129.654C2.37757 129.927 2.18257 130.239 2.03957 130.603C1.89657 130.98 1.83157 131.383 1.83157 131.838ZM10.4332 136.856H9.4842V138H10.4332V136.856ZM13.0634 135.621H12.2314C12.2704 136.102 12.3744 136.492 12.5564 136.817C12.7254 137.142 12.9594 137.415 13.2454 137.61C13.5314 137.818 13.8694 137.961 14.2464 138.052C14.6234 138.143 15.0264 138.182 15.4554 138.182C15.8324 138.182 16.1964 138.117 16.5474 137.974C16.8984 137.844 17.1974 137.649 17.4704 137.389C17.7434 137.129 17.9514 136.804 18.1204 136.427C18.2764 136.05 18.3544 135.621 18.3544 135.14C18.3544 134.672 18.2894 134.243 18.1464 133.866C18.0034 133.489 17.7954 133.177 17.5354 132.917C17.2754 132.657 16.9634 132.462 16.6124 132.319C16.2614 132.176 15.8714 132.111 15.4554 132.111C15.2474 132.111 15.0654 132.124 14.8964 132.137C14.7274 132.15 14.5584 132.189 14.4024 132.228C14.2464 132.28 14.0904 132.345 13.9474 132.423C13.7914 132.501 13.6224 132.592 13.4404 132.709L14.0124 129.628H17.8604V128.926H13.3104L12.5694 133.671L13.2584 133.762C13.5054 133.437 13.8044 133.19 14.1294 133.034C14.4544 132.891 14.8314 132.813 15.2474 132.813C15.5984 132.813 15.9104 132.865 16.1964 132.982C16.4694 133.099 16.7164 133.255 16.9114 133.463C17.1064 133.671 17.2494 133.918 17.3664 134.204C17.4704 134.49 17.5224 134.802 17.5224 135.14C17.5224 135.465 17.4704 135.777 17.3794 136.05C17.2754 136.336 17.1324 136.583 16.9374 136.791C16.7424 137.012 16.5214 137.181 16.2484 137.298C15.9754 137.415 15.6634 137.48 15.3254 137.48C14.7274 137.48 14.2204 137.324 13.8174 137.012C13.4014 136.713 13.1544 136.245 13.0634 135.621Z" fill="#818181"/>
<path d="M7.53857 49.706V48.926H1.70157V49.758H6.53757C6.09557 50.291 5.66657 50.902 5.25057 51.578C4.83457 52.267 4.45757 52.969 4.13257 53.697C3.80757 54.425 3.53457 55.153 3.31357 55.894C3.09257 56.635 2.94957 57.337 2.91057 58H3.82057C3.84657 57.545 3.93757 56.999 4.08057 56.362C4.22357 55.725 4.43157 55.023 4.73057 54.282C5.02957 53.541 5.40657 52.787 5.86157 51.994C6.31657 51.214 6.87557 50.447 7.53857 49.706ZM10.4332 56.856H9.4842V58H10.4332V56.856ZM13.0634 55.621H12.2314C12.2704 56.102 12.3744 56.492 12.5564 56.817C12.7254 57.142 12.9594 57.415 13.2454 57.61C13.5314 57.818 13.8694 57.961 14.2464 58.052C14.6234 58.143 15.0264 58.182 15.4554 58.182C15.8324 58.182 16.1964 58.117 16.5474 57.974C16.8984 57.844 17.1974 57.649 17.4704 57.389C17.7434 57.129 17.9514 56.804 18.1204 56.427C18.2764 56.05 18.3544 55.621 18.3544 55.14C18.3544 54.672 18.2894 54.243 18.1464 53.866C18.0034 53.489 17.7954 53.177 17.5354 52.917C17.2754 52.657 16.9634 52.462 16.6124 52.319C16.2614 52.176 15.8714 52.111 15.4554 52.111C15.2474 52.111 15.0654 52.124 14.8964 52.137C14.7274 52.15 14.5584 52.189 14.4024 52.228C14.2464 52.28 14.0904 52.345 13.9474 52.423C13.7914 52.501 13.6224 52.592 13.4404 52.709L14.0124 49.628H17.8604V48.926H13.3104L12.5694 53.671L13.2584 53.762C13.5054 53.437 13.8044 53.19 14.1294 53.034C14.4544 52.891 14.8314 52.813 15.2474 52.813C15.5984 52.813 15.9104 52.865 16.1964 52.982C16.4694 53.099 16.7164 53.255 16.9114 53.463C17.1064 53.671 17.2494 53.918 17.3664 54.204C17.4704 54.49 17.5224 54.802 17.5224 55.14C17.5224 55.465 17.4704 55.777 17.3794 56.05C17.2754 56.336 17.1324 56.583 16.9374 56.791C16.7424 57.012 16.5214 57.181 16.2484 57.298C15.9754 57.415 15.6634 57.48 15.3254 57.48C14.7274 57.48 14.2204 57.324 13.8174 57.012C13.4014 56.713 13.1544 56.245 13.0634 55.621Z" fill="#818181"/>
<path d="M1.328 5.8H3.92V17H1.328V5.8ZM17.426 8.264C18.5033 8.264 19.3567 8.584 19.986 9.224C20.626 9.85333 20.946 10.8027 20.946 12.072V17H18.45V12.456C18.45 11.7733 18.306 11.2667 18.018 10.936C17.7407 10.5947 17.3407 10.424 16.818 10.424C16.2313 10.424 15.7673 10.616 15.426 11C15.0847 11.3733 14.914 11.9333 14.914 12.68V17H12.418V12.456C12.418 11.1013 11.874 10.424 10.786 10.424C10.21 10.424 9.75133 10.616 9.41 11C9.06867 11.3733 8.898 11.9333 8.898 12.68V17H6.402V8.392H8.786V9.384C9.106 9.02133 9.49533 8.744 9.954 8.552C10.4233 8.36 10.9353 8.264 11.49 8.264C12.098 8.264 12.6473 8.38667 13.138 8.632C13.6287 8.86667 14.0233 9.21333 14.322 9.672C14.674 9.224 15.1167 8.87733 15.65 8.632C16.194 8.38667 16.786 8.264 17.426 8.264ZM28.2713 8.264C29.0713 8.264 29.7966 8.45067 30.4473 8.824C31.1086 9.18667 31.6259 9.704 31.9993 10.376C32.3726 11.0373 32.5593 11.8107 32.5593 12.696C32.5593 13.5813 32.3726 14.36 31.9993 15.032C31.6259 15.6933 31.1086 16.2107 30.4473 16.584C29.7966 16.9467 29.0713 17.128 28.2713 17.128C27.1726 17.128 26.3086 16.7813 25.6793 16.088V20.104H23.1833V8.392H25.5673V9.384C26.1859 8.63733 27.0873 8.264 28.2713 8.264ZM27.8393 15.08C28.4793 15.08 29.0019 14.8667 29.4073 14.44C29.8233 14.0027 30.0312 13.4213 30.0312 12.696C30.0312 11.9707 29.8233 11.3947 29.4073 10.968C29.0019 10.5307 28.4793 10.312 27.8393 10.312C27.1993 10.312 26.6713 10.5307 26.2552 10.968C25.8499 11.3947 25.6473 11.9707 25.6473 12.696C25.6473 13.4213 25.8499 14.0027 26.2552 14.44C26.6713 14.8667 27.1993 15.08 27.8393 15.08ZM37.5615 8.264C38.8948 8.264 39.9188 8.584 40.6335 9.224C41.3482 9.85333 41.7055 10.808 41.7055 12.088V17H39.3695V15.928C38.9002 16.728 38.0255 17.128 36.7455 17.128C36.0842 17.128 35.5082 17.016 35.0175 16.792C34.5375 16.568 34.1695 16.2587 33.9135 15.864C33.6575 15.4693 33.5295 15.0213 33.5295 14.52C33.5295 13.72 33.8282 13.0907 34.4255 12.632C35.0335 12.1733 35.9668 11.944 37.2255 11.944H39.2095C39.2095 11.4 39.0442 10.984 38.7135 10.696C38.3828 10.3973 37.8868 10.248 37.2255 10.248C36.7668 10.248 36.3135 10.3227 35.8655 10.472C35.4282 10.6107 35.0548 10.8027 34.7455 11.048L33.8495 9.304C34.3188 8.97333 34.8788 8.71733 35.5295 8.536C36.1908 8.35467 36.8682 8.264 37.5615 8.264ZM37.3695 15.448C37.7962 15.448 38.1748 15.352 38.5055 15.16C38.8362 14.9573 39.0708 14.664 39.2095 14.28V13.4H37.4975C36.4735 13.4 35.9615 13.736 35.9615 14.408C35.9615 14.728 36.0842 14.984 36.3295 15.176C36.5855 15.3573 36.9322 15.448 37.3695 15.448ZM48.2183 17.128C47.3009 17.128 46.4743 16.9413 45.7383 16.568C45.0129 16.184 44.4423 15.656 44.0263 14.984C43.6209 14.312 43.4183 13.5493 43.4183 12.696C43.4183 11.8427 43.6209 11.08 44.0263 10.408C44.4423 9.736 45.0129 9.21333 45.7383 8.84C46.4743 8.456 47.3009 8.264 48.2183 8.264C49.1249 8.264 49.9143 8.456 50.5863 8.84C51.2689 9.21333 51.7649 9.752 52.0743 10.456L50.1383 11.496C49.6903 10.7067 49.0449 10.312 48.2023 10.312C47.5516 10.312 47.0129 10.5253 46.5863 10.952C46.1596 11.3787 45.9463 11.96 45.9463 12.696C45.9463 13.432 46.1596 14.0133 46.5863 14.44C47.0129 14.8667 47.5516 15.08 48.2023 15.08C49.0556 15.08 49.7009 14.6853 50.1383 13.896L52.0743 14.952C51.7649 15.6347 51.2689 16.168 50.5863 16.552C49.9143 16.936 49.1249 17.128 48.2183 17.128ZM59.1884 16.584C58.943 16.7653 58.639 16.904 58.2764 17C57.9244 17.0853 57.551 17.128 57.1564 17.128C56.1324 17.128 55.3377 16.8667 54.7724 16.344C54.2177 15.8213 53.9404 15.0533 53.9404 14.04V10.504H52.6124V8.584H53.9404V6.488H56.4364V8.584H58.5804V10.504H56.4364V14.008C56.4364 14.3707 56.527 14.6533 56.7084 14.856C56.9004 15.048 57.167 15.144 57.5084 15.144C57.903 15.144 58.239 15.0373 58.5164 14.824L59.1884 16.584ZM67.8888 7.88V10.84H73.0728V12.92H67.8888V17H65.2968V5.8H73.7608V7.88H67.8888ZM78.5771 8.264C79.9105 8.264 80.9345 8.584 81.6491 9.224C82.3638 9.85333 82.7211 10.808 82.7211 12.088V17H80.3851V15.928C79.9158 16.728 79.0411 17.128 77.7611 17.128C77.0998 17.128 76.5238 17.016 76.0331 16.792C75.5531 16.568 75.1851 16.2587 74.9291 15.864C74.6731 15.4693 74.5451 15.0213 74.5451 14.52C74.5451 13.72 74.8438 13.0907 75.4411 12.632C76.0491 12.1733 76.9825 11.944 78.2411 11.944H80.2251C80.2251 11.4 80.0598 10.984 79.7291 10.696C79.3985 10.3973 78.9025 10.248 78.2411 10.248C77.7825 10.248 77.3291 10.3227 76.8811 10.472C76.4438 10.6107 76.0705 10.8027 75.7611 11.048L74.8651 9.304C75.3345 8.97333 75.8945 8.71733 76.5451 8.536C77.2065 8.35467 77.8838 8.264 78.5771 8.264ZM78.3851 15.448C78.8118 15.448 79.1905 15.352 79.5211 15.16C79.8518 14.9573 80.0865 14.664 80.2251 14.28V13.4H78.5131C77.4891 13.4 76.9771 13.736 76.9771 14.408C76.9771 14.728 77.0998 14.984 77.3451 15.176C77.6011 15.3573 77.9478 15.448 78.3851 15.448ZM89.2339 17.128C88.3165 17.128 87.4899 16.9413 86.7539 16.568C86.0285 16.184 85.4579 15.656 85.0419 14.984C84.6365 14.312 84.4339 13.5493 84.4339 12.696C84.4339 11.8427 84.6365 11.08 85.0419 10.408C85.4579 9.736 86.0285 9.21333 86.7539 8.84C87.4899 8.456 88.3165 8.264 89.2339 8.264C90.1405 8.264 90.9299 8.456 91.6019 8.84C92.2845 9.21333 92.7805 9.752 93.0899 10.456L91.1539 11.496C90.7059 10.7067 90.0605 10.312 89.2179 10.312C88.5672 10.312 88.0285 10.5253 87.6019 10.952C87.1752 11.3787 86.9619 11.96 86.9619 12.696C86.9619 13.432 87.1752 14.0133 87.6019 14.44C88.0285 14.8667 88.5672 15.08 89.2179 15.08C90.0712 15.08 90.7165 14.6853 91.1539 13.896L93.0899 14.952C92.7805 15.6347 92.2845 16.168 91.6019 16.552C90.9299 16.936 90.1405 17.128 89.2339 17.128ZM100.204 16.584C99.9587 16.7653 99.6547 16.904 99.292 17C98.94 17.0853 98.5667 17.128 98.172 17.128C97.148 17.128 96.3533 16.8667 95.788 16.344C95.2333 15.8213 94.956 15.0533 94.956 14.04V10.504H93.628V8.584H94.956V6.488H97.452V8.584H99.596V10.504H97.452V14.008C97.452 14.3707 97.5427 14.6533 97.724 14.856C97.916 15.048 98.1827 15.144 98.524 15.144C98.9187 15.144 99.2547 15.0373 99.532 14.824L100.204 16.584ZM105.436 17.128C104.529 17.128 103.713 16.9413 102.988 16.568C102.273 16.184 101.713 15.656 101.308 14.984C100.902 14.312 100.7 13.5493 100.7 12.696C100.7 11.8427 100.902 11.08 101.308 10.408C101.713 9.736 102.273 9.21333 102.988 8.84C103.713 8.456 104.529 8.264 105.436 8.264C106.342 8.264 107.153 8.456 107.868 8.84C108.582 9.21333 109.142 9.736 109.548 10.408C109.953 11.08 110.156 11.8427 110.156 12.696C110.156 13.5493 109.953 14.312 109.548 14.984C109.142 15.656 108.582 16.184 107.868 16.568C107.153 16.9413 106.342 17.128 105.436 17.128ZM105.436 15.08C106.076 15.08 106.598 14.8667 107.004 14.44C107.42 14.0027 107.628 13.4213 107.628 12.696C107.628 11.9707 107.42 11.3947 107.004 10.968C106.598 10.5307 106.076 10.312 105.436 10.312C104.796 10.312 104.268 10.5307 103.852 10.968C103.436 11.3947 103.228 11.9707 103.228 12.696C103.228 13.4213 103.436 14.0027 103.852 14.44C104.268 14.8667 104.796 15.08 105.436 15.08ZM114.208 9.528C114.507 9.112 114.907 8.79733 115.408 8.584C115.92 8.37067 116.507 8.264 117.168 8.264V10.568C116.891 10.5467 116.704 10.536 116.608 10.536C115.893 10.536 115.333 10.7387 114.928 11.144C114.523 11.5387 114.32 12.136 114.32 12.936V17H111.824V8.392H114.208V9.528Z" fill="#2C2C2C"/>
<defs>
<linearGradient id="paint0_linear_378_258" x1="39" y1="52" x2="339" y2="52.0013" gradientUnits="userSpaceOnUse">
<stop stop-color="#F3F3F3"/>
<stop offset="0.348958" stop-color="#CFCFCF"/>
<stop offset="0.666667" stop-color="#CFCFCF"/>
<stop offset="1" stop-color="#F3F3F3"/>
</linearGradient>
<linearGradient id="paint1_linear_378_258" x1="39" y1="92" x2="339" y2="92.0013" gradientUnits="userSpaceOnUse">
<stop stop-color="#F3F3F3"/>
<stop offset="0.348958" stop-color="#CFCFCF"/>
<stop offset="0.666667" stop-color="#CFCFCF"/>
<stop offset="1" stop-color="#F3F3F3"/>
</linearGradient>
<linearGradient id="paint2_linear_378_258" x1="39" y1="132" x2="339" y2="132.001" gradientUnits="userSpaceOnUse">
<stop stop-color="#F3F3F3"/>
<stop offset="0.348958" stop-color="#CFCFCF"/>
<stop offset="0.666667" stop-color="#CFCFCF"/>
<stop offset="1" stop-color="#F3F3F3"/>
</linearGradient>
<linearGradient id="paint3_linear_378_258" x1="39" y1="172" x2="339" y2="172.001" gradientUnits="userSpaceOnUse">
<stop stop-color="#F3F3F3"/>
<stop offset="0.348958" stop-color="#CFCFCF"/>
<stop offset="0.666667" stop-color="#CFCFCF"/>
<stop offset="1" stop-color="#F3F3F3"/>
</linearGradient>
</defs>
</svg>
