<svg width="328" height="202" viewBox="0 0 328 202" fill="none" xmlns="http://www.w3.org/2000/svg">
<line x1="28" y1="51.5" x2="328" y2="51.5" stroke="url(#paint0_linear_378_280)"/>
<line x1="28" y1="81.5" x2="328" y2="81.5" stroke="url(#paint1_linear_378_280)"/>
<line x1="28" y1="111.5" x2="328" y2="111.5" stroke="url(#paint2_linear_378_280)"/>
<line x1="28" y1="141.5" x2="328" y2="141.5" stroke="url(#paint3_linear_378_280)"/>
<line x1="28" y1="171.5" x2="328" y2="171.5" stroke="url(#paint4_linear_378_280)"/>
<rect x="140" y="115" width="28" height="56" rx="2" fill="#FDD106"/>
<rect x="92" y="108" width="28" height="63" rx="2" fill="#FDD106"/>
<rect x="44" y="62" width="28" height="109" rx="2" fill="#FDD106"/>
<rect x="188" y="108" width="28" height="63" rx="2" fill="#FDD106"/>
<rect x="236" y="102" width="28" height="69" rx="2" fill="#FDD106"/>
<rect x="284" y="112" width="28" height="59" rx="2" fill="#FDD106"/>
<path d="M43.9497 191.838H44.8337C44.8207 191.526 44.8597 191.227 44.9507 190.954C45.0417 190.681 45.1847 190.434 45.3667 190.226C45.5357 190.018 45.7567 189.849 46.0037 189.719C46.2507 189.602 46.5237 189.537 46.8227 189.537C47.1087 189.537 47.3687 189.576 47.6157 189.654C47.8627 189.745 48.0707 189.862 48.2527 190.031C48.4347 190.2 48.5777 190.395 48.6817 190.629C48.7857 190.863 48.8377 191.123 48.8377 191.422C48.8377 191.786 48.7727 192.098 48.6427 192.345C48.5127 192.592 48.3307 192.826 48.1097 193.021C47.8887 193.216 47.6287 193.398 47.3297 193.567C47.0307 193.736 46.7187 193.931 46.3937 194.126C46.0687 194.334 45.7307 194.568 45.3927 194.828C45.0417 195.088 44.7167 195.4 44.3917 195.764C44.0927 196.102 43.9107 196.453 43.8197 196.804C43.7287 197.155 43.6897 197.558 43.6767 198H49.6697V197.298H44.5607C44.5737 197.077 44.6127 196.882 44.6777 196.7C44.7427 196.531 44.8337 196.362 44.9507 196.219C45.0677 196.076 45.1847 195.933 45.3277 195.803L45.7567 195.452C45.9777 195.283 46.2377 195.114 46.5237 194.958C46.8097 194.802 47.0957 194.633 47.3947 194.464C47.6937 194.295 47.9797 194.126 48.2657 193.931C48.5387 193.736 48.7987 193.528 49.0197 193.281C49.2407 193.034 49.4097 192.761 49.5527 192.449C49.6827 192.137 49.7477 191.773 49.7477 191.37C49.7477 191.019 49.6827 190.694 49.5657 190.382C49.4487 190.07 49.2667 189.797 49.0327 189.576C48.7857 189.355 48.4997 189.173 48.1487 189.03C47.7977 188.9 47.3817 188.835 46.9267 188.835C46.4717 188.835 46.0687 188.9 45.7047 189.043C45.3277 189.186 45.0157 189.394 44.7557 189.654C44.4957 189.927 44.3007 190.239 44.1577 190.603C44.0147 190.98 43.9497 191.383 43.9497 191.838ZM53.8904 188.835C53.2274 188.835 52.6944 188.965 52.2914 189.238C51.8884 189.511 51.5764 189.862 51.3554 190.291C51.1344 190.733 50.9784 191.227 50.9004 191.786C50.8224 192.345 50.7834 192.904 50.7834 193.489C50.7834 194.126 50.8224 194.724 50.9134 195.283C51.0044 195.855 51.1604 196.349 51.3944 196.778C51.6154 197.207 51.9404 197.558 52.3434 197.805C52.7464 198.052 53.2534 198.182 53.8904 198.182C54.5274 198.182 55.0344 198.052 55.4374 197.805C55.8404 197.558 56.1524 197.22 56.3864 196.791C56.6074 196.362 56.7634 195.881 56.8544 195.322C56.9454 194.763 56.9844 194.191 56.9844 193.58C56.9844 193.229 56.9714 192.865 56.9454 192.488C56.9194 192.111 56.8674 191.747 56.7894 191.396C56.7114 191.045 56.6074 190.72 56.4644 190.408C56.3214 190.096 56.1264 189.823 55.9054 189.589C55.6714 189.355 55.3854 189.173 55.0604 189.03C54.7354 188.9 54.3454 188.835 53.8904 188.835ZM56.1524 193.489C56.1524 193.944 56.1264 194.412 56.0744 194.893C56.0224 195.374 55.9184 195.803 55.7624 196.18C55.6064 196.557 55.3854 196.869 55.0864 197.116C54.7874 197.363 54.3844 197.48 53.8904 197.48C53.4484 197.48 53.0844 197.389 52.7984 197.194C52.4994 197.012 52.2654 196.752 52.0964 196.414C51.9274 196.076 51.7974 195.66 51.7324 195.179C51.6544 194.698 51.6154 194.165 51.6154 193.58C51.6154 193.073 51.6544 192.579 51.7194 192.098C51.7844 191.617 51.8884 191.175 52.0574 190.798C52.2264 190.421 52.4474 190.109 52.7464 189.875C53.0324 189.654 53.4094 189.537 53.8644 189.537C54.3454 189.537 54.7484 189.654 55.0474 189.875C55.3464 190.096 55.5674 190.395 55.7364 190.772C55.9054 191.149 56.0094 191.565 56.0744 192.033C56.1264 192.514 56.1524 192.995 56.1524 193.489ZM59.06 190.642V191.188H61.426V198H62.258V188.835H61.595C61.53 189.225 61.426 189.537 61.283 189.758C61.14 189.992 60.958 190.174 60.75 190.291C60.529 190.408 60.282 190.499 60.009 190.538C59.723 190.577 59.411 190.616 59.06 190.642ZM71.3276 189.706V188.926H65.4906V189.758H70.3266C69.8846 190.291 69.4556 190.902 69.0396 191.578C68.6236 192.267 68.2466 192.969 67.9216 193.697C67.5966 194.425 67.3236 195.153 67.1026 195.894C66.8816 196.635 66.7386 197.337 66.6996 198H67.6096C67.6356 197.545 67.7266 196.999 67.8696 196.362C68.0126 195.725 68.2206 195.023 68.5196 194.282C68.8186 193.541 69.1956 192.787 69.6506 191.994C70.1056 191.214 70.6646 190.447 71.3276 189.706Z" fill="#818181"/>
<path d="M91.9497 191.838H92.8337C92.8207 191.526 92.8597 191.227 92.9507 190.954C93.0417 190.681 93.1847 190.434 93.3667 190.226C93.5357 190.018 93.7567 189.849 94.0037 189.719C94.2507 189.602 94.5237 189.537 94.8227 189.537C95.1087 189.537 95.3687 189.576 95.6157 189.654C95.8627 189.745 96.0707 189.862 96.2527 190.031C96.4347 190.2 96.5777 190.395 96.6817 190.629C96.7857 190.863 96.8377 191.123 96.8377 191.422C96.8377 191.786 96.7727 192.098 96.6427 192.345C96.5127 192.592 96.3307 192.826 96.1097 193.021C95.8887 193.216 95.6287 193.398 95.3297 193.567C95.0307 193.736 94.7187 193.931 94.3937 194.126C94.0687 194.334 93.7307 194.568 93.3927 194.828C93.0417 195.088 92.7167 195.4 92.3917 195.764C92.0927 196.102 91.9107 196.453 91.8197 196.804C91.7287 197.155 91.6897 197.558 91.6767 198H97.6697V197.298H92.5607C92.5737 197.077 92.6127 196.882 92.6777 196.7C92.7427 196.531 92.8337 196.362 92.9507 196.219C93.0677 196.076 93.1847 195.933 93.3277 195.803L93.7567 195.452C93.9777 195.283 94.2377 195.114 94.5237 194.958C94.8097 194.802 95.0957 194.633 95.3947 194.464C95.6937 194.295 95.9797 194.126 96.2657 193.931C96.5387 193.736 96.7987 193.528 97.0197 193.281C97.2407 193.034 97.4097 192.761 97.5527 192.449C97.6827 192.137 97.7477 191.773 97.7477 191.37C97.7477 191.019 97.6827 190.694 97.5657 190.382C97.4487 190.07 97.2667 189.797 97.0327 189.576C96.7857 189.355 96.4997 189.173 96.1487 189.03C95.7977 188.9 95.3817 188.835 94.9267 188.835C94.4717 188.835 94.0687 188.9 93.7047 189.043C93.3277 189.186 93.0157 189.394 92.7557 189.654C92.4957 189.927 92.3007 190.239 92.1577 190.603C92.0147 190.98 91.9497 191.383 91.9497 191.838ZM101.89 188.835C101.227 188.835 100.694 188.965 100.291 189.238C99.8884 189.511 99.5764 189.862 99.3554 190.291C99.1344 190.733 98.9784 191.227 98.9004 191.786C98.8224 192.345 98.7834 192.904 98.7834 193.489C98.7834 194.126 98.8224 194.724 98.9134 195.283C99.0044 195.855 99.1604 196.349 99.3944 196.778C99.6154 197.207 99.9404 197.558 100.343 197.805C100.746 198.052 101.253 198.182 101.89 198.182C102.527 198.182 103.034 198.052 103.437 197.805C103.84 197.558 104.152 197.22 104.386 196.791C104.607 196.362 104.763 195.881 104.854 195.322C104.945 194.763 104.984 194.191 104.984 193.58C104.984 193.229 104.971 192.865 104.945 192.488C104.919 192.111 104.867 191.747 104.789 191.396C104.711 191.045 104.607 190.72 104.464 190.408C104.321 190.096 104.126 189.823 103.905 189.589C103.671 189.355 103.385 189.173 103.06 189.03C102.735 188.9 102.345 188.835 101.89 188.835ZM104.152 193.489C104.152 193.944 104.126 194.412 104.074 194.893C104.022 195.374 103.918 195.803 103.762 196.18C103.606 196.557 103.385 196.869 103.086 197.116C102.787 197.363 102.384 197.48 101.89 197.48C101.448 197.48 101.084 197.389 100.798 197.194C100.499 197.012 100.265 196.752 100.096 196.414C99.9274 196.076 99.7974 195.66 99.7324 195.179C99.6544 194.698 99.6154 194.165 99.6154 193.58C99.6154 193.073 99.6544 192.579 99.7194 192.098C99.7844 191.617 99.8884 191.175 100.057 190.798C100.226 190.421 100.447 190.109 100.746 189.875C101.032 189.654 101.409 189.537 101.864 189.537C102.345 189.537 102.748 189.654 103.047 189.875C103.346 190.096 103.567 190.395 103.736 190.772C103.905 191.149 104.009 191.565 104.074 192.033C104.126 192.514 104.152 192.995 104.152 193.489ZM107.06 190.642V191.188H109.426V198H110.258V188.835H109.595C109.53 189.225 109.426 189.537 109.283 189.758C109.14 189.992 108.958 190.174 108.75 190.291C108.529 190.408 108.282 190.499 108.009 190.538C107.723 190.577 107.411 190.616 107.06 190.642ZM114.895 193.073C114.375 193.268 113.985 193.58 113.712 194.009C113.439 194.438 113.296 194.932 113.296 195.478C113.296 195.933 113.387 196.323 113.556 196.661C113.725 196.999 113.959 197.285 114.232 197.506C114.505 197.727 114.804 197.896 115.155 198.013C115.493 198.13 115.831 198.182 116.156 198.182C116.637 198.182 117.079 198.117 117.482 198C117.885 197.883 118.223 197.701 118.509 197.467C118.782 197.233 119.003 196.947 119.159 196.596C119.302 196.245 119.38 195.855 119.38 195.4C119.38 194.867 119.237 194.399 118.951 193.996C118.652 193.593 118.262 193.307 117.755 193.125C118.197 192.904 118.522 192.631 118.717 192.293C118.912 191.955 119.003 191.552 119.003 191.071C119.003 190.681 118.925 190.343 118.769 190.057C118.613 189.784 118.405 189.55 118.145 189.368C117.885 189.186 117.586 189.056 117.261 188.965C116.923 188.874 116.585 188.835 116.234 188.835C115.87 188.822 115.532 188.874 115.22 188.991C114.895 189.108 114.622 189.264 114.388 189.459C114.154 189.667 113.972 189.914 113.829 190.187C113.686 190.46 113.621 190.759 113.621 191.071C113.621 191.344 113.647 191.578 113.699 191.76C113.738 191.955 113.816 192.124 113.92 192.267C114.024 192.41 114.154 192.553 114.323 192.67C114.479 192.8 114.674 192.93 114.895 193.073ZM116.312 189.537C116.949 189.537 117.417 189.667 117.716 189.914C118.015 190.174 118.171 190.538 118.171 191.006C118.171 191.331 118.132 191.617 118.041 191.838C117.95 192.059 117.82 192.254 117.664 192.397C117.508 192.54 117.326 192.644 117.105 192.709C116.884 192.774 116.65 192.813 116.403 192.813C116.156 192.813 115.909 192.774 115.675 192.709C115.441 192.644 115.233 192.553 115.051 192.423C114.869 192.293 114.726 192.124 114.622 191.916C114.505 191.721 114.453 191.474 114.453 191.188C114.453 190.915 114.505 190.681 114.596 190.473C114.687 190.265 114.83 190.096 114.999 189.953C115.168 189.81 115.363 189.706 115.584 189.641C115.805 189.576 116.052 189.537 116.312 189.537ZM116.351 193.515C116.65 193.515 116.936 193.554 117.209 193.632C117.482 193.71 117.716 193.827 117.911 193.983C118.106 194.152 118.262 194.347 118.379 194.581C118.496 194.828 118.548 195.101 118.548 195.426C118.548 195.725 118.496 196.011 118.392 196.258C118.275 196.505 118.132 196.726 117.937 196.908C117.742 197.09 117.508 197.233 117.248 197.324C116.988 197.428 116.702 197.48 116.403 197.48C116.052 197.48 115.74 197.428 115.467 197.324C115.181 197.22 114.947 197.077 114.752 196.895C114.557 196.726 114.401 196.518 114.297 196.271C114.18 196.024 114.128 195.764 114.128 195.478C114.128 195.14 114.18 194.841 114.297 194.594C114.414 194.347 114.57 194.152 114.765 193.983C114.96 193.827 115.194 193.71 115.467 193.632C115.74 193.554 116.026 193.515 116.351 193.515Z" fill="#818181"/>
<path d="M139.95 191.838H140.834C140.821 191.526 140.86 191.227 140.951 190.954C141.042 190.681 141.185 190.434 141.367 190.226C141.536 190.018 141.757 189.849 142.004 189.719C142.251 189.602 142.524 189.537 142.823 189.537C143.109 189.537 143.369 189.576 143.616 189.654C143.863 189.745 144.071 189.862 144.253 190.031C144.435 190.2 144.578 190.395 144.682 190.629C144.786 190.863 144.838 191.123 144.838 191.422C144.838 191.786 144.773 192.098 144.643 192.345C144.513 192.592 144.331 192.826 144.11 193.021C143.889 193.216 143.629 193.398 143.33 193.567C143.031 193.736 142.719 193.931 142.394 194.126C142.069 194.334 141.731 194.568 141.393 194.828C141.042 195.088 140.717 195.4 140.392 195.764C140.093 196.102 139.911 196.453 139.82 196.804C139.729 197.155 139.69 197.558 139.677 198H145.67V197.298H140.561C140.574 197.077 140.613 196.882 140.678 196.7C140.743 196.531 140.834 196.362 140.951 196.219C141.068 196.076 141.185 195.933 141.328 195.803L141.757 195.452C141.978 195.283 142.238 195.114 142.524 194.958C142.81 194.802 143.096 194.633 143.395 194.464C143.694 194.295 143.98 194.126 144.266 193.931C144.539 193.736 144.799 193.528 145.02 193.281C145.241 193.034 145.41 192.761 145.553 192.449C145.683 192.137 145.748 191.773 145.748 191.37C145.748 191.019 145.683 190.694 145.566 190.382C145.449 190.07 145.267 189.797 145.033 189.576C144.786 189.355 144.5 189.173 144.149 189.03C143.798 188.9 143.382 188.835 142.927 188.835C142.472 188.835 142.069 188.9 141.705 189.043C141.328 189.186 141.016 189.394 140.756 189.654C140.496 189.927 140.301 190.239 140.158 190.603C140.015 190.98 139.95 191.383 139.95 191.838ZM149.89 188.835C149.227 188.835 148.694 188.965 148.291 189.238C147.888 189.511 147.576 189.862 147.355 190.291C147.134 190.733 146.978 191.227 146.9 191.786C146.822 192.345 146.783 192.904 146.783 193.489C146.783 194.126 146.822 194.724 146.913 195.283C147.004 195.855 147.16 196.349 147.394 196.778C147.615 197.207 147.94 197.558 148.343 197.805C148.746 198.052 149.253 198.182 149.89 198.182C150.527 198.182 151.034 198.052 151.437 197.805C151.84 197.558 152.152 197.22 152.386 196.791C152.607 196.362 152.763 195.881 152.854 195.322C152.945 194.763 152.984 194.191 152.984 193.58C152.984 193.229 152.971 192.865 152.945 192.488C152.919 192.111 152.867 191.747 152.789 191.396C152.711 191.045 152.607 190.72 152.464 190.408C152.321 190.096 152.126 189.823 151.905 189.589C151.671 189.355 151.385 189.173 151.06 189.03C150.735 188.9 150.345 188.835 149.89 188.835ZM152.152 193.489C152.152 193.944 152.126 194.412 152.074 194.893C152.022 195.374 151.918 195.803 151.762 196.18C151.606 196.557 151.385 196.869 151.086 197.116C150.787 197.363 150.384 197.48 149.89 197.48C149.448 197.48 149.084 197.389 148.798 197.194C148.499 197.012 148.265 196.752 148.096 196.414C147.927 196.076 147.797 195.66 147.732 195.179C147.654 194.698 147.615 194.165 147.615 193.58C147.615 193.073 147.654 192.579 147.719 192.098C147.784 191.617 147.888 191.175 148.057 190.798C148.226 190.421 148.447 190.109 148.746 189.875C149.032 189.654 149.409 189.537 149.864 189.537C150.345 189.537 150.748 189.654 151.047 189.875C151.346 190.096 151.567 190.395 151.736 190.772C151.905 191.149 152.009 191.565 152.074 192.033C152.126 192.514 152.152 192.995 152.152 193.489ZM155.06 190.642V191.188H157.426V198H158.258V188.835H157.595C157.53 189.225 157.426 189.537 157.283 189.758C157.14 189.992 156.958 190.174 156.75 190.291C156.529 190.408 156.282 190.499 156.009 190.538C155.723 190.577 155.411 190.616 155.06 190.642ZM162.258 195.985H161.413C161.452 196.362 161.543 196.687 161.686 196.96C161.829 197.233 162.024 197.467 162.258 197.649C162.492 197.831 162.765 197.961 163.077 198.052C163.389 198.143 163.727 198.182 164.078 198.182C164.559 198.182 165.014 198.078 165.417 197.883C165.82 197.688 166.184 197.389 166.483 196.986C166.782 196.583 167.003 196.089 167.172 195.504C167.341 194.919 167.419 194.243 167.419 193.463C167.419 192.826 167.367 192.215 167.263 191.656C167.159 191.097 166.99 190.603 166.743 190.187C166.496 189.771 166.158 189.446 165.755 189.199C165.339 188.952 164.819 188.835 164.208 188.835C163.701 188.835 163.272 188.913 162.908 189.056C162.531 189.212 162.232 189.42 161.985 189.693C161.738 189.966 161.556 190.291 161.439 190.655C161.322 191.032 161.257 191.435 161.257 191.864C161.257 192.306 161.322 192.709 161.465 193.073C161.595 193.437 161.79 193.749 162.037 194.009C162.284 194.269 162.57 194.464 162.921 194.607C163.272 194.75 163.662 194.815 164.091 194.815C164.637 194.815 165.118 194.698 165.534 194.451C165.937 194.204 166.288 193.853 166.561 193.385L166.587 193.411C166.574 193.827 166.535 194.269 166.47 194.737C166.405 195.218 166.275 195.66 166.106 196.063C165.924 196.466 165.677 196.804 165.352 197.077C165.027 197.35 164.585 197.48 164.039 197.48C163.532 197.48 163.129 197.35 162.843 197.103C162.544 196.856 162.349 196.479 162.258 195.985ZM164.208 189.537C164.845 189.55 165.352 189.771 165.716 190.187C166.08 190.616 166.262 191.162 166.262 191.838C166.262 192.15 166.223 192.436 166.132 192.709C166.041 192.982 165.898 193.229 165.729 193.437C165.547 193.645 165.326 193.814 165.079 193.931C164.819 194.048 164.533 194.113 164.208 194.113C163.532 194.113 163.012 193.918 162.648 193.528C162.271 193.138 162.089 192.592 162.089 191.89C162.089 191.175 162.271 190.603 162.622 190.187C162.973 189.771 163.506 189.55 164.208 189.537Z" fill="#818181"/>
<path d="M187.95 191.838H188.834C188.821 191.526 188.86 191.227 188.951 190.954C189.042 190.681 189.185 190.434 189.367 190.226C189.536 190.018 189.757 189.849 190.004 189.719C190.251 189.602 190.524 189.537 190.823 189.537C191.109 189.537 191.369 189.576 191.616 189.654C191.863 189.745 192.071 189.862 192.253 190.031C192.435 190.2 192.578 190.395 192.682 190.629C192.786 190.863 192.838 191.123 192.838 191.422C192.838 191.786 192.773 192.098 192.643 192.345C192.513 192.592 192.331 192.826 192.11 193.021C191.889 193.216 191.629 193.398 191.33 193.567C191.031 193.736 190.719 193.931 190.394 194.126C190.069 194.334 189.731 194.568 189.393 194.828C189.042 195.088 188.717 195.4 188.392 195.764C188.093 196.102 187.911 196.453 187.82 196.804C187.729 197.155 187.69 197.558 187.677 198H193.67V197.298H188.561C188.574 197.077 188.613 196.882 188.678 196.7C188.743 196.531 188.834 196.362 188.951 196.219C189.068 196.076 189.185 195.933 189.328 195.803L189.757 195.452C189.978 195.283 190.238 195.114 190.524 194.958C190.81 194.802 191.096 194.633 191.395 194.464C191.694 194.295 191.98 194.126 192.266 193.931C192.539 193.736 192.799 193.528 193.02 193.281C193.241 193.034 193.41 192.761 193.553 192.449C193.683 192.137 193.748 191.773 193.748 191.37C193.748 191.019 193.683 190.694 193.566 190.382C193.449 190.07 193.267 189.797 193.033 189.576C192.786 189.355 192.5 189.173 192.149 189.03C191.798 188.9 191.382 188.835 190.927 188.835C190.472 188.835 190.069 188.9 189.705 189.043C189.328 189.186 189.016 189.394 188.756 189.654C188.496 189.927 188.301 190.239 188.158 190.603C188.015 190.98 187.95 191.383 187.95 191.838ZM197.89 188.835C197.227 188.835 196.694 188.965 196.291 189.238C195.888 189.511 195.576 189.862 195.355 190.291C195.134 190.733 194.978 191.227 194.9 191.786C194.822 192.345 194.783 192.904 194.783 193.489C194.783 194.126 194.822 194.724 194.913 195.283C195.004 195.855 195.16 196.349 195.394 196.778C195.615 197.207 195.94 197.558 196.343 197.805C196.746 198.052 197.253 198.182 197.89 198.182C198.527 198.182 199.034 198.052 199.437 197.805C199.84 197.558 200.152 197.22 200.386 196.791C200.607 196.362 200.763 195.881 200.854 195.322C200.945 194.763 200.984 194.191 200.984 193.58C200.984 193.229 200.971 192.865 200.945 192.488C200.919 192.111 200.867 191.747 200.789 191.396C200.711 191.045 200.607 190.72 200.464 190.408C200.321 190.096 200.126 189.823 199.905 189.589C199.671 189.355 199.385 189.173 199.06 189.03C198.735 188.9 198.345 188.835 197.89 188.835ZM200.152 193.489C200.152 193.944 200.126 194.412 200.074 194.893C200.022 195.374 199.918 195.803 199.762 196.18C199.606 196.557 199.385 196.869 199.086 197.116C198.787 197.363 198.384 197.48 197.89 197.48C197.448 197.48 197.084 197.389 196.798 197.194C196.499 197.012 196.265 196.752 196.096 196.414C195.927 196.076 195.797 195.66 195.732 195.179C195.654 194.698 195.615 194.165 195.615 193.58C195.615 193.073 195.654 192.579 195.719 192.098C195.784 191.617 195.888 191.175 196.057 190.798C196.226 190.421 196.447 190.109 196.746 189.875C197.032 189.654 197.409 189.537 197.864 189.537C198.345 189.537 198.748 189.654 199.047 189.875C199.346 190.096 199.567 190.395 199.736 190.772C199.905 191.149 200.009 191.565 200.074 192.033C200.126 192.514 200.152 192.995 200.152 193.489ZM202.397 191.838H203.281C203.268 191.526 203.307 191.227 203.398 190.954C203.489 190.681 203.632 190.434 203.814 190.226C203.983 190.018 204.204 189.849 204.451 189.719C204.698 189.602 204.971 189.537 205.27 189.537C205.556 189.537 205.816 189.576 206.063 189.654C206.31 189.745 206.518 189.862 206.7 190.031C206.882 190.2 207.025 190.395 207.129 190.629C207.233 190.863 207.285 191.123 207.285 191.422C207.285 191.786 207.22 192.098 207.09 192.345C206.96 192.592 206.778 192.826 206.557 193.021C206.336 193.216 206.076 193.398 205.777 193.567C205.478 193.736 205.166 193.931 204.841 194.126C204.516 194.334 204.178 194.568 203.84 194.828C203.489 195.088 203.164 195.4 202.839 195.764C202.54 196.102 202.358 196.453 202.267 196.804C202.176 197.155 202.137 197.558 202.124 198H208.117V197.298H203.008C203.021 197.077 203.06 196.882 203.125 196.7C203.19 196.531 203.281 196.362 203.398 196.219C203.515 196.076 203.632 195.933 203.775 195.803L204.204 195.452C204.425 195.283 204.685 195.114 204.971 194.958C205.257 194.802 205.543 194.633 205.842 194.464C206.141 194.295 206.427 194.126 206.713 193.931C206.986 193.736 207.246 193.528 207.467 193.281C207.688 193.034 207.857 192.761 208 192.449C208.13 192.137 208.195 191.773 208.195 191.37C208.195 191.019 208.13 190.694 208.013 190.382C207.896 190.07 207.714 189.797 207.48 189.576C207.233 189.355 206.947 189.173 206.596 189.03C206.245 188.9 205.829 188.835 205.374 188.835C204.919 188.835 204.516 188.9 204.152 189.043C203.775 189.186 203.463 189.394 203.203 189.654C202.943 189.927 202.748 190.239 202.605 190.603C202.462 190.98 202.397 191.383 202.397 191.838ZM212.338 188.835C211.675 188.835 211.142 188.965 210.739 189.238C210.336 189.511 210.024 189.862 209.803 190.291C209.582 190.733 209.426 191.227 209.348 191.786C209.27 192.345 209.231 192.904 209.231 193.489C209.231 194.126 209.27 194.724 209.361 195.283C209.452 195.855 209.608 196.349 209.842 196.778C210.063 197.207 210.388 197.558 210.791 197.805C211.194 198.052 211.701 198.182 212.338 198.182C212.975 198.182 213.482 198.052 213.885 197.805C214.288 197.558 214.6 197.22 214.834 196.791C215.055 196.362 215.211 195.881 215.302 195.322C215.393 194.763 215.432 194.191 215.432 193.58C215.432 193.229 215.419 192.865 215.393 192.488C215.367 192.111 215.315 191.747 215.237 191.396C215.159 191.045 215.055 190.72 214.912 190.408C214.769 190.096 214.574 189.823 214.353 189.589C214.119 189.355 213.833 189.173 213.508 189.03C213.183 188.9 212.793 188.835 212.338 188.835ZM214.6 193.489C214.6 193.944 214.574 194.412 214.522 194.893C214.47 195.374 214.366 195.803 214.21 196.18C214.054 196.557 213.833 196.869 213.534 197.116C213.235 197.363 212.832 197.48 212.338 197.48C211.896 197.48 211.532 197.389 211.246 197.194C210.947 197.012 210.713 196.752 210.544 196.414C210.375 196.076 210.245 195.66 210.18 195.179C210.102 194.698 210.063 194.165 210.063 193.58C210.063 193.073 210.102 192.579 210.167 192.098C210.232 191.617 210.336 191.175 210.505 190.798C210.674 190.421 210.895 190.109 211.194 189.875C211.48 189.654 211.857 189.537 212.312 189.537C212.793 189.537 213.196 189.654 213.495 189.875C213.794 190.096 214.015 190.395 214.184 190.772C214.353 191.149 214.457 191.565 214.522 192.033C214.574 192.514 214.6 192.995 214.6 193.489Z" fill="#818181"/>
<path d="M235.95 191.838H236.834C236.821 191.526 236.86 191.227 236.951 190.954C237.042 190.681 237.185 190.434 237.367 190.226C237.536 190.018 237.757 189.849 238.004 189.719C238.251 189.602 238.524 189.537 238.823 189.537C239.109 189.537 239.369 189.576 239.616 189.654C239.863 189.745 240.071 189.862 240.253 190.031C240.435 190.2 240.578 190.395 240.682 190.629C240.786 190.863 240.838 191.123 240.838 191.422C240.838 191.786 240.773 192.098 240.643 192.345C240.513 192.592 240.331 192.826 240.11 193.021C239.889 193.216 239.629 193.398 239.33 193.567C239.031 193.736 238.719 193.931 238.394 194.126C238.069 194.334 237.731 194.568 237.393 194.828C237.042 195.088 236.717 195.4 236.392 195.764C236.093 196.102 235.911 196.453 235.82 196.804C235.729 197.155 235.69 197.558 235.677 198H241.67V197.298H236.561C236.574 197.077 236.613 196.882 236.678 196.7C236.743 196.531 236.834 196.362 236.951 196.219C237.068 196.076 237.185 195.933 237.328 195.803L237.757 195.452C237.978 195.283 238.238 195.114 238.524 194.958C238.81 194.802 239.096 194.633 239.395 194.464C239.694 194.295 239.98 194.126 240.266 193.931C240.539 193.736 240.799 193.528 241.02 193.281C241.241 193.034 241.41 192.761 241.553 192.449C241.683 192.137 241.748 191.773 241.748 191.37C241.748 191.019 241.683 190.694 241.566 190.382C241.449 190.07 241.267 189.797 241.033 189.576C240.786 189.355 240.5 189.173 240.149 189.03C239.798 188.9 239.382 188.835 238.927 188.835C238.472 188.835 238.069 188.9 237.705 189.043C237.328 189.186 237.016 189.394 236.756 189.654C236.496 189.927 236.301 190.239 236.158 190.603C236.015 190.98 235.95 191.383 235.95 191.838ZM245.89 188.835C245.227 188.835 244.694 188.965 244.291 189.238C243.888 189.511 243.576 189.862 243.355 190.291C243.134 190.733 242.978 191.227 242.9 191.786C242.822 192.345 242.783 192.904 242.783 193.489C242.783 194.126 242.822 194.724 242.913 195.283C243.004 195.855 243.16 196.349 243.394 196.778C243.615 197.207 243.94 197.558 244.343 197.805C244.746 198.052 245.253 198.182 245.89 198.182C246.527 198.182 247.034 198.052 247.437 197.805C247.84 197.558 248.152 197.22 248.386 196.791C248.607 196.362 248.763 195.881 248.854 195.322C248.945 194.763 248.984 194.191 248.984 193.58C248.984 193.229 248.971 192.865 248.945 192.488C248.919 192.111 248.867 191.747 248.789 191.396C248.711 191.045 248.607 190.72 248.464 190.408C248.321 190.096 248.126 189.823 247.905 189.589C247.671 189.355 247.385 189.173 247.06 189.03C246.735 188.9 246.345 188.835 245.89 188.835ZM248.152 193.489C248.152 193.944 248.126 194.412 248.074 194.893C248.022 195.374 247.918 195.803 247.762 196.18C247.606 196.557 247.385 196.869 247.086 197.116C246.787 197.363 246.384 197.48 245.89 197.48C245.448 197.48 245.084 197.389 244.798 197.194C244.499 197.012 244.265 196.752 244.096 196.414C243.927 196.076 243.797 195.66 243.732 195.179C243.654 194.698 243.615 194.165 243.615 193.58C243.615 193.073 243.654 192.579 243.719 192.098C243.784 191.617 243.888 191.175 244.057 190.798C244.226 190.421 244.447 190.109 244.746 189.875C245.032 189.654 245.409 189.537 245.864 189.537C246.345 189.537 246.748 189.654 247.047 189.875C247.346 190.096 247.567 190.395 247.736 190.772C247.905 191.149 248.009 191.565 248.074 192.033C248.126 192.514 248.152 192.995 248.152 193.489ZM250.397 191.838H251.281C251.268 191.526 251.307 191.227 251.398 190.954C251.489 190.681 251.632 190.434 251.814 190.226C251.983 190.018 252.204 189.849 252.451 189.719C252.698 189.602 252.971 189.537 253.27 189.537C253.556 189.537 253.816 189.576 254.063 189.654C254.31 189.745 254.518 189.862 254.7 190.031C254.882 190.2 255.025 190.395 255.129 190.629C255.233 190.863 255.285 191.123 255.285 191.422C255.285 191.786 255.22 192.098 255.09 192.345C254.96 192.592 254.778 192.826 254.557 193.021C254.336 193.216 254.076 193.398 253.777 193.567C253.478 193.736 253.166 193.931 252.841 194.126C252.516 194.334 252.178 194.568 251.84 194.828C251.489 195.088 251.164 195.4 250.839 195.764C250.54 196.102 250.358 196.453 250.267 196.804C250.176 197.155 250.137 197.558 250.124 198H256.117V197.298H251.008C251.021 197.077 251.06 196.882 251.125 196.7C251.19 196.531 251.281 196.362 251.398 196.219C251.515 196.076 251.632 195.933 251.775 195.803L252.204 195.452C252.425 195.283 252.685 195.114 252.971 194.958C253.257 194.802 253.543 194.633 253.842 194.464C254.141 194.295 254.427 194.126 254.713 193.931C254.986 193.736 255.246 193.528 255.467 193.281C255.688 193.034 255.857 192.761 256 192.449C256.13 192.137 256.195 191.773 256.195 191.37C256.195 191.019 256.13 190.694 256.013 190.382C255.896 190.07 255.714 189.797 255.48 189.576C255.233 189.355 254.947 189.173 254.596 189.03C254.245 188.9 253.829 188.835 253.374 188.835C252.919 188.835 252.516 188.9 252.152 189.043C251.775 189.186 251.463 189.394 251.203 189.654C250.943 189.927 250.748 190.239 250.605 190.603C250.462 190.98 250.397 191.383 250.397 191.838ZM258.284 190.642V191.188H260.65V198H261.482V188.835H260.819C260.754 189.225 260.65 189.537 260.507 189.758C260.364 189.992 260.182 190.174 259.974 190.291C259.753 190.408 259.506 190.499 259.233 190.538C258.947 190.577 258.635 190.616 258.284 190.642Z" fill="#818181"/>
<path d="M283.95 191.838H284.834C284.821 191.526 284.86 191.227 284.951 190.954C285.042 190.681 285.185 190.434 285.367 190.226C285.536 190.018 285.757 189.849 286.004 189.719C286.251 189.602 286.524 189.537 286.823 189.537C287.109 189.537 287.369 189.576 287.616 189.654C287.863 189.745 288.071 189.862 288.253 190.031C288.435 190.2 288.578 190.395 288.682 190.629C288.786 190.863 288.838 191.123 288.838 191.422C288.838 191.786 288.773 192.098 288.643 192.345C288.513 192.592 288.331 192.826 288.11 193.021C287.889 193.216 287.629 193.398 287.33 193.567C287.031 193.736 286.719 193.931 286.394 194.126C286.069 194.334 285.731 194.568 285.393 194.828C285.042 195.088 284.717 195.4 284.392 195.764C284.093 196.102 283.911 196.453 283.82 196.804C283.729 197.155 283.69 197.558 283.677 198H289.67V197.298H284.561C284.574 197.077 284.613 196.882 284.678 196.7C284.743 196.531 284.834 196.362 284.951 196.219C285.068 196.076 285.185 195.933 285.328 195.803L285.757 195.452C285.978 195.283 286.238 195.114 286.524 194.958C286.81 194.802 287.096 194.633 287.395 194.464C287.694 194.295 287.98 194.126 288.266 193.931C288.539 193.736 288.799 193.528 289.02 193.281C289.241 193.034 289.41 192.761 289.553 192.449C289.683 192.137 289.748 191.773 289.748 191.37C289.748 191.019 289.683 190.694 289.566 190.382C289.449 190.07 289.267 189.797 289.033 189.576C288.786 189.355 288.5 189.173 288.149 189.03C287.798 188.9 287.382 188.835 286.927 188.835C286.472 188.835 286.069 188.9 285.705 189.043C285.328 189.186 285.016 189.394 284.756 189.654C284.496 189.927 284.301 190.239 284.158 190.603C284.015 190.98 283.95 191.383 283.95 191.838ZM293.89 188.835C293.227 188.835 292.694 188.965 292.291 189.238C291.888 189.511 291.576 189.862 291.355 190.291C291.134 190.733 290.978 191.227 290.9 191.786C290.822 192.345 290.783 192.904 290.783 193.489C290.783 194.126 290.822 194.724 290.913 195.283C291.004 195.855 291.16 196.349 291.394 196.778C291.615 197.207 291.94 197.558 292.343 197.805C292.746 198.052 293.253 198.182 293.89 198.182C294.527 198.182 295.034 198.052 295.437 197.805C295.84 197.558 296.152 197.22 296.386 196.791C296.607 196.362 296.763 195.881 296.854 195.322C296.945 194.763 296.984 194.191 296.984 193.58C296.984 193.229 296.971 192.865 296.945 192.488C296.919 192.111 296.867 191.747 296.789 191.396C296.711 191.045 296.607 190.72 296.464 190.408C296.321 190.096 296.126 189.823 295.905 189.589C295.671 189.355 295.385 189.173 295.06 189.03C294.735 188.9 294.345 188.835 293.89 188.835ZM296.152 193.489C296.152 193.944 296.126 194.412 296.074 194.893C296.022 195.374 295.918 195.803 295.762 196.18C295.606 196.557 295.385 196.869 295.086 197.116C294.787 197.363 294.384 197.48 293.89 197.48C293.448 197.48 293.084 197.389 292.798 197.194C292.499 197.012 292.265 196.752 292.096 196.414C291.927 196.076 291.797 195.66 291.732 195.179C291.654 194.698 291.615 194.165 291.615 193.58C291.615 193.073 291.654 192.579 291.719 192.098C291.784 191.617 291.888 191.175 292.057 190.798C292.226 190.421 292.447 190.109 292.746 189.875C293.032 189.654 293.409 189.537 293.864 189.537C294.345 189.537 294.748 189.654 295.047 189.875C295.346 190.096 295.567 190.395 295.736 190.772C295.905 191.149 296.009 191.565 296.074 192.033C296.126 192.514 296.152 192.995 296.152 193.489ZM298.397 191.838H299.281C299.268 191.526 299.307 191.227 299.398 190.954C299.489 190.681 299.632 190.434 299.814 190.226C299.983 190.018 300.204 189.849 300.451 189.719C300.698 189.602 300.971 189.537 301.27 189.537C301.556 189.537 301.816 189.576 302.063 189.654C302.31 189.745 302.518 189.862 302.7 190.031C302.882 190.2 303.025 190.395 303.129 190.629C303.233 190.863 303.285 191.123 303.285 191.422C303.285 191.786 303.22 192.098 303.09 192.345C302.96 192.592 302.778 192.826 302.557 193.021C302.336 193.216 302.076 193.398 301.777 193.567C301.478 193.736 301.166 193.931 300.841 194.126C300.516 194.334 300.178 194.568 299.84 194.828C299.489 195.088 299.164 195.4 298.839 195.764C298.54 196.102 298.358 196.453 298.267 196.804C298.176 197.155 298.137 197.558 298.124 198H304.117V197.298H299.008C299.021 197.077 299.06 196.882 299.125 196.7C299.19 196.531 299.281 196.362 299.398 196.219C299.515 196.076 299.632 195.933 299.775 195.803L300.204 195.452C300.425 195.283 300.685 195.114 300.971 194.958C301.257 194.802 301.543 194.633 301.842 194.464C302.141 194.295 302.427 194.126 302.713 193.931C302.986 193.736 303.246 193.528 303.467 193.281C303.688 193.034 303.857 192.761 304 192.449C304.13 192.137 304.195 191.773 304.195 191.37C304.195 191.019 304.13 190.694 304.013 190.382C303.896 190.07 303.714 189.797 303.48 189.576C303.233 189.355 302.947 189.173 302.596 189.03C302.245 188.9 301.829 188.835 301.374 188.835C300.919 188.835 300.516 188.9 300.152 189.043C299.775 189.186 299.463 189.394 299.203 189.654C298.943 189.927 298.748 190.239 298.605 190.603C298.462 190.98 298.397 191.383 298.397 191.838ZM305.621 191.838H306.505C306.492 191.526 306.531 191.227 306.622 190.954C306.713 190.681 306.856 190.434 307.038 190.226C307.207 190.018 307.428 189.849 307.675 189.719C307.922 189.602 308.195 189.537 308.494 189.537C308.78 189.537 309.04 189.576 309.287 189.654C309.534 189.745 309.742 189.862 309.924 190.031C310.106 190.2 310.249 190.395 310.353 190.629C310.457 190.863 310.509 191.123 310.509 191.422C310.509 191.786 310.444 192.098 310.314 192.345C310.184 192.592 310.002 192.826 309.781 193.021C309.56 193.216 309.3 193.398 309.001 193.567C308.702 193.736 308.39 193.931 308.065 194.126C307.74 194.334 307.402 194.568 307.064 194.828C306.713 195.088 306.388 195.4 306.063 195.764C305.764 196.102 305.582 196.453 305.491 196.804C305.4 197.155 305.361 197.558 305.348 198H311.341V197.298H306.232C306.245 197.077 306.284 196.882 306.349 196.7C306.414 196.531 306.505 196.362 306.622 196.219C306.739 196.076 306.856 195.933 306.999 195.803L307.428 195.452C307.649 195.283 307.909 195.114 308.195 194.958C308.481 194.802 308.767 194.633 309.066 194.464C309.365 194.295 309.651 194.126 309.937 193.931C310.21 193.736 310.47 193.528 310.691 193.281C310.912 193.034 311.081 192.761 311.224 192.449C311.354 192.137 311.419 191.773 311.419 191.37C311.419 191.019 311.354 190.694 311.237 190.382C311.12 190.07 310.938 189.797 310.704 189.576C310.457 189.355 310.171 189.173 309.82 189.03C309.469 188.9 309.053 188.835 308.598 188.835C308.143 188.835 307.74 188.9 307.376 189.043C306.999 189.186 306.687 189.394 306.427 189.654C306.167 189.927 305.972 190.239 305.829 190.603C305.686 190.98 305.621 191.383 305.621 191.838Z" fill="#818181"/>
<path d="M4.39037 167.835C3.72737 167.835 3.19437 167.965 2.79137 168.238C2.38837 168.511 2.07637 168.862 1.85537 169.291C1.63437 169.733 1.47837 170.227 1.40037 170.786C1.32237 171.345 1.28337 171.904 1.28337 172.489C1.28337 173.126 1.32237 173.724 1.41337 174.283C1.50437 174.855 1.66037 175.349 1.89437 175.778C2.11537 176.207 2.44037 176.558 2.84337 176.805C3.24637 177.052 3.75337 177.182 4.39037 177.182C5.02737 177.182 5.53437 177.052 5.93737 176.805C6.34037 176.558 6.65237 176.22 6.88637 175.791C7.10737 175.362 7.26337 174.881 7.35437 174.322C7.44537 173.763 7.48437 173.191 7.48437 172.58C7.48437 172.229 7.47137 171.865 7.44537 171.488C7.41937 171.111 7.36737 170.747 7.28937 170.396C7.21137 170.045 7.10737 169.72 6.96437 169.408C6.82137 169.096 6.62637 168.823 6.40537 168.589C6.17137 168.355 5.88537 168.173 5.56037 168.03C5.23537 167.9 4.84537 167.835 4.39037 167.835ZM6.65237 172.489C6.65237 172.944 6.62637 173.412 6.57437 173.893C6.52237 174.374 6.41837 174.803 6.26237 175.18C6.10637 175.557 5.88537 175.869 5.58637 176.116C5.28737 176.363 4.88437 176.48 4.39037 176.48C3.94837 176.48 3.58437 176.389 3.29837 176.194C2.99937 176.012 2.76537 175.752 2.59637 175.414C2.42737 175.076 2.29737 174.66 2.23237 174.179C2.15437 173.698 2.11537 173.165 2.11537 172.58C2.11537 172.073 2.15437 171.579 2.21937 171.098C2.28437 170.617 2.38837 170.175 2.55737 169.798C2.72637 169.421 2.94737 169.109 3.24637 168.875C3.53237 168.654 3.90937 168.537 4.36437 168.537C4.84537 168.537 5.24837 168.654 5.54737 168.875C5.84637 169.096 6.06737 169.395 6.23637 169.772C6.40537 170.149 6.50937 170.565 6.57437 171.033C6.62637 171.514 6.65237 171.995 6.65237 172.489Z" fill="#818181"/>
<path d="M1.67337 111.838H2.55737C2.54437 111.526 2.58337 111.227 2.67437 110.954C2.76537 110.681 2.90837 110.434 3.09037 110.226C3.25937 110.018 3.48037 109.849 3.72737 109.719C3.97437 109.602 4.24737 109.537 4.54637 109.537C4.83237 109.537 5.09237 109.576 5.33937 109.654C5.58637 109.745 5.79437 109.862 5.97637 110.031C6.15837 110.2 6.30137 110.395 6.40537 110.629C6.50937 110.863 6.56137 111.123 6.56137 111.422C6.56137 111.786 6.49637 112.098 6.36637 112.345C6.23637 112.592 6.05437 112.826 5.83337 113.021C5.61237 113.216 5.35237 113.398 5.05337 113.567C4.75437 113.736 4.44237 113.931 4.11737 114.126C3.79237 114.334 3.45437 114.568 3.11637 114.828C2.76537 115.088 2.44037 115.4 2.11537 115.764C1.81637 116.102 1.63437 116.453 1.54337 116.804C1.45237 117.155 1.41337 117.558 1.40037 118H7.39337V117.298H2.28437C2.29737 117.077 2.33637 116.882 2.40137 116.7C2.46637 116.531 2.55737 116.362 2.67437 116.219C2.79137 116.076 2.90837 115.933 3.05137 115.803L3.48037 115.452C3.70137 115.283 3.96137 115.114 4.24737 114.958C4.53337 114.802 4.81937 114.633 5.11837 114.464C5.41737 114.295 5.70337 114.126 5.98937 113.931C6.26237 113.736 6.52237 113.528 6.74337 113.281C6.96437 113.034 7.13337 112.761 7.27637 112.449C7.40637 112.137 7.47137 111.773 7.47137 111.37C7.47137 111.019 7.40637 110.694 7.28937 110.382C7.17237 110.07 6.99037 109.797 6.75637 109.576C6.50937 109.355 6.22337 109.173 5.87237 109.03C5.52137 108.9 5.10537 108.835 4.65037 108.835C4.19537 108.835 3.79237 108.9 3.42837 109.043C3.05137 109.186 2.73937 109.394 2.47937 109.654C2.21937 109.927 2.02437 110.239 1.88137 110.603C1.73837 110.98 1.67337 111.383 1.67337 111.838Z" fill="#818181"/>
<path d="M1.24437 55.023V55.738H5.43037V58H6.26237V55.738H7.53637V55.036H6.26237V48.926H5.50837L1.24437 55.023ZM5.43037 50.174V55.036H2.06337L5.43037 50.174Z" fill="#818181"/>
<path d="M5.008 17.192C4.12267 17.192 3.264 17.0747 2.432 16.84C1.61067 16.5947 0.949333 16.28 0.448 15.896L1.328 13.944C1.808 14.296 2.37867 14.5787 3.04 14.792C3.70133 15.0053 4.36267 15.112 5.024 15.112C5.76 15.112 6.304 15.0053 6.656 14.792C7.008 14.568 7.184 14.2747 7.184 13.912C7.184 13.6453 7.07733 13.4267 6.864 13.256C6.66133 13.0747 6.39467 12.9307 6.064 12.824C5.744 12.7173 5.30667 12.6 4.752 12.472C3.89867 12.2693 3.2 12.0667 2.656 11.864C2.112 11.6613 1.64267 11.336 1.248 10.888C0.864 10.44 0.672 9.84267 0.672 9.096C0.672 8.44533 0.848 7.85867 1.2 7.336C1.552 6.80267 2.08 6.38133 2.784 6.072C3.49867 5.76267 4.368 5.608 5.392 5.608C6.10667 5.608 6.80533 5.69333 7.488 5.864C8.17067 6.03467 8.768 6.28 9.28 6.6L8.48 8.568C7.44533 7.98133 6.41067 7.688 5.376 7.688C4.65067 7.688 4.112 7.80533 3.76 8.04C3.41867 8.27467 3.248 8.584 3.248 8.968C3.248 9.352 3.44533 9.64 3.84 9.832C4.24533 10.0133 4.85867 10.1947 5.68 10.376C6.53333 10.5787 7.232 10.7813 7.776 10.984C8.32 11.1867 8.784 11.5067 9.168 11.944C9.56267 12.3813 9.76 12.9733 9.76 13.72C9.76 14.36 9.57867 14.9467 9.216 15.48C8.864 16.0027 8.33067 16.4187 7.616 16.728C6.90133 17.0373 6.032 17.192 5.008 17.192ZM15.5151 17.128C14.5978 17.128 13.7711 16.9413 13.0351 16.568C12.3098 16.184 11.7391 15.656 11.3231 14.984C10.9178 14.312 10.7151 13.5493 10.7151 12.696C10.7151 11.8427 10.9178 11.08 11.3231 10.408C11.7391 9.736 12.3098 9.21333 13.0351 8.84C13.7711 8.456 14.5978 8.264 15.5151 8.264C16.4218 8.264 17.2111 8.456 17.8831 8.84C18.5658 9.21333 19.0618 9.752 19.3711 10.456L17.4351 11.496C16.9871 10.7067 16.3418 10.312 15.4991 10.312C14.8485 10.312 14.3098 10.5253 13.8831 10.952C13.4565 11.3787 13.2431 11.96 13.2431 12.696C13.2431 13.432 13.4565 14.0133 13.8831 14.44C14.3098 14.8667 14.8485 15.08 15.4991 15.08C16.3525 15.08 16.9978 14.6853 17.4351 13.896L19.3711 14.952C19.0618 15.6347 18.5658 16.168 17.8831 16.552C17.2111 16.936 16.4218 17.128 15.5151 17.128ZM20.8083 8.392H23.3043V17H20.8083V8.392ZM22.0563 7.192C21.5976 7.192 21.2243 7.05867 20.9363 6.792C20.6483 6.52533 20.5043 6.19467 20.5043 5.8C20.5043 5.40533 20.6483 5.07467 20.9363 4.808C21.2243 4.54133 21.5976 4.408 22.0563 4.408C22.5149 4.408 22.8883 4.536 23.1763 4.792C23.4643 5.048 23.6083 5.368 23.6083 5.752C23.6083 6.168 23.4643 6.51467 23.1763 6.792C22.8883 7.05867 22.5149 7.192 22.0563 7.192ZM34.0528 12.728C34.0528 12.76 34.0368 12.984 34.0048 13.4H27.4928C27.6101 13.9333 27.8874 14.3547 28.3248 14.664C28.7621 14.9733 29.3061 15.128 29.9568 15.128C30.4048 15.128 30.7994 15.064 31.1408 14.936C31.4928 14.7973 31.8181 14.584 32.1168 14.296L33.4448 15.736C32.6341 16.664 31.4501 17.128 29.8928 17.128C28.9221 17.128 28.0634 16.9413 27.3168 16.568C26.5701 16.184 25.9941 15.656 25.5888 14.984C25.1834 14.312 24.9808 13.5493 24.9808 12.696C24.9808 11.8533 25.1781 11.096 25.5728 10.424C25.9781 9.74133 26.5274 9.21333 27.2208 8.84C27.9248 8.456 28.7088 8.264 29.5728 8.264C30.4154 8.264 31.1781 8.44533 31.8608 8.808C32.5434 9.17067 33.0768 9.69333 33.4608 10.376C33.8554 11.048 34.0528 11.832 34.0528 12.728ZM29.5888 10.152C29.0234 10.152 28.5488 10.312 28.1648 10.632C27.7808 10.952 27.5461 11.3893 27.4608 11.944H31.7008C31.6154 11.4 31.3808 10.968 30.9968 10.648C30.6128 10.3173 30.1434 10.152 29.5888 10.152ZM40.9465 8.264C42.0132 8.264 42.8718 8.584 43.5225 9.224C44.1838 9.864 44.5145 10.8133 44.5145 12.072V17H42.0185V12.456C42.0185 11.7733 41.8692 11.2667 41.5705 10.936C41.2718 10.5947 40.8398 10.424 40.2745 10.424C39.6452 10.424 39.1438 10.6213 38.7705 11.016C38.3972 11.4 38.2105 11.976 38.2105 12.744V17H35.7145V8.392H38.0985V9.4C38.4292 9.03733 38.8398 8.76 39.3305 8.568C39.8212 8.36533 40.3598 8.264 40.9465 8.264ZM52.329 16.584C52.0837 16.7653 51.7797 16.904 51.417 17C51.065 17.0853 50.6917 17.128 50.297 17.128C49.273 17.128 48.4783 16.8667 47.913 16.344C47.3583 15.8213 47.081 15.0533 47.081 14.04V10.504H45.753V8.584H47.081V6.488H49.577V8.584H51.721V10.504H49.577V14.008C49.577 14.3707 49.6677 14.6533 49.849 14.856C50.041 15.048 50.3077 15.144 50.649 15.144C51.0437 15.144 51.3797 15.0373 51.657 14.824L52.329 16.584ZM53.7301 8.392H56.2261V17H53.7301V8.392ZM54.9781 7.192C54.5195 7.192 54.1461 7.05867 53.8581 6.792C53.5701 6.52533 53.4261 6.19467 53.4261 5.8C53.4261 5.40533 53.5701 5.07467 53.8581 4.808C54.1461 4.54133 54.5195 4.408 54.9781 4.408C55.4368 4.408 55.8101 4.536 56.0981 4.792C56.3861 5.048 56.5301 5.368 56.5301 5.752C56.5301 6.168 56.3861 6.51467 56.0981 6.792C55.8101 7.05867 55.4368 7.192 54.9781 7.192ZM61.2786 8.584H63.4866V10.504H61.3426V17H58.8466V10.504H57.5186V8.584H58.8466V8.2C58.8466 7.21867 59.1346 6.44 59.7106 5.864C60.2973 5.288 61.1186 5 62.1746 5C62.548 5 62.9 5.04267 63.2306 5.128C63.572 5.20267 63.8546 5.31467 64.0786 5.464L63.4226 7.272C63.1346 7.06933 62.7986 6.968 62.4146 6.968C61.6573 6.968 61.2786 7.384 61.2786 8.216V8.584ZM66.0146 8.392H68.5106V17H66.0146V8.392ZM67.2626 7.192C66.804 7.192 66.4306 7.05867 66.1426 6.792C65.8546 6.52533 65.7106 6.19467 65.7106 5.8C65.7106 5.40533 65.8546 5.07467 66.1426 4.808C66.4306 4.54133 66.804 4.408 67.2626 4.408C67.7213 4.408 68.0946 4.536 68.3826 4.792C68.6706 5.048 68.8146 5.368 68.8146 5.752C68.8146 6.168 68.6706 6.51467 68.3826 6.792C68.0946 7.05867 67.7213 7.192 67.2626 7.192ZM74.9839 17.128C74.0665 17.128 73.2399 16.9413 72.5039 16.568C71.7785 16.184 71.2079 15.656 70.7919 14.984C70.3865 14.312 70.1839 13.5493 70.1839 12.696C70.1839 11.8427 70.3865 11.08 70.7919 10.408C71.2079 9.736 71.7785 9.21333 72.5039 8.84C73.2399 8.456 74.0665 8.264 74.9839 8.264C75.8905 8.264 76.6799 8.456 77.3519 8.84C78.0345 9.21333 78.5305 9.752 78.8399 10.456L76.9039 11.496C76.4559 10.7067 75.8105 10.312 74.9679 10.312C74.3172 10.312 73.7785 10.5253 73.3519 10.952C72.9252 11.3787 72.7119 11.96 72.7119 12.696C72.7119 13.432 72.9252 14.0133 73.3519 14.44C73.7785 14.8667 74.3172 15.08 74.9679 15.08C75.8212 15.08 76.4665 14.6853 76.9039 13.896L78.8399 14.952C78.5305 15.6347 78.0345 16.168 77.3519 16.552C76.6799 16.936 75.8905 17.128 74.9839 17.128ZM87.0483 17.192C86.2909 17.192 85.5923 17.0533 84.9523 16.776C84.3229 16.488 83.8056 16.0827 83.4002 15.56L84.8403 13.832C85.4483 14.6533 86.1416 15.064 86.9203 15.064C87.9763 15.064 88.5043 14.4453 88.5043 13.208V7.88H84.5683V5.8H91.0803V13.064C91.0803 14.44 90.7389 15.4747 90.0563 16.168C89.3736 16.8507 88.3709 17.192 87.0483 17.192ZM97.5605 17.128C96.6538 17.128 95.8378 16.9413 95.1125 16.568C94.3978 16.184 93.8378 15.656 93.4325 14.984C93.0272 14.312 92.8245 13.5493 92.8245 12.696C92.8245 11.8427 93.0272 11.08 93.4325 10.408C93.8378 9.736 94.3978 9.21333 95.1125 8.84C95.8378 8.456 96.6538 8.264 97.5605 8.264C98.4672 8.264 99.2778 8.456 99.9925 8.84C100.707 9.21333 101.267 9.736 101.673 10.408C102.078 11.08 102.281 11.8427 102.281 12.696C102.281 13.5493 102.078 14.312 101.673 14.984C101.267 15.656 100.707 16.184 99.9925 16.568C99.2778 16.9413 98.4672 17.128 97.5605 17.128ZM97.5605 15.08C98.2005 15.08 98.7232 14.8667 99.1285 14.44C99.5445 14.0027 99.7525 13.4213 99.7525 12.696C99.7525 11.9707 99.5445 11.3947 99.1285 10.968C98.7232 10.5307 98.2005 10.312 97.5605 10.312C96.9205 10.312 96.3925 10.5307 95.9765 10.968C95.5605 11.3947 95.3525 11.9707 95.3525 12.696C95.3525 13.4213 95.5605 14.0027 95.9765 14.44C96.3925 14.8667 96.9205 15.08 97.5605 15.08ZM112.621 8.392V17H110.253V15.976C109.922 16.3493 109.528 16.6373 109.069 16.84C108.61 17.032 108.114 17.128 107.581 17.128C106.45 17.128 105.554 16.8027 104.893 16.152C104.232 15.5013 103.901 14.536 103.901 13.256V8.392H106.397V12.888C106.397 14.2747 106.978 14.968 108.141 14.968C108.738 14.968 109.218 14.776 109.581 14.392C109.944 13.9973 110.125 13.416 110.125 12.648V8.392H112.621ZM117.317 9.528C117.616 9.112 118.016 8.79733 118.517 8.584C119.029 8.37067 119.616 8.264 120.277 8.264V10.568C120 10.5467 119.813 10.536 119.717 10.536C119.003 10.536 118.443 10.7387 118.037 11.144C117.632 11.5387 117.429 12.136 117.429 12.936V17H114.933V8.392H117.317V9.528ZM126.993 8.264C128.06 8.264 128.919 8.584 129.569 9.224C130.231 9.864 130.561 10.8133 130.561 12.072V17H128.065V12.456C128.065 11.7733 127.916 11.2667 127.617 10.936C127.319 10.5947 126.887 10.424 126.321 10.424C125.692 10.424 125.191 10.6213 124.817 11.016C124.444 11.4 124.257 11.976 124.257 12.744V17H121.761V8.392H124.145V9.4C124.476 9.03733 124.887 8.76 125.377 8.568C125.868 8.36533 126.407 8.264 126.993 8.264ZM136.296 8.264C137.629 8.264 138.653 8.584 139.368 9.224C140.083 9.85333 140.44 10.808 140.44 12.088V17H138.104V15.928C137.635 16.728 136.76 17.128 135.48 17.128C134.819 17.128 134.243 17.016 133.752 16.792C133.272 16.568 132.904 16.2587 132.648 15.864C132.392 15.4693 132.264 15.0213 132.264 14.52C132.264 13.72 132.563 13.0907 133.16 12.632C133.768 12.1733 134.701 11.944 135.96 11.944H137.944C137.944 11.4 137.779 10.984 137.448 10.696C137.117 10.3973 136.621 10.248 135.96 10.248C135.501 10.248 135.048 10.3227 134.6 10.472C134.163 10.6107 133.789 10.8027 133.48 11.048L132.584 9.304C133.053 8.97333 133.613 8.71733 134.264 8.536C134.925 8.35467 135.603 8.264 136.296 8.264ZM136.104 15.448C136.531 15.448 136.909 15.352 137.24 15.16C137.571 14.9573 137.805 14.664 137.944 14.28V13.4H136.232C135.208 13.4 134.696 13.736 134.696 14.408C134.696 14.728 134.819 14.984 135.064 15.176C135.32 15.3573 135.667 15.448 136.104 15.448ZM142.699 5.128H145.195V17H142.699V5.128ZM159.355 17L157.195 13.88H157.067H154.811V17H152.219V5.8H157.067C158.059 5.8 158.917 5.96533 159.643 6.296C160.379 6.62667 160.944 7.096 161.339 7.704C161.733 8.312 161.931 9.032 161.931 9.864C161.931 10.696 161.728 11.416 161.323 12.024C160.928 12.6213 160.363 13.08 159.627 13.4L162.139 17H159.355ZM159.307 9.864C159.307 9.23467 159.104 8.75467 158.699 8.424C158.293 8.08267 157.701 7.912 156.923 7.912H154.811V11.816H156.923C157.701 11.816 158.293 11.6453 158.699 11.304C159.104 10.9627 159.307 10.4827 159.307 9.864ZM167.202 8.264C168.535 8.264 169.559 8.584 170.274 9.224C170.989 9.85333 171.346 10.808 171.346 12.088V17H169.01V15.928C168.541 16.728 167.666 17.128 166.386 17.128C165.725 17.128 165.149 17.016 164.658 16.792C164.178 16.568 163.81 16.2587 163.554 15.864C163.298 15.4693 163.17 15.0213 163.17 14.52C163.17 13.72 163.469 13.0907 164.066 12.632C164.674 12.1733 165.607 11.944 166.866 11.944H168.85C168.85 11.4 168.685 10.984 168.354 10.696C168.023 10.3973 167.527 10.248 166.866 10.248C166.407 10.248 165.954 10.3227 165.506 10.472C165.069 10.6107 164.695 10.8027 164.386 11.048L163.49 9.304C163.959 8.97333 164.519 8.71733 165.17 8.536C165.831 8.35467 166.509 8.264 167.202 8.264ZM167.01 15.448C167.437 15.448 167.815 15.352 168.146 15.16C168.477 14.9573 168.711 14.664 168.85 14.28V13.4H167.138C166.114 13.4 165.602 13.736 165.602 14.408C165.602 14.728 165.725 14.984 165.97 15.176C166.226 15.3573 166.573 15.448 167.01 15.448ZM178.837 8.264C179.904 8.264 180.762 8.584 181.413 9.224C182.074 9.864 182.405 10.8133 182.405 12.072V17H179.909V12.456C179.909 11.7733 179.76 11.2667 179.461 10.936C179.162 10.5947 178.73 10.424 178.165 10.424C177.536 10.424 177.034 10.6213 176.661 11.016C176.288 11.4 176.101 11.976 176.101 12.744V17H173.605V8.392H175.989V9.4C176.32 9.03733 176.73 8.76 177.221 8.568C177.712 8.36533 178.25 8.264 178.837 8.264ZM188.364 13.624L187.164 14.808V17H184.668V5.128H187.164V11.848L190.812 8.392H193.788L190.204 12.04L194.108 17H191.084L188.364 13.624ZM195.168 8.392H197.664V17H195.168V8.392ZM196.416 7.192C195.957 7.192 195.584 7.05867 195.296 6.792C195.008 6.52533 194.864 6.19467 194.864 5.8C194.864 5.40533 195.008 5.07467 195.296 4.808C195.584 4.54133 195.957 4.408 196.416 4.408C196.874 4.408 197.248 4.536 197.536 4.792C197.824 5.048 197.968 5.368 197.968 5.752C197.968 6.168 197.824 6.51467 197.536 6.792C197.248 7.05867 196.874 7.192 196.416 7.192ZM205.212 8.264C206.279 8.264 207.137 8.584 207.788 9.224C208.449 9.864 208.78 10.8133 208.78 12.072V17H206.284V12.456C206.284 11.7733 206.135 11.2667 205.836 10.936C205.537 10.5947 205.105 10.424 204.54 10.424C203.911 10.424 203.409 10.6213 203.036 11.016C202.663 11.4 202.476 11.976 202.476 12.744V17H199.98V8.392H202.364V9.4C202.695 9.03733 203.105 8.76 203.596 8.568C204.087 8.36533 204.625 8.264 205.212 8.264ZM220.016 8.392V15.56C220.016 17.1387 219.606 18.312 218.784 19.08C217.963 19.848 216.763 20.232 215.184 20.232C214.352 20.232 213.563 20.1307 212.816 19.928C212.07 19.7253 211.451 19.432 210.96 19.048L211.952 17.256C212.315 17.5547 212.774 17.7893 213.328 17.96C213.883 18.1413 214.438 18.232 214.992 18.232C215.856 18.232 216.491 18.0347 216.896 17.64C217.312 17.256 217.52 16.6693 217.52 15.88V15.512C216.87 16.2267 215.963 16.584 214.8 16.584C214.011 16.584 213.286 16.4133 212.624 16.072C211.974 15.72 211.456 15.2293 211.072 14.6C210.688 13.9707 210.496 13.2453 210.496 12.424C210.496 11.6027 210.688 10.8773 211.072 10.248C211.456 9.61867 211.974 9.13333 212.624 8.792C213.286 8.44 214.011 8.264 214.8 8.264C216.048 8.264 216.998 8.67467 217.648 9.496V8.392H220.016ZM215.296 14.536C215.958 14.536 216.496 14.344 216.912 13.96C217.339 13.5653 217.552 13.0533 217.552 12.424C217.552 11.7947 217.339 11.288 216.912 10.904C216.496 10.5093 215.958 10.312 215.296 10.312C214.635 10.312 214.091 10.5093 213.664 10.904C213.238 11.288 213.024 11.7947 213.024 12.424C213.024 13.0533 213.238 13.5653 213.664 13.96C214.091 14.344 214.635 14.536 215.296 14.536Z" fill="#2C2C2C"/>
<defs>
<linearGradient id="paint0_linear_378_280" x1="28" y1="52" x2="328" y2="52.0013" gradientUnits="userSpaceOnUse">
<stop stop-color="#F3F3F3"/>
<stop offset="0.348958" stop-color="#CFCFCF"/>
<stop offset="0.666667" stop-color="#CFCFCF"/>
<stop offset="1" stop-color="#F3F3F3"/>
</linearGradient>
<linearGradient id="paint1_linear_378_280" x1="28" y1="82" x2="328" y2="82.0013" gradientUnits="userSpaceOnUse">
<stop stop-color="#F3F3F3"/>
<stop offset="0.348958" stop-color="#CFCFCF"/>
<stop offset="0.666667" stop-color="#CFCFCF"/>
<stop offset="1" stop-color="#F3F3F3"/>
</linearGradient>
<linearGradient id="paint2_linear_378_280" x1="28" y1="112" x2="328" y2="112.001" gradientUnits="userSpaceOnUse">
<stop stop-color="#F3F3F3"/>
<stop offset="0.348958" stop-color="#CFCFCF"/>
<stop offset="0.666667" stop-color="#CFCFCF"/>
<stop offset="1" stop-color="#F3F3F3"/>
</linearGradient>
<linearGradient id="paint3_linear_378_280" x1="28" y1="142" x2="328" y2="142.001" gradientUnits="userSpaceOnUse">
<stop stop-color="#F3F3F3"/>
<stop offset="0.348958" stop-color="#CFCFCF"/>
<stop offset="0.666667" stop-color="#CFCFCF"/>
<stop offset="1" stop-color="#F3F3F3"/>
</linearGradient>
<linearGradient id="paint4_linear_378_280" x1="28" y1="172" x2="328" y2="172.001" gradientUnits="userSpaceOnUse">
<stop stop-color="#F3F3F3"/>
<stop offset="0.348958" stop-color="#CFCFCF"/>
<stop offset="0.666667" stop-color="#CFCFCF"/>
<stop offset="1" stop-color="#F3F3F3"/>
</linearGradient>
</defs>
</svg>
