<svg width="155" height="55" viewBox="0 0 155 55" fill="none" xmlns="http://www.w3.org/2000/svg">
<path d="M68.1875 51.4919C68.2444 51.6873 68.2728 51.6594 68.2728 51.6594C68.2728 51.6594 68.2444 51.5757 68.1875 51.4919ZM68.1875 51.4919C68.2444 51.6873 68.2728 51.6594 68.2728 51.6594C68.2728 51.6594 68.2444 51.5757 68.1875 51.4919Z" fill="#EAE9EE"/>
<path d="M64.5493 51.1292C64.6062 51.3245 64.6346 51.2966 64.6346 51.2966C64.6346 51.2966 64.6062 51.2129 64.5493 51.1292ZM64.5493 51.1292C64.6062 51.3245 64.6346 51.2966 64.6346 51.2966C64.6346 51.2966 64.6062 51.2129 64.5493 51.1292Z" fill="#EAE9EE"/>
<path d="M60.3711 38.5436C60.5701 38.4599 60.7406 38.3762 60.8827 38.2087C60.769 38.4041 60.5701 38.5157 60.3711 38.5436Z" fill="#EAE9EE"/>
<path d="M71.3708 42.618V40.8878C67.1358 40.7204 64.4072 38.5716 64.4072 34.9438C64.4072 31.316 67.1642 29.1673 71.3708 28.9998V27.2697H74.27V28.9998C78.4481 29.1952 81.1767 31.316 81.1767 34.9438C81.1767 38.5437 78.4481 40.6925 74.27 40.8878V42.618H71.3708ZM71.3708 38.4042V31.4556C68.4433 31.6509 67.4201 33.1858 67.4201 34.9438C67.4201 36.7019 68.4433 38.2089 71.3708 38.4042ZM74.27 38.4042C77.1123 38.1809 78.1639 36.674 78.1639 34.9438C78.1639 33.2137 77.1123 31.6788 74.27 31.4556V38.4042Z" fill="#EAE9EE"/>
<path d="M93.1709 41.8643V34.7482C93.1709 34.1064 93.1994 33.4367 93.2278 32.8506L86.6621 41.8643H83.8198V28.0508H86.8327V35.1668C86.8327 35.8087 86.8042 36.4784 86.7758 37.0645L93.3415 28.0508H96.1838V41.8643H93.1709Z" fill="#EAE9EE"/>
<path d="M104.909 42.1154C103.232 42.1154 101.584 41.8921 99.708 41.2224V38.376C101.555 39.269 103.204 39.4643 104.682 39.4364C106.217 39.4364 107.666 39.0736 107.666 37.6504C107.666 36.3667 106.501 36.0318 105.137 36.0318H101.953L101.982 33.4366H104.938C106.274 33.4366 107.126 32.9622 107.126 31.9855C107.126 30.8692 106.132 30.3948 104.341 30.3948C103.062 30.3669 101.641 30.646 99.9354 31.4552V28.6367C101.555 27.967 103.119 27.7158 104.597 27.7158C107.894 27.7158 110.139 28.9437 110.139 31.4831C110.139 32.9901 109.258 34.0505 107.894 34.497C109.372 34.8877 110.708 35.976 110.708 38.0411C110.736 41.1666 107.723 42.1154 104.909 42.1154Z" fill="#EAE9EE"/>
<path d="M124.834 28.0229V30.7019H120.514V41.8644H117.501V30.7019H113.181V28.0229H124.834Z" fill="#EAE9EE"/>
<path d="M138.221 28.0229V30.6461H131.343V33.5763H137.624V36.1715H131.343V39.2412H138.335V41.8644H128.302V28.0229H138.221Z" fill="#EAE9EE"/>
<path d="M140.808 41.8644L145.838 34.6925L141.12 28.0229H144.616L147.743 32.5717L150.841 28.0229H154.365L149.619 34.6925L154.678 41.8644H151.125L147.743 36.8134L144.332 41.8644H140.808Z" fill="#EAE9EE"/>
<path d="M64.7764 23.8926V18.0323H66.1122V20.3765H69.0966V18.0323H70.4041V23.8926H69.0966V21.5206H66.1122V23.8926H64.7764Z" fill="#EAE9EE"/>
<path d="M75.4922 17.865C77.1691 17.865 78.7039 18.9254 78.7039 20.9347C78.7039 22.9439 77.1407 24.0043 75.4922 24.0043C73.8152 24.0043 72.252 22.9439 72.252 20.9347C72.2804 18.9254 73.8436 17.865 75.4922 17.865ZM75.4922 19.065C74.3837 19.065 73.6162 19.8184 73.6162 20.9626C73.6162 22.1067 74.3837 22.8602 75.4922 22.8602C76.6006 22.8602 77.3681 22.1067 77.3681 20.9626C77.3681 19.8184 76.6006 19.065 75.4922 19.065Z" fill="#EAE9EE"/>
<path d="M80.5796 23.8926V18.0323H83.9903C85.1841 18.0323 85.8662 18.6742 85.8662 19.5951C85.8662 20.2369 85.5252 20.7113 85.0136 20.9346C85.582 21.102 86.0368 21.5764 86.0368 22.2741C86.0368 23.1671 85.4399 23.8926 84.0756 23.8926H80.5796ZM81.887 20.4602H83.6493C84.1324 20.4602 84.5019 20.2648 84.5019 19.7625C84.5019 19.1765 84.0756 19.0091 83.6493 19.0091H81.887V20.4602ZM81.887 22.888H83.7345C84.2746 22.888 84.6725 22.6927 84.6725 22.1345C84.6725 21.5485 84.2177 21.3811 83.7629 21.3811H81.887V22.888Z" fill="#EAE9EE"/>
<path d="M87.9414 23.8926V18.0323H89.2773V19.9858H90.8974C92.4038 19.9858 93.2565 20.823 93.2565 21.9392C93.2565 23.0275 92.4038 23.8926 90.8974 23.8926H87.9414ZM89.2489 22.8322H90.6132C91.3806 22.8322 91.8922 22.5252 91.8922 21.9113C91.8922 21.2974 91.409 20.9904 90.6132 20.9904H89.2489V22.8322ZM94.3081 18.0323H95.644V23.8926H94.3081V18.0323Z" fill="#EAE9EE"/>
<path d="M97.8608 23.8926V18.0324H99.1967V21.8555L102.38 18.0324H103.517V23.8926H102.181V20.0695L98.9978 23.8926H97.8608ZM100.703 17.2231C100.021 17.2231 99.4241 17.0835 98.8841 16.7208V15.6603C99.5094 16.051 100.078 16.1626 100.703 16.1626C101.328 16.1626 101.868 16.051 102.522 15.6603V16.7208C101.954 17.0835 101.357 17.2231 100.703 17.2231Z" fill="#EAE9EE"/>
<path d="M54.7433 31.3437L48.5755 31.2879C46.7564 41.1667 37.9453 48.6455 27.372 48.5618C15.5481 48.4781 6.05486 38.99 6.14013 27.4089C6.2254 15.8 15.8892 6.47937 27.6847 6.56309C38.258 6.6468 46.9554 14.2373 48.6039 24.1439L54.7717 24.1997C53.0947 10.9722 41.6687 0.674897 27.7131 0.563273C12.5353 0.451648 0.114478 12.4513 0.000786807 27.3531C-0.112905 42.255 12.1089 54.45 27.2868 54.5616C41.2708 54.6732 52.8389 44.5433 54.7433 31.3437Z" fill="#EAE9EE"/>
<path d="M27.6279 35.9203V43.2317H30.4418V35.6692C30.0439 35.7808 29.5323 35.8645 29.0775 35.9203C28.509 35.9482 28.0827 35.9482 27.6279 35.9203Z" fill="#EAE9EE"/>
<path d="M27.5996 20.6555V22.1904V31.3436C28.0543 31.3715 28.5375 31.2878 29.0207 31.2878C29.5039 31.2878 29.9587 31.1482 30.4134 31.0924V23.3066C35.0179 24.0322 38.1445 25.9298 38.1445 27.66C38.1445 29.8646 33.0852 32.3203 26.349 32.3203C19.5843 32.3203 14.5535 29.8646 14.5535 27.66C14.5535 25.8182 18.1632 23.781 23.3361 23.1671C23.3646 23.1671 23.393 23.1671 23.4214 23.1671C23.9046 23.1671 24.3594 23.1392 24.8141 23.1113V23.0276V20.6276V13.9302H22.0003V20.9067C20.8633 21.0741 19.8117 21.2974 18.8453 21.6044L18.8169 21.5765C14.6956 22.7764 12.0522 24.981 12.0522 27.6321C12.0522 31.6506 18.1916 34.6923 26.3205 34.6923C26.349 34.6923 26.349 34.6923 26.3774 34.6923C26.4058 34.6923 26.4058 34.6923 26.4342 34.6923C27.3722 34.6923 28.2533 34.6365 29.1344 34.5807C30.8966 34.4133 32.4883 34.1063 33.9379 33.6877L33.9663 33.7156C38.0876 32.5156 40.7309 30.3111 40.7309 27.66C40.6457 23.8647 35.1316 20.9346 27.5996 20.6555Z" fill="#EAE9EE"/>
</svg>
