<svg width="200" height="20" viewBox="0 0 200 20" fill="none" xmlns="http://www.w3.org/2000/svg">
<path fill-rule="evenodd" clip-rule="evenodd" d="M6.86633 12.5489C6.86633 13.1139 6.33067 13.5921 5.69759 13.5921C5.0645 13.5921 4.52881 13.1139 4.52881 12.5489C4.52881 11.9838 5.0645 11.5057 5.69759 11.5057C6.33067 11.5057 6.86633 11.9838 6.86633 12.5489Z" fill="white" fill-opacity="0.2"/>
<path fill-rule="evenodd" clip-rule="evenodd" d="M12.4178 5.85505C12.4178 6.72438 11.6387 7.41983 10.6647 7.41983C9.69077 7.41983 8.91162 6.72438 8.91162 5.85505C8.91162 4.98573 9.69077 4.29028 10.6647 4.29028C11.6387 4.29028 12.4178 4.98573 12.4178 5.85505Z" fill="white" fill-opacity="0.2"/>
<path fill-rule="evenodd" clip-rule="evenodd" d="M17.4335 8.07185C17.4335 8.94118 16.6543 9.63665 15.6804 9.63665C14.7064 9.63665 13.9272 8.94118 13.9272 8.07185C13.9272 7.20253 14.7064 6.50708 15.6804 6.50708C16.6543 6.55055 17.4335 7.246 17.4335 8.07185Z" fill="white" fill-opacity="0.2"/>
<path fill-rule="evenodd" clip-rule="evenodd" d="M22.4496 10.3321C22.4496 11.2014 21.6704 11.8969 20.6965 11.8969C19.7225 11.8969 18.9434 11.2014 18.9434 10.3321C18.9434 9.46278 19.7225 8.76733 20.6965 8.76733C21.6704 8.76733 22.4496 9.46278 22.4496 10.3321Z" fill="white" fill-opacity="0.2"/>
<path fill-rule="evenodd" clip-rule="evenodd" d="M17.4335 12.5489C17.4335 13.4182 16.6543 14.1137 15.6804 14.1137C14.7064 14.1137 13.9272 13.4182 13.9272 12.5489C13.9272 11.6796 14.7064 10.9841 15.6804 10.9841C16.6543 10.9841 17.4335 11.6796 17.4335 12.5489Z" fill="white" fill-opacity="0.2"/>
<path fill-rule="evenodd" clip-rule="evenodd" d="M27.4164 12.5489C27.4164 13.4182 26.6372 14.1137 25.6633 14.1137C24.6893 14.1137 23.9102 13.4182 23.9102 12.5489C23.9102 11.6796 24.6893 10.9841 25.6633 10.9841C26.6372 10.9841 27.4164 11.6796 27.4164 12.5489Z" fill="white" fill-opacity="0.2"/>
<path fill-rule="evenodd" clip-rule="evenodd" d="M26.8322 17.0259C26.8322 17.5909 26.2965 18.069 25.6634 18.069C25.0303 18.069 24.4946 17.5909 24.4946 17.0259C24.4946 16.4608 25.0303 15.9827 25.6634 15.9827C26.3452 15.9827 26.8322 16.4173 26.8322 17.0259Z" fill="white" fill-opacity="0.2"/>
<path fill-rule="evenodd" clip-rule="evenodd" d="M31.8481 14.7656C31.8481 15.3307 31.3125 15.8088 30.6795 15.8088C30.0464 15.8088 29.5107 15.3307 29.5107 14.7656C29.5107 14.2006 30.0464 13.7224 30.6795 13.7224C31.3125 13.7224 31.8481 14.2006 31.8481 14.7656Z" fill="white" fill-opacity="0.2"/>
<path fill-rule="evenodd" clip-rule="evenodd" d="M32.4325 10.3321C32.4325 11.2014 31.6533 11.8969 30.6794 11.8969C29.7054 11.8969 28.9263 11.2014 28.9263 10.3321C28.9263 9.46278 29.7054 8.76733 30.6794 8.76733C31.6533 8.76733 32.4325 9.46278 32.4325 10.3321Z" fill="white" fill-opacity="0.2"/>
<path fill-rule="evenodd" clip-rule="evenodd" d="M27.4164 8.07185C27.4164 8.94118 26.6372 9.63665 25.6633 9.63665C24.6893 9.63665 23.9102 8.94118 23.9102 8.07185C23.9102 7.20253 24.6893 6.50708 25.6633 6.50708C26.6372 6.55055 27.4164 7.246 27.4164 8.07185Z" fill="white" fill-opacity="0.2"/>
<path fill-rule="evenodd" clip-rule="evenodd" d="M21.8649 14.7656C21.8649 15.3307 21.3292 15.8088 20.6961 15.8088C20.063 15.8088 19.5273 15.3307 19.5273 14.7656C19.5273 14.2006 20.063 13.7224 20.6961 13.7224C21.3292 13.7224 21.8649 14.2006 21.8649 14.7656Z" fill="white" fill-opacity="0.2"/>
<path fill-rule="evenodd" clip-rule="evenodd" d="M32.4325 5.85505C32.4325 6.72438 31.6533 7.41983 30.6794 7.41983C29.7054 7.41983 28.9263 6.72438 28.9263 5.85505C28.9263 4.98573 29.7054 4.29028 30.6794 4.29028C31.6533 4.29028 32.4325 4.98573 32.4325 5.85505Z" fill="white" fill-opacity="0.2"/>
<path fill-rule="evenodd" clip-rule="evenodd" d="M36.8639 3.63829C36.8639 4.20335 36.3282 4.68147 35.6951 4.68147C35.0621 4.68147 34.5264 4.20335 34.5264 3.63829C34.5264 3.07323 35.0621 2.59509 35.6951 2.59509C36.3282 2.59509 36.8639 3.02977 36.8639 3.63829Z" fill="white" fill-opacity="0.2"/>
<path fill-rule="evenodd" clip-rule="evenodd" d="M36.8639 12.5489C36.8639 13.1139 36.3282 13.5921 35.6951 13.5921C35.0621 13.5921 34.5264 13.1139 34.5264 12.5489C34.5264 11.9838 35.0621 11.5057 35.6951 11.5057C36.3282 11.5057 36.8639 11.9838 36.8639 12.5489Z" fill="white" fill-opacity="0.2"/>
<path fill-rule="evenodd" clip-rule="evenodd" d="M21.8649 5.85497C21.8649 6.42003 21.3292 6.89817 20.6961 6.89817C20.063 6.89817 19.5273 6.42003 19.5273 5.85497C19.5273 5.28991 20.063 4.81177 20.6961 4.81177C21.3292 4.81177 21.8649 5.28991 21.8649 5.85497Z" fill="white" fill-opacity="0.2"/>
<path fill-rule="evenodd" clip-rule="evenodd" d="M16.8491 17.0259C16.8491 17.5909 16.3135 18.069 15.6804 18.069C15.0474 18.069 14.5117 17.5909 14.5117 17.0259C14.5117 16.4608 15.0474 15.9827 15.6804 15.9827C16.3135 15.9827 16.8491 16.4173 16.8491 17.0259Z" fill="white" fill-opacity="0.2"/>
<path fill-rule="evenodd" clip-rule="evenodd" d="M12.4178 10.3321C12.4178 11.2014 11.6387 11.8969 10.6647 11.8969C9.69077 11.8969 8.91162 11.2014 8.91162 10.3321C8.91162 9.46278 9.69077 8.76733 10.6647 8.76733C11.6387 8.76733 12.4178 9.46278 12.4178 10.3321Z" fill="white" fill-opacity="0.2"/>
<path fill-rule="evenodd" clip-rule="evenodd" d="M7.45056 8.07185C7.45056 8.94118 6.67141 9.63665 5.69746 9.63665C4.72351 9.63665 3.94434 8.94118 3.94434 8.07185C3.94434 7.20253 4.72351 6.50708 5.69746 6.50708C6.67141 6.55055 7.45056 7.246 7.45056 8.07185Z" fill="white" fill-opacity="0.2"/>
<path fill-rule="evenodd" clip-rule="evenodd" d="M1.36353 14.7658C1.36353 15.1135 1.07133 15.3743 0.681748 15.3743C0.292167 15.3743 0 15.1135 0 14.7658C0 14.418 0.292167 14.1572 0.681748 14.1572C1.07133 14.1572 1.36353 14.4615 1.36353 14.7658Z" fill="white" fill-opacity="0.2"/>
<path fill-rule="evenodd" clip-rule="evenodd" d="M1.36353 10.3321C1.36353 10.6798 1.07133 10.9406 0.681748 10.9406C0.292167 10.9406 0 10.6798 0 10.3321C0 9.98435 0.292167 9.72357 0.681748 9.72357C1.07133 9.72357 1.36353 9.98435 1.36353 10.3321Z" fill="white" fill-opacity="0.2"/>
<path fill-rule="evenodd" clip-rule="evenodd" d="M11.3464 14.7658C11.3464 15.1135 11.0542 15.3743 10.6647 15.3743C10.2751 15.3743 9.98291 15.1135 9.98291 14.7658C9.98291 14.418 10.2751 14.1572 10.6647 14.1572C11.0542 14.1572 11.3464 14.418 11.3464 14.7658Z" fill="white" fill-opacity="0.2"/>
<path fill-rule="evenodd" clip-rule="evenodd" d="M11.3465 1.37806C11.3465 1.72579 11.0543 1.98657 10.6647 1.98657C10.2751 1.98657 9.98297 1.72579 9.98297 1.37806C9.98297 1.03034 10.2751 0.769531 10.6647 0.769531C11.0543 0.769531 11.3465 1.0738 11.3465 1.37806Z" fill="white" fill-opacity="0.2"/>
<path fill-rule="evenodd" clip-rule="evenodd" d="M21.3293 19.2425C21.3293 19.5903 21.0371 19.8511 20.6476 19.8511C20.258 19.8511 19.9658 19.5903 19.9658 19.2425C19.9658 18.8948 20.258 18.634 20.6476 18.634C21.0371 18.634 21.3293 18.8948 21.3293 19.2425Z" fill="white" fill-opacity="0.2"/>
<path fill-rule="evenodd" clip-rule="evenodd" d="M6.37915 3.63832C6.37915 3.98605 6.08698 4.24683 5.6974 4.24683C5.30782 4.24683 5.01562 3.98605 5.01562 3.63832C5.01562 3.29059 5.30782 3.02979 5.6974 3.02979C6.08698 3.02979 6.37915 3.29059 6.37915 3.63832Z" fill="white" fill-opacity="0.2"/>
<path fill-rule="evenodd" clip-rule="evenodd" d="M16.3625 3.63832C16.3625 3.98605 16.0704 4.24683 15.6808 4.24683C15.2912 4.24683 14.999 3.98605 14.999 3.63832C14.999 3.29059 15.2912 3.02979 15.6808 3.02979C16.0704 3.02979 16.3625 3.29059 16.3625 3.63832Z" fill="white" fill-opacity="0.2"/>
<path fill-rule="evenodd" clip-rule="evenodd" d="M21.3293 19.2425C21.3293 19.5903 21.0371 19.8511 20.6476 19.8511C20.258 19.8511 19.9658 19.5903 19.9658 19.2425C19.9658 18.8948 20.258 18.634 20.6476 18.634C21.0371 18.634 21.3293 18.8948 21.3293 19.2425Z" fill="white" fill-opacity="0.2"/>
<path fill-rule="evenodd" clip-rule="evenodd" d="M46.3596 8.07189C46.3596 8.41962 46.0674 8.68043 45.6779 8.68043C45.2883 8.68043 44.9961 8.41962 44.9961 8.07189C44.9961 7.72416 45.2883 7.46338 45.6779 7.46338C46.0674 7.46338 46.3596 7.76763 46.3596 8.07189Z" fill="white" fill-opacity="0.2"/>
<path fill-rule="evenodd" clip-rule="evenodd" d="M36.3772 17.026C36.3772 17.3737 36.085 17.6345 35.6954 17.6345C35.3059 17.6345 35.0137 17.3737 35.0137 17.026C35.0137 16.6783 35.3059 16.4175 35.6954 16.4175C36.0363 16.4175 36.3772 16.6783 36.3772 17.026Z" fill="white" fill-opacity="0.2"/>
<path fill-rule="evenodd" clip-rule="evenodd" d="M42.4154 5.85505C42.4154 6.72438 41.6363 7.41983 40.6623 7.41983C39.6884 7.41983 38.9092 6.72438 38.9092 5.85505C38.9092 4.98573 39.6884 4.29028 40.6623 4.29028C41.6363 4.29028 42.4154 4.98573 42.4154 5.85505Z" fill="white" fill-opacity="0.2"/>
<path fill-rule="evenodd" clip-rule="evenodd" d="M37.3998 8.07185C37.3998 8.94118 36.6206 9.63665 35.6467 9.63665C34.6727 9.63665 33.8936 8.94118 33.8936 8.07185C33.8936 7.20253 34.6727 6.50708 35.6467 6.50708C36.6206 6.55055 37.3998 7.246 37.3998 8.07185Z" fill="white" fill-opacity="0.2"/>
<path fill-rule="evenodd" clip-rule="evenodd" d="M41.344 14.7658C41.344 15.1135 41.0518 15.3743 40.6622 15.3743C40.2727 15.3743 39.9805 15.1135 39.9805 14.7658C39.9805 14.418 40.2727 14.1572 40.6622 14.1572C41.0518 14.1572 41.344 14.4615 41.344 14.7658Z" fill="white" fill-opacity="0.2"/>
<path fill-rule="evenodd" clip-rule="evenodd" d="M41.8312 10.3321C41.8312 10.8972 41.2955 11.3753 40.6624 11.3753C40.0293 11.3753 39.4937 10.8972 39.4937 10.3321C39.4937 9.76705 40.0293 9.28894 40.6624 9.28894C41.2955 9.28894 41.8312 9.72359 41.8312 10.3321Z" fill="white" fill-opacity="0.2"/>
<path fill-rule="evenodd" clip-rule="evenodd" d="M26.345 3.63832C26.345 3.98605 26.0528 4.24683 25.6632 4.24683C25.2736 4.24683 24.9814 3.98605 24.9814 3.63832C24.9814 3.29059 25.2736 3.02979 25.6632 3.02979C26.0528 3.02979 26.345 3.29059 26.345 3.63832Z" fill="white" fill-opacity="0.2"/>
<path fill-rule="evenodd" clip-rule="evenodd" d="M41.344 1.37806C41.344 1.72579 41.0519 1.98657 40.6623 1.98657C40.2727 1.98657 39.9805 1.72579 39.9805 1.37806C39.9805 1.03034 40.2727 0.769531 40.6623 0.769531C41.0519 0.769531 41.344 1.0738 41.344 1.37806Z" fill="white" fill-opacity="0.2"/>
<path fill-rule="evenodd" clip-rule="evenodd" d="M46.3596 3.63832C46.3596 3.98605 46.0674 4.24683 45.6779 4.24683C45.2883 4.24683 44.9961 3.98605 44.9961 3.63832C44.9961 3.29059 45.2883 3.02979 45.6779 3.02979C46.0674 3.02979 46.3596 3.29059 46.3596 3.63832Z" fill="white" fill-opacity="0.2"/>
<path fill-rule="evenodd" clip-rule="evenodd" d="M60.3362 7.11558C60.4823 6.81132 60.531 6.50703 60.4336 6.33317C60.3849 6.20277 60.2388 6.07238 59.9953 5.98545C59.4597 5.81158 59.0701 6.02891 58.7779 6.63744L56.83 10.8102L54.1517 6.5505C54.0056 6.2897 53.8108 6.11586 53.5673 6.02893C53.3238 5.94199 53.0803 5.94198 52.8368 6.07238C52.5934 6.20278 52.4473 6.37664 52.4473 6.63744C52.4473 6.85477 52.4959 7.11558 52.642 7.33291L55.9048 12.4184C55.7587 12.7662 55.6126 12.9835 55.4665 13.1574C55.3204 13.3312 55.1256 13.4182 54.8821 13.4182C54.7847 13.4182 54.6873 13.4182 54.5899 13.3747C54.4925 13.3747 54.3951 13.3312 54.2978 13.2878C54.2004 13.2443 54.103 13.2008 54.0543 13.2008C53.5673 13.0704 53.2264 13.2008 53.0803 13.5486C52.8855 13.9832 53.0803 14.3309 53.616 14.5917C53.9569 14.7656 54.4438 14.8526 54.9795 14.8526C55.6126 14.8526 56.1482 14.6352 56.5378 14.2006C56.9274 13.7659 57.3657 13.1139 57.804 12.1576L60.3362 7.11558Z" fill="white" fill-opacity="0.2"/>
<path fill-rule="evenodd" clip-rule="evenodd" d="M63.0141 14.7221C63.3063 14.7221 63.5011 14.6351 63.6959 14.5047C63.842 14.3743 63.9394 14.157 63.9394 13.8962V10.9405H68.3221V13.8962C68.3221 14.1135 68.4195 14.3309 68.5656 14.5047C68.7117 14.6786 68.9552 14.7221 69.2474 14.7221C69.5396 14.7221 69.7343 14.6351 69.9291 14.5047C70.0752 14.3743 70.1726 14.157 70.1726 13.8962V6.76774C70.1726 6.55041 70.0752 6.33309 69.9291 6.15923C69.783 5.98536 69.5396 5.94189 69.2474 5.94189C68.9552 5.94189 68.7117 6.02883 68.5656 6.15923C68.4195 6.33309 68.3221 6.50694 68.3221 6.76774V9.50613H63.9394V6.76774C63.9394 6.55041 63.842 6.33309 63.6959 6.15923C63.5498 5.98536 63.3063 5.94189 63.0141 5.94189C62.7219 5.94189 62.4784 6.02883 62.3324 6.15923C62.1863 6.33309 62.0889 6.50694 62.0889 6.76774V13.8962C62.0889 14.1135 62.1863 14.3309 62.3324 14.5047C62.4784 14.6351 62.7219 14.7221 63.0141 14.7221Z" fill="white" fill-opacity="0.2"/>
<path fill-rule="evenodd" clip-rule="evenodd" d="M73.5328 14.7222C73.825 14.7222 74.1172 14.5483 74.3607 14.2441L78.8408 8.76734V13.8963C78.8408 14.1137 78.9382 14.331 79.0843 14.4614C79.2303 14.6353 79.4738 14.6787 79.766 14.6787C80.0582 14.6787 80.3017 14.5918 80.4478 14.4614C80.5939 14.331 80.6913 14.1137 80.6913 13.8529V6.72443C80.6913 6.15937 80.3991 5.89856 79.8147 5.89856C79.4738 5.89856 79.1817 6.02896 78.9382 6.33322L74.5067 11.8534V6.72443C74.5067 6.5071 74.4093 6.28976 74.2633 6.11589C74.1172 5.94203 73.8737 5.89856 73.5815 5.89856C73.2893 5.89856 73.0458 5.98549 72.8997 6.11589C72.7536 6.28976 72.6562 6.46363 72.6562 6.72443V13.8529C72.6562 14.1137 72.7536 14.331 72.8997 14.4614C73.0458 14.6353 73.2406 14.7222 73.5328 14.7222Z" fill="white" fill-opacity="0.2"/>
<path fill-rule="evenodd" clip-rule="evenodd" d="M88.0446 13.114C87.7038 13.3313 87.1681 13.4182 86.4863 13.4182C85.8533 13.4182 85.3663 13.3748 84.928 13.3313V10.8537H86.4863C87.8498 10.8537 88.5316 11.2884 88.5316 12.1577C88.5803 12.5924 88.3855 12.9401 88.0446 13.114ZM86.3402 9.59318H84.9767V7.28948C85.415 7.24601 85.8046 7.24602 86.1942 7.24602C87.4603 7.24602 88.0933 7.59374 88.0933 8.37613C88.0933 9.20199 87.509 9.59318 86.3402 9.59318ZM88.7751 9.98439C89.116 9.81052 89.4082 9.5932 89.6029 9.28894C89.8464 8.94121 89.9438 8.59347 89.9438 8.1588C89.9438 6.59402 88.7264 5.81165 86.3402 5.81165C85.5124 5.81165 84.7332 5.85511 84.0515 5.94204C83.4671 6.02897 83.2236 6.33322 83.2236 6.85482V13.7225C83.2236 14.2006 83.5158 14.5049 84.0515 14.5918C84.7332 14.6787 85.5124 14.7222 86.4376 14.7222C89.0673 14.7222 90.3821 13.8094 90.3821 11.9838C90.3821 11.4622 90.236 11.0276 89.8951 10.6798C89.6516 10.419 89.2621 10.1583 88.7751 9.98439Z" fill="white" fill-opacity="0.2"/>
<path fill-rule="evenodd" clip-rule="evenodd" d="M99.0019 14.5049C99.148 14.3745 99.2454 14.2006 99.2454 13.9833C99.2454 13.766 99.148 13.5921 99.0019 13.4617C98.8558 13.3313 98.6123 13.2444 98.3688 13.2444H94.3756V10.8972H97.4435C97.7357 10.8972 97.9305 10.8102 98.0766 10.6798C98.2227 10.5494 98.3201 10.3756 98.3201 10.1583C98.3201 9.94093 98.2227 9.76706 98.0766 9.63667C97.9305 9.50627 97.687 9.46279 97.4435 9.46279H94.3756V7.37642H98.2714C98.5149 7.37642 98.7584 7.28949 98.9045 7.15909C99.0506 7.02869 99.148 6.85482 99.148 6.63749C99.148 6.42016 99.0506 6.24629 98.9045 6.11589C98.7584 5.98549 98.5149 5.89856 98.2714 5.89856H93.499C93.2068 5.89856 92.9633 5.98549 92.8172 6.11589C92.6711 6.28976 92.5737 6.46363 92.5737 6.72443V13.8963C92.5737 14.1571 92.6711 14.331 92.8172 14.5049C92.9633 14.6787 93.2068 14.7222 93.499 14.7222H98.4175C98.661 14.7222 98.8558 14.6353 99.0019 14.5049Z" fill="white" fill-opacity="0.2"/>
<path fill-rule="evenodd" clip-rule="evenodd" d="M102.849 7.33296C103.238 7.2895 103.628 7.24603 104.017 7.24603C105.332 7.24603 105.965 7.72415 105.965 8.68041C105.965 9.72359 105.284 10.2452 103.92 10.2452C103.482 10.2452 103.092 10.2452 102.849 10.2017V7.33296ZM107.865 8.68041C107.865 7.72415 107.524 6.98521 106.842 6.55055C106.16 6.11589 105.235 5.8551 104.066 5.8551C103.238 5.8551 102.508 5.89858 101.875 6.02898C101.339 6.11591 101.047 6.42016 101.047 6.94176V13.8963C101.047 14.1137 101.144 14.331 101.29 14.5049C101.436 14.6788 101.68 14.7222 101.972 14.7222C102.264 14.7222 102.459 14.6353 102.654 14.5049C102.8 14.3745 102.897 14.1571 102.897 13.8963V11.6361C103.19 11.6796 103.579 11.6796 104.066 11.6796C105.186 11.6796 106.111 11.4188 106.842 10.9407C107.475 10.4191 107.865 9.68013 107.865 8.68041Z" fill="white" fill-opacity="0.2"/>
<path fill-rule="evenodd" clip-rule="evenodd" d="M115.803 12.8532C115.121 13.2009 114.439 13.3748 113.806 13.3748C113.027 13.3748 112.345 13.114 111.809 12.5489C111.274 11.9839 111.03 11.2449 111.03 10.2887C111.03 9.37589 111.274 8.59349 111.761 8.07189C112.54 7.1591 113.855 6.98525 115.559 7.59377C116.143 7.76764 116.533 7.72417 116.728 7.37644C116.923 6.98525 116.825 6.68099 116.387 6.37673C115.754 5.98553 114.877 5.76819 113.757 5.76819C112.345 5.76819 111.176 6.20285 110.397 6.98524C109.569 7.81109 109.18 8.89776 109.18 10.2887C109.18 11.6796 109.569 12.7662 110.3 13.5921C111.079 14.418 112.199 14.8092 113.709 14.8092C114.877 14.8092 115.851 14.5484 116.63 14.0702C116.874 13.8964 117.02 13.7225 117.069 13.5052C117.117 13.2878 117.069 13.114 116.971 12.9401C116.679 12.6358 116.29 12.5924 115.803 12.8532Z" fill="white" fill-opacity="0.2"/>
<path fill-rule="evenodd" clip-rule="evenodd" d="M126.175 5.89856C125.834 5.89856 125.542 6.02896 125.298 6.33322L120.867 11.8534V6.72443C120.867 6.5071 120.769 6.28976 120.623 6.11589C120.477 5.94203 120.234 5.89856 119.941 5.89856C119.649 5.89856 119.406 5.98549 119.26 6.11589C119.114 6.28976 119.016 6.46363 119.016 6.72443V13.8963C119.016 14.1571 119.114 14.3745 119.26 14.5049C119.406 14.6353 119.649 14.7222 119.893 14.7222C120.185 14.7222 120.477 14.5483 120.721 14.2441L125.201 8.76734V13.8963C125.201 14.1137 125.298 14.331 125.444 14.4614C125.59 14.6353 125.834 14.6787 126.126 14.6787C126.418 14.6787 126.662 14.5918 126.808 14.4614C126.954 14.331 127.051 14.1137 127.051 13.8529V6.72443C127.003 6.20283 126.71 5.89856 126.175 5.89856Z" fill="white" fill-opacity="0.2"/>
<path fill-rule="evenodd" clip-rule="evenodd" d="M137.034 6.63734C137.034 6.42001 136.937 6.24614 136.791 6.11574C136.645 5.98534 136.401 5.94189 136.158 5.94189H129.438C129.194 5.94189 128.951 5.98534 128.805 6.11574C128.658 6.24614 128.561 6.42001 128.561 6.63734C128.561 6.85467 128.658 7.02854 128.805 7.15894C128.951 7.28934 129.194 7.37627 129.438 7.37627H131.872V13.8962C131.872 14.1135 131.97 14.3309 132.116 14.5047C132.262 14.6786 132.506 14.7221 132.798 14.7221C133.09 14.7221 133.333 14.6351 133.479 14.5047C133.626 14.3743 133.723 14.157 133.723 13.8962V7.37627H136.158C136.45 7.37627 136.645 7.28934 136.791 7.15894C136.937 7.02854 137.034 6.85467 137.034 6.63734Z" fill="white" fill-opacity="0.2"/>
<path fill-rule="evenodd" clip-rule="evenodd" d="M144.436 13.2444H140.395V10.8972H143.463C143.755 10.8972 143.949 10.8102 144.096 10.6798C144.242 10.5494 144.339 10.3756 144.339 10.1583C144.339 9.94093 144.242 9.76706 144.096 9.63667C143.949 9.50627 143.706 9.46279 143.463 9.46279H140.395V7.37642H144.29C144.534 7.37642 144.777 7.28949 144.923 7.15909C145.07 7.02869 145.167 6.85482 145.167 6.63749C145.167 6.42016 145.07 6.24629 144.923 6.11589C144.777 5.98549 144.534 5.89856 144.29 5.89856H139.518C139.226 5.89856 138.982 5.98549 138.836 6.11589C138.69 6.28976 138.593 6.46363 138.593 6.72443V13.8963C138.593 14.1571 138.69 14.331 138.836 14.5049C138.982 14.6787 139.226 14.7222 139.518 14.7222H144.436C144.68 14.7222 144.923 14.6353 145.07 14.5049C145.216 14.3745 145.313 14.2006 145.313 13.9833C145.313 13.766 145.216 13.5921 145.07 13.4617C144.875 13.3313 144.68 13.2444 144.436 13.2444Z" fill="white" fill-opacity="0.2"/>
<path fill-rule="evenodd" clip-rule="evenodd" d="M154.37 6.63734C154.37 6.42001 154.273 6.24614 154.127 6.11574C153.981 5.98534 153.737 5.94189 153.494 5.94189H146.822C146.579 5.94189 146.335 5.98534 146.189 6.11574C146.043 6.24614 145.946 6.42001 145.946 6.63734C145.946 6.85467 146.043 7.02854 146.189 7.15894C146.335 7.28934 146.579 7.37627 146.822 7.37627H149.257V13.8962C149.257 14.1135 149.355 14.3309 149.501 14.5047C149.647 14.6786 149.89 14.7221 150.182 14.7221C150.475 14.7221 150.718 14.6351 150.864 14.5047C151.01 14.3743 151.108 14.157 151.108 13.8962V7.37627H153.543C153.835 7.37627 154.03 7.28934 154.176 7.15894C154.273 7.02854 154.37 6.85467 154.37 6.63734Z" fill="white" fill-opacity="0.2"/>
<path fill-rule="evenodd" clip-rule="evenodd" d="M167.909 13.8962V6.76774C167.909 6.20268 167.616 5.94189 167.032 5.94189C166.691 5.94189 166.399 6.07229 166.155 6.37656L161.724 11.8968V6.76774C161.724 6.55041 161.627 6.33309 161.481 6.15923C161.334 5.98536 161.091 5.94189 160.799 5.94189C160.507 5.94189 160.263 6.02883 160.117 6.15923C159.971 6.33309 159.874 6.50694 159.874 6.76774V13.8962C159.874 14.157 159.971 14.3743 160.117 14.5047C160.263 14.6351 160.507 14.7221 160.75 14.7221C161.042 14.7221 161.334 14.5482 161.578 14.2439L166.058 8.7672V13.8962C166.058 14.1135 166.155 14.3309 166.302 14.4613C166.448 14.6351 166.691 14.6786 166.983 14.6786C167.275 14.6786 167.519 14.5917 167.665 14.4613C167.811 14.3309 167.909 14.1135 167.909 13.8962Z" fill="white" fill-opacity="0.2"/>
<path fill-rule="evenodd" clip-rule="evenodd" d="M177.015 5.89856H170.343C170.1 5.89856 169.856 5.94204 169.71 6.07243C169.564 6.20283 169.467 6.3767 169.467 6.59403C169.467 6.81137 169.564 6.98524 169.71 7.11563C169.856 7.24603 170.1 7.33296 170.343 7.33296H172.778V13.8529C172.778 14.0702 172.876 14.2875 173.022 14.4614C173.168 14.6353 173.411 14.6787 173.703 14.6787C173.996 14.6787 174.239 14.5918 174.385 14.4614C174.531 14.331 174.629 14.1137 174.629 13.8529V7.33296H177.064C177.356 7.33296 177.55 7.24603 177.697 7.11563C177.843 6.98524 177.94 6.81137 177.94 6.59403C177.94 6.3767 177.843 6.20283 177.697 6.07243C177.502 5.9855 177.307 5.89856 177.015 5.89856Z" fill="white" fill-opacity="0.2"/>
<path fill-rule="evenodd" clip-rule="evenodd" d="M187.631 5.89856C187.29 5.89856 186.998 6.07243 186.755 6.42016L183.979 10.4191L181.154 6.42016C180.911 6.07243 180.619 5.89856 180.229 5.89856C179.986 5.89856 179.791 5.98549 179.596 6.11589C179.45 6.24629 179.353 6.46362 179.353 6.76788V13.8963C179.353 14.4614 179.645 14.7222 180.18 14.7222C180.765 14.7222 181.008 14.4614 181.008 13.8963V9.02813L183.005 11.81C183.2 12.1142 183.492 12.2881 183.833 12.2881C184.174 12.2881 184.417 12.1142 184.661 11.81L186.609 8.98467V13.8963C186.609 14.1137 186.706 14.331 186.852 14.5049C186.998 14.6787 187.242 14.7222 187.534 14.7222C187.826 14.7222 188.069 14.6353 188.215 14.5049C188.362 14.3745 188.459 14.1571 188.459 13.8963V6.76788C188.459 6.50709 188.362 6.33324 188.264 6.15937C188.118 5.98551 187.875 5.89856 187.631 5.89856Z" fill="white" fill-opacity="0.2"/>
<path fill-rule="evenodd" clip-rule="evenodd" d="M197.37 12.5489C196.883 13.114 196.201 13.4182 195.276 13.4182C194.4 13.4182 193.669 13.114 193.231 12.5489C192.744 11.9838 192.5 11.2449 192.5 10.3321C192.5 9.41933 192.744 8.68041 193.231 8.11535C193.718 7.55029 194.4 7.24603 195.276 7.24603C196.153 7.24603 196.883 7.55029 197.37 8.11535C197.857 8.68041 198.101 9.41933 198.101 10.3321C198.101 11.2014 197.857 11.9404 197.37 12.5489ZM198.782 7.07215C197.955 6.24629 196.786 5.81165 195.325 5.81165C193.815 5.81165 192.695 6.24629 191.867 7.07215C191.039 7.89801 190.65 9.02813 190.65 10.3321C190.65 11.6361 191.039 12.7228 191.867 13.5921C192.695 14.4179 193.864 14.8526 195.325 14.8526C196.835 14.8526 198.003 14.4179 198.782 13.5921C199.61 12.7662 200 11.6361 200 10.3321C200 9.02813 199.562 7.89801 198.782 7.07215Z" fill="white" fill-opacity="0.2"/>
</svg>
