<svg width="88" height="24" viewBox="0 0 88 24" fill="none" xmlns="http://www.w3.org/2000/svg">
<path d="M88.0002 15.0537C87.989 11.5863 86.5544 9.00001 83.727 7.36441C82.2135 6.48968 80.4976 6.10091 78.7677 6.11294C77.0378 6.10091 75.3218 6.48875 73.8083 7.36441C70.9809 9.00001 69.5472 11.5863 69.5352 15.0537C69.5463 18.5221 70.9809 21.1083 73.8083 22.7439C75.2763 23.5927 76.944 23.9908 78.6349 24C78.6785 24 78.7231 23.9982 78.7677 23.9982C78.8122 23.9982 78.8568 24 78.9005 24C80.5913 23.9908 82.259 23.5937 83.727 22.7439C86.5544 21.1083 87.989 18.5211 88.0002 15.0537ZM82.0854 18.4795C81.2673 19.3089 80.1317 19.7485 78.8011 19.7504C78.79 19.7504 78.7797 19.7504 78.7686 19.7504C78.7575 19.7504 78.7472 19.7504 78.7361 19.7504C77.4055 19.7485 76.2699 19.3098 75.4518 18.4795C74.6264 17.6409 74.1788 16.4283 74.1834 15.0546C74.1779 13.681 74.6254 12.4675 75.4518 11.6288C76.269 10.7995 77.4046 10.3598 78.7361 10.3579H78.7435C78.7519 10.3579 78.7593 10.3579 78.7677 10.3579C78.776 10.3579 78.7835 10.3579 78.7918 10.3579H78.7992C80.1308 10.3589 81.2664 10.7985 82.0835 11.6288C82.9099 12.4675 83.3575 13.681 83.3519 15.0546C83.3575 16.4283 82.9099 17.6409 82.0835 18.4795H82.0854Z" fill="#3D4350"/>
<path d="M23.0298 6.30457V10.557H29.5222V23.8436H34.2745V10.557H40.8857V6.30457H23.0298Z" fill="#3D4350"/>
<path d="M21.4956 6.26843H16.6997V23.8436H21.4956V6.26843Z" fill="#3D4350"/>
<path d="M4.79593 6.26843H0V23.8436H4.79593V6.26843Z" fill="#3D4350"/>
<path d="M12.0274 6.26843L4.7959 23.8436H9.73947L16.6952 6.26843H12.0274Z" fill="#3D4350"/>
<path d="M60.1333 6.26843L55.3736 17.8352L50.6138 6.26843H42.4194V23.8436H47.2154V9.47485L52.9018 23.8436H57.8453L63.5317 9.47485V23.8436H68.3277V6.26843H60.1333Z" fill="#3D4350"/>
<path d="M19.0956 0C17.7696 0 16.6953 1.04875 16.6953 2.34094C16.6953 3.63314 17.7696 4.68189 19.0956 4.68189C20.4216 4.68189 21.4959 3.63406 21.4959 2.34094C21.4959 1.04782 20.4206 0 19.0956 0Z" fill="#3D4350"/>
</svg>
