<svg width="9" height="12" viewBox="0 0 9 12" fill="none" xmlns="http://www.w3.org/2000/svg">
<circle cx="4.5" cy="2.5" r="2" stroke="#97A1B9"/>
<path d="M3.1 6.5C2.98477 6.5 2.87308 6.5398 2.78381 6.61267L0.683812 8.32696C0.567488 8.42191 0.5 8.56412 0.5 8.71429V11C0.5 11.2761 0.723858 11.5 1 11.5H2.75C2.8471 11.5 2.9421 11.4717 3.02339 11.4186L4.5 10.4543L5.97661 11.4186C6.0579 11.4717 6.1529 11.5 6.25 11.5H8C8.27614 11.5 8.5 11.2761 8.5 11V8.71429C8.5 8.56412 8.43251 8.42191 8.31619 8.32696L6.21619 6.61267C6.12692 6.5398 6.01523 6.5 5.9 6.5H3.1Z" stroke="#97A1B9" stroke-linejoin="round"/>
</svg>
